<svg id="Layer_1" enable-background="new 0 0 512 512" height="512" viewBox="0 0 512 512" width="512" xmlns="http://www.w3.org/2000/svg"><g><path d="m393 156.3h-14.1v-47.8c0-23.3-19-42.3-42.3-42.3h-45.6v-.7c0-35-28.5-63.5-63.5-63.5s-63.5 28.5-63.5 63.5v.7h-45c-23.3 0-42.3 19-42.3 42.3v297.3c0 23.3 19 42.3 42.3 42.3h28.2v19.5c0 23.3 19 42.3 42.3 42.3h146.1c11.3 0 21.9-4.4 29.9-12.4l57.3-57.3c8-8 12.4-18.6 12.4-29.9v-211.7c.1-23.3-18.9-42.3-42.2-42.3zm-56.4-61.9c7.8 0 14.1 6.3 14.1 14.1v47.8h-59.7v-61.9zm-144.4-28.9c0-19.5 15.8-35.3 35.3-35.3s35.3 15.8 35.3 35.3v.7h-70.6zm-73.2 354.4c-7.8 0-14.1-6.3-14.1-14.1v-297.3c0-7.8 6.3-14.1 14.1-14.1h143.7v61.9h-28.2v-29.2c0-7.8-6.3-14.1-14.1-14.1s-14.1 6.3-14.1 14.1v29.2h-16.7c-23.3 0-42.3 19-42.3 42.3v221.3zm115.5-235.4h28.2v8.7c0 7.8-6.3 14.1-14.1 14.1s-14.1-6.3-14.1-14.1zm-59 283.2v-269c0-7.8 6.3-14.1 14.1-14.1h16.7v8.7c0 23.3 19 42.3 42.3 42.3s42.3-19 42.3-42.3v-8.7h73.7.1.1 28.2c7.8 0 14.1 6.3 14.1 14.1v209.3h-59.8c-7.8 0-14.1 6.3-14.1 14.1v59.8h-143.6c-7.8-.1-14.1-6.5-14.1-14.2zm186-5.9v-25.7h25.7z" fill="#194f82"/><path d="m262.7 65.5c0-19.5-15.8-35.3-35.3-35.3s-35.2 15.8-35.2 35.3v.7h70.6v-.7z" fill="none"/><path d="m290.9 94.4v61.9h59.7v-47.8c0-7.8-6.3-14.1-14.1-14.1z" fill="#ffc10d"/><path d="m206.3 156.3v-29.2c0-7.8 6.3-14.1 14.1-14.1s14.1 6.3 14.1 14.1v29.2h28.2v-61.9h-143.7c-7.8 0-14.1 6.3-14.1 14.1v297.3c0 7.8 6.3 14.1 14.1 14.1h28.2v-221.3c0-23.3 19-42.3 42.3-42.3z" fill="#ffc10d"/><path d="m347.3 407.9h59.8v-209.3c0-7.8-6.3-14.1-14.1-14.1h-28.1-.1-.1-73.7v8.7c0 23.3-19 42.3-42.3 42.3s-42.3-19-42.3-42.3v-8.7h-16.7c-7.8 0-14.1 6.3-14.1 14.1v269c0 7.8 6.3 14.1 14.1 14.1h143.7v-59.7c-.2-7.8 6.2-14.1 13.9-14.1z" fill="#fff"/><path d="m248.6 207.3c7.8 0 14.1-6.3 14.1-14.1v-8.7h-28.2v8.7c0 7.8 6.3 14.1 14.1 14.1z" fill="#fff"/><path d="m378.9 212.7h-92.7c-7.1 13.6-21.2 22.8-37.5 22.8s-30.5-9.3-37.5-22.8h-7.4v240.8h126.1l3.4-3.4v-28.1c0-7.8 6.3-14.1 14.1-14.1h28.1l3.5-3.5v-191.7z" fill="#56ace0"/><path d="m361.5 461.8 25.6-25.7h-25.6z" fill="#fff"/><g fill="#194f82"><path d="m342 288.3h-101.4c-7.8 0-14.1-6.3-14.1-14.1s6.3-14.1 14.1-14.1h101.4c7.8 0 14.1 6.3 14.1 14.1s-6.3 14.1-14.1 14.1z"/><path d="m342 362.2h-101.4c-7.8 0-14.1-6.3-14.1-14.1s6.3-14.1 14.1-14.1h101.4c7.8 0 14.1 6.3 14.1 14.1s-6.3 14.1-14.1 14.1z"/><path d="m291 436.1h-50.5c-7.8 0-14.1-6.3-14.1-14.1s6.3-14.1 14.1-14.1h50.5c7.8 0 14.1 6.3 14.1 14.1s-6.3 14.1-14.1 14.1z"/></g></g></svg>