<?xml version="1.0"?>
<svg width="32" height="32" xmlns="http://www.w3.org/2000/svg" xmlns:svg="http://www.w3.org/2000/svg" data-name="Layer 2">
 <g class="layer">
  <title>Layer 1</title>
  <path d="m16,1a15,15 0 1 0 15,15a15.02,15.02 0 0 0 -15,-15zm0,28a13,13 0 1 1 13,-13a13.02,13.02 0 0 1 -13,13z" fill="#ffffff" id="svg_1"/>
  <path d="m24.55,15.17l-12,-8a1,1 0 0 0 -1.55,0.83l0,16a1,1 0 0 0 1.55,0.83l12,-8a1,1 0 0 0 0,-1.66zm-11.55,6.96l0,-12.26l9.2,6.13l-9.2,6.13z" fill="#ffffff" id="svg_2"/>
 </g>
</svg>