<?xml version="1.0" encoding="UTF-8"?>
<!DOCTYPE svg PUBLIC "-//W3C//DTD SVG 1.1//EN" "http://www.w3.org/Graphics/SVG/1.1/DTD/svg11.dtd">
<!-- Creator: CorelDRAW 2020 (64 Bit) -->
<svg xmlns="http://www.w3.org/2000/svg" xml:space="preserve" width="42.3332mm" height="42.3332mm" version="1.1" style="shape-rendering:geometricPrecision; text-rendering:geometricPrecision; image-rendering:optimizeQuality; fill-rule:evenodd; clip-rule:evenodd"
viewBox="0 0 4233.32 4233.32"
 xmlns:xlink="http://www.w3.org/1999/xlink"
 xmlns:xodm="http://www.corel.com/coreldraw/odm/2003">
 <defs>
  <style type="text/css">
   <![CDATA[
    .fil0 {fill:#FFF}
   ]]>
  </style>
 </defs>
 <g id="Camada_x0020_1">
  <metadata id="CorelCorpID_0Corel-Layer"/>
  <g id="_1570394591712">
   <g id="_2226167620096">
    <path class="fil0" d="M2412.91 509.39c249.32,0 366.98,10.94 595.7,117.46 21.53,10.02 28.38,12.05 48.78,23.31 64.35,35.52 165.04,96.8 215.05,145.54 61.37,59.79 55.27,40.39 108.84,107.5 12.26,15.38 21.33,22.3 35.4,36.74 100.25,102.88 215.13,335.97 248.03,473.13 75.12,313.06 45.01,545.41 -72.77,836.26 -13.59,33.54 -19.98,44.44 -37.78,74.4 -16.16,27.2 -24.45,44.91 -40.83,71.35l-148.82 187.73c-39.5,39.06 -74.28,72.36 -117.06,107.3 -37.43,30.55 -87.87,68.31 -132.12,92.24 -54.61,29.54 -92.66,53.99 -154.06,78.33 -248.92,98.67 -503.39,131.03 -767.98,63.88 -239.92,-60.91 -411.37,-157.47 -579.68,-325.79l-154.33 -182.21c-97.3,-137.35 -195.78,-401.78 -200.25,-585.04 -1.13,-45.91 -9.86,-58.22 -8.54,-104.14 9.54,-334.84 137.74,-635.99 371.11,-871.46 24.25,-24.47 34.04,-30.74 59.73,-52.46 78.26,-66.2 180.42,-142.27 275.95,-180.77 134.83,-54.37 275.66,-113.3 455.63,-113.3zm-1594.6 1121.81c0,181.8 -5.64,206.07 25.08,391.61 22.32,134.86 74.2,278.86 129.8,399.05 110.72,239.37 166.13,126.35 -176.92,469.38 -95.45,95.45 -185.02,185.02 -280.45,280.47 -91.21,91.22 -348.38,332.99 -408.21,433.15 -214.12,358.54 143.12,714.56 494.89,502.89 108.37,-65.2 334.23,-307.26 434.16,-407.2l488.8 -488.78c115.11,-115.54 73.27,-40.77 447.85,101.04 375.94,142.32 883.35,97.37 1232.92,-78.97 161.29,-81.38 275.24,-156.28 406.45,-282.66 22.13,-21.29 35.92,-25.63 56.52,-47.65 18.93,-20.25 22.69,-31.43 43.66,-52.5 123.41,-123.99 201.46,-265.66 278.64,-418.5 231,-457.5 191.64,-1103.25 -68.65,-1534.01 -123.66,-204.67 -285.64,-392.09 -482.68,-526.95 -102.89,-70.42 -133.46,-88.43 -252.58,-148.08 -401.86,-201.22 -998.29,-209.08 -1402.44,-5.3 -131.73,66.41 -123.32,57.65 -250.52,142.11 -42.86,28.45 -75.68,55.48 -114.31,86 -23.06,18.23 -29.88,23.4 -51.08,45.08 -22.89,23.44 -33.24,27.89 -56.18,48 -35.68,31.25 -150.95,176.79 -180.41,212.21 -168.64,202.71 -314.34,608.48 -314.34,879.61l0 0z"/>
    <path class="fil0" d="M2893.67 1150.43c186.84,0 246.93,-190.67 126.52,-302.81 -88.35,-82.3 -354.04,-113.87 -503.12,-113.87 -133.7,0 -299.26,46.57 -392.62,88.15l-156.82 83.58c-23.92,15.65 -46.89,33.12 -69.93,50.26 -143.79,106.96 -510.69,507.79 -278.11,651.46 52.93,32.69 123.29,38.06 182.09,5.75 108.29,-59.51 75.14,-217.43 330.79,-398.4 84.92,-60.13 215.81,-120 352.54,-128.24 281.84,-16.99 327.35,64.12 408.66,64.12z"/>
   </g>
  </g>
 </g>
</svg>
