<?xml version="1.0"?>
<svg width="24" height="24" xmlns="http://www.w3.org/2000/svg" xmlns:svg="http://www.w3.org/2000/svg" enable-background="new 0 0 24 24">
 <g class="layer">
  <title>Layer 1</title>
  <g id="svg_1">
   <path d="m17.45,24c-0.16,0 -0.34,-0.02 -0.51,-0.07l-15.46,-4.14c-1.06,-0.29 -1.69,-1.39 -1.41,-2.45l1.95,-7.27c0.07,-0.27 0.34,-0.42 0.61,-0.35c0.27,0.07 0.42,0.34 0.35,0.61l-1.95,7.27c-0.14,0.53 0.18,1.08 0.71,1.23l15.46,4.14c0.53,0.14 1.08,-0.18 1.22,-0.71l0.78,-2.89c0.07,-0.27 0.34,-0.43 0.61,-0.35c0.27,0.07 0.42,0.34 0.35,0.61l-0.78,2.89c-0.23,0.89 -1.04,1.48 -1.93,1.48z" fill="#ffffff" id="svg_2"/>
  </g>
  <g id="svg_3">
   <path d="m22,18l-16,0c-1.1,0 -2,-0.9 -2,-2l0,-12c0,-1.1 0.9,-2 2,-2l16,0c1.1,0 2,0.9 2,2l0,12c0,1.1 -0.9,2 -2,2zm-16,-15c-0.55,0 -1,0.45 -1,1l0,12c0,0.55 0.45,1 1,1l16,0c0.55,0 1,-0.45 1,-1l0,-12c0,-0.55 -0.45,-1 -1,-1l-16,0z" fill="#ffffff" id="svg_4"/>
  </g>
  <g id="svg_5">
   <path d="m9,9c-1.1,0 -2,-0.9 -2,-2s0.9,-2 2,-2s2,0.9 2,2s-0.9,2 -2,2zm0,-3c-0.55,0 -1,0.45 -1,1s0.45,1 1,1s1,-0.45 1,-1s-0.45,-1 -1,-1z" fill="#ffffff" id="svg_6"/>
  </g>
  <g id="svg_7">
   <path d="m4.57,16.93c-0.13,0 -0.26,-0.05 -0.35,-0.15c-0.2,-0.19 -0.2,-0.51 0,-0.7l4.72,-4.73c0.57,-0.56 1.55,-0.56 2.12,0l1.41,1.41l3.89,-4.67c0.28,-0.34 0.7,-0.54 1.14,-0.54l0.01,0c0.44,0 0.85,0.19 1.14,0.52l5.23,6.11c0.18,0.2 0.16,0.52 -0.05,0.7c-0.21,0.18 -0.53,0.16 -0.71,-0.05l-5.23,-6.11c-0.1,-0.11 -0.23,-0.17 -0.38,-0.17c-0.1,-0.01 -0.29,0.06 -0.38,0.18l-4.25,5.09c-0.09,0.11 -0.22,0.17 -0.36,0.18c-0.14,0.01 -0.27,-0.05 -0.37,-0.15l-1.8,-1.79c-0.19,-0.19 -0.51,-0.19 -0.7,0l-4.73,4.72c-0.09,0.1 -0.22,0.15 -0.35,0.15z" fill="#ffffff" id="svg_8"/>
  </g>
 </g>
</svg>