<svg version="1.1" xmlns="http://www.w3.org/2000/svg" xmlns:xlink="http://www.w3.org/1999/xlink" width="512" height="512" viewBox="0,0,256,256"><g fill="#002c23" fill-rule="nonzero" stroke="none" stroke-width="1" stroke-linecap="butt" stroke-linejoin="miter" stroke-miterlimit="10" stroke-dasharray="" stroke-dashoffset="0" font-family="none" font-weight="none" font-size="none" text-anchor="none" style="mix-blend-mode: normal"><g transform="translate(-0.00015,0) scale(0.49997,0.49997)"><path d="M445.399,473.116l64.859,-119.966c2.44,-4.52 2.367,-10.177 -0.213,-14.647l-173.605,-300c-2.748,-4.74 -7.837,-7.487 -12.982,-7.487h-134.878c-5.276,0 -10.273,2.818 -12.976,7.477c-0.002,0.004 -0.005,0.007 -0.007,0.01c-0.002,0.003 -0.008,0.013 -0.01,0.016c-0.002,0.003 -0.003,0.007 -0.005,0.01l-173.59,299.974c-2.632,4.561 -2.607,10.212 -0.213,14.647l64.859,119.966c2.62,4.863 7.732,7.9 13.213,7.9c0,0 352.288,0.003 352.321,0.003c5.43,0 10.553,-2.951 13.227,-7.903zM105.832,451.016l51.962,-90h314.107l-48.658,90zM188.571,75.979l49.598,85.823l-157.888,273.469l-48.12,-89.007zM255.494,191.795l80.403,139.221h-160.783zM314.807,61.016l156.245,270h-100.512l-102.033,-176.675c0,-0.001 -0.001,-0.002 -0.001,-0.002l-53.933,-93.323z"></path></g></g></svg>