<?xml version="1.0"?>
<svg width="64" height="64" xmlns="http://www.w3.org/2000/svg" xmlns:svg="http://www.w3.org/2000/svg">
 <g class="layer">
  <title>Layer 1</title>
  <path d="m37,54l-2,0l0,-9.8a1,1 0 0 0 -2,0l0,9.8l-26,0l0,-20l8.32,0a1,1 0 0 0 0,-2l-9.32,0a1,1 0 0 0 -1,1l0,21l-2,0a1,1 0 0 0 -1,1l0,2a5,5 0 0 0 5,5l26,0a5,5 0 0 0 5,-5l0,-2a1,1 0 0 0 -1,-1zm-1,3a3,3 0 0 1 -3,3l-2,0l0,-1a1,1 0 0 0 -2,0l0,1l-18,0l0,-1a1,1 0 0 0 -2,0l0,1l-2,0a3,3 0 0 1 -3,-3l0,-1l32,0l0,1z" fill="#002c23" id="svg_1"/>
  <path d="m54,8l2,0a1,1 0 0 0 0,-2l-2,0a3,3 0 0 0 -3,3l0,1l-1,0a1,1 0 0 0 0,2l1,0l0,3a1,1 0 0 0 2,0l0,-3l1,0a1,1 0 0 0 0,-2l-1,0l0,-1a1,1 0 0 1 1,-1z" fill="#002c23" id="svg_2"/>
  <path d="m59,2l-12,0a3,3 0 0 0 -3,3l0,2a1,1 0 0 0 2,0l0,-2a1,1 0 0 1 1,-1l12,0a1,1 0 0 1 1,1l0,12a1,1 0 0 1 -1,1l-12,0a1,1 0 0 1 -1,-1l0,-6a1,1 0 0 0 -2,0l0,6a3,3 0 0 0 3,3l12,0a3,3 0 0 0 3,-3l0,-12a3,3 0 0 0 -3,-3z" fill="#002c23" id="svg_3"/>
  <path d="m49,42a4,4 0 1 0 4,-4a4,4 0 0 0 -4,4zm6,0a2,2 0 1 1 -2,-2a2,2 0 0 1 2,2z" fill="#002c23" id="svg_4"/>
  <path d="m59,33l-12,0a3,3 0 0 0 -3,3l0,12a3,3 0 0 0 3,3l12,0a3,3 0 0 0 3,-3l0,-2a1,1 0 0 0 -2,0l0,2a1,1 0 0 1 -1,1l-12,0a1,1 0 0 1 -1,-1l0,-12a1,1 0 0 1 1,-1l12,0a1,1 0 0 1 1,1l0,6a1,1 0 0 0 2,0l0,-6a3,3 0 0 0 -3,-3z" fill="#002c23" id="svg_5"/>
  <path d="m24.47,13.85a1,1 0 0 0 0.53,0.15a1,1 0 0 0 0.45,-0.11l6,-3a1,1 0 0 0 0,-1.78l-6,-3a1,1 0 0 0 -1.45,0.89l0,6a1,1 0 0 0 0.47,0.85zm1.53,-5.23l2.76,1.38l-2.76,1.38l0,-2.76z" fill="#002c23" id="svg_6"/>
  <path d="m27,19a9,9 0 1 0 -9,-9a9,9 0 0 0 9,9zm0,-16a7,7 0 1 1 -7,7a7,7 0 0 1 7,-7z" fill="#002c23" id="svg_7"/>
  <path d="m37,23a1,1 0 0 0 0.8,-0.4l3,-4a1,1 0 0 0 -1.6,-1.2l-3,4a1,1 0 0 0 0.2,1.4a1,1 0 0 0 0.6,0.2z" fill="#002c23" id="svg_8"/>
  <path d="m39.2,26.6a1,1 0 0 0 0.8,0.4a1,1 0 0 0 0.6,-0.2l4,-3a1,1 0 1 0 -1.2,-1.6l-4,3a1,1 0 0 0 -0.2,1.4z" fill="#002c23" id="svg_9"/>
  <path d="m49,28.8a1,1 0 0 0 -1.2,-0.8l-5,1a1,1 0 0 0 0.2,2l0.2,0l5,-1a1,1 0 0 0 0.8,-1.2z" fill="#002c23" id="svg_10"/>
  <path d="m3,29l12,0a1,1 0 0 0 1,-1l0,-16a1,1 0 0 0 -1,-1l-12,0a1,1 0 0 0 -1,1l0,16a1,1 0 0 0 1,1zm1,-16l10,0l0,14l-10,0l0,-14z" fill="#002c23" id="svg_11"/>
  <path d="m11,15l-2,0a1,1 0 0 0 0,2l2,0a1,1 0 0 0 0,-2z" fill="#002c23" id="svg_12"/>
  <path d="m11,19l-4,0a1,1 0 0 0 0,2l4,0a1,1 0 0 0 0,-2z" fill="#002c23" id="svg_13"/>
  <path d="m11,23l-4,0a1,1 0 0 0 0,2l4,0a1,1 0 0 0 0,-2z" fill="#002c23" id="svg_14"/>
  <path d="m36.12,28.7a1,1 0 0 0 -1.74,1l4.41,7.63l-16,6s0,0 -0.07,0l-0.08,0l-2.6,1.5l-1.73,1a2,2 0 0 1 -1.52,0.2a2,2 0 0 1 -1.21,-0.93l-2,-3.46a2,2 0 0 1 0.75,-2.64l3.46,-2l2.5,4.33a1,1 0 0 0 0.87,0.5a1,1 0 0 0 0.87,-1.5l-2.58,-4.46l12.55,-10.35l0.41,0.71a1,1 0 1 0 1.74,-1l-1,-1.73a1,1 0 0 0 -0.69,-0.48a1,1 0 0 0 -0.82,0.21l-14,11.54l-4.26,2.46a4,4 0 0 0 -1.84,4.53l-1,0.57a3,3 0 0 0 0.72,5.5a3,3 0 0 0 0.78,0.1a3.06,3.06 0 0 0 1.5,-0.4l1,-0.57a3.88,3.88 0 0 0 1.75,1.04a3.79,3.79 0 0 0 1.05,0.14a3.94,3.94 0 0 0 2,-0.54l0.87,-0.5l2,3.47a3,3 0 0 0 4.09,1.1a3,3 0 0 0 1.1,-4.1l-1.82,-3.17l15,-5.63a1,1 0 0 0 0.59,-0.6a1,1 0 0 0 -0.07,-0.83l-4.98,-8.64zm-23.62,17.09a1,1 0 0 1 -0.76,0.1a1,1 0 0 1 -0.61,-0.46a1,1 0 0 1 -0.1,-0.76a1,1 0 0 1 0.47,-0.61l0.87,-0.5l1,1.73l-0.87,0.5zm13.16,2.8a1,1 0 0 1 0.1,0.76a1,1 0 0 1 -0.47,0.6a1,1 0 0 1 -1.36,-0.36l-2,-3.47l1.66,-0.95l0.08,0l1.99,3.42z" fill="#002c23" id="svg_15"/>
 </g>
</svg>