<svg version="1.1" xmlns="http://www.w3.org/2000/svg" xmlns:xlink="http://www.w3.org/1999/xlink" width="512" height="512" viewBox="0,0,256,256"><g fill="#002c23" fill-rule="nonzero" stroke="none" stroke-width="1" stroke-linecap="butt" stroke-linejoin="miter" stroke-miterlimit="10" stroke-dasharray="" stroke-dashoffset="0" font-family="none" font-weight="none" font-size="none" text-anchor="none" style="mix-blend-mode: normal"><g transform="scale(1.0564,1.06886)"><g><path d="M82.995,52.134c10.989,5.805 24.6,1.602 30.404,-9.386c0.479,-0.908 0.884,-1.834 1.229,-2.772l-39.422,-20.824c-0.58,0.813 -1.117,1.67 -1.597,2.577c-5.804,10.989 -1.601,24.601 9.386,30.405z"></path><path d="M75.441,16.789l0.356,0.188l40.905,21.608l0.354,0.187c1.475,0.779 3.299,0.216 4.078,-1.259c0.778,-1.473 0.216,-3.299 -1.258,-4.078l-0.368,-0.194c3.415,-6.889 3.077,-14.701 -0.274,-21.063l-0.86,1.628c-0.616,1.166 -2.06,1.613 -3.226,0.997c-1.166,-0.616 -1.612,-2.062 -0.996,-3.228l2.029,-3.841c-1.309,-1.495 -2.824,-2.84 -4.538,-3.984l-2.684,5.082c-0.616,1.166 -2.06,1.613 -3.226,0.997c-1.167,-0.617 -1.612,-2.062 -0.996,-3.228l2.684,-5.081c-1.911,-0.771 -3.876,-1.264 -5.848,-1.502l-2.029,3.841c-0.616,1.166 -2.06,1.613 -3.228,0.996c-1.166,-0.616 -1.61,-2.061 -0.995,-3.227l0.859,-1.628c-7.143,0.819 -13.786,4.943 -17.55,11.646l-0.369,-0.195c-1.473,-0.778 -3.298,-0.213 -4.076,1.261c-0.78,1.475 -0.217,3.298 1.256,4.077z"></path><path d="M112.333,208.507l-18,31h148l-9,-31l-23,-9l-15,-33l-32,-10l-2.597,3.153c-6.871,-5.413 -14.406,-11.35 -14.406,-11.35l-9.507,12.067l-5.248,-1.889l-1.464,1.859l-14.668,-11.609c1.331,-1.815 1.898,-4.174 1.35,-6.538l-8.632,-37.24l-3.656,-37.505c0.263,-3.004 -1.256,-6.013 -4.091,-7.51l-0.871,-0.46c-1.813,7.291 -3.788,16.349 -4.416,23.376c-0.336,3.756 -1.804,8.998 -3.767,14.655l0.928,9.517c0.033,0.347 0.09,0.69 0.169,1.03l6.382,27.533l-17.151,-13.574l0.646,-2.159l1.778,-5.941c-0.135,-0.04 -11.305,-3.393 -21.648,-7.114l-4.358,-3.449l2.929,-7.393c11.706,4.526 26.792,9.055 27.454,9.253l2.867,-9.58c-0.158,-0.047 -15.289,-4.59 -26.637,-8.97l8.451,-21.326l9.493,-10.812c-0.248,-0.121 -0.5,-0.235 -0.744,-0.365c-4.027,-2.127 -7.293,-5.261 -9.592,-9.059l-1.273,-0.672l-0.673,19.802l-8.451,21.326c-11.268,-4.581 -25.405,-11.637 -25.552,-11.71l-4.41,8.818l-0.018,-0.015l-8.624,-6.825l10.454,-23.009l13.607,2.066c3.211,-4.918 6.338,-10.337 8.824,-14.843l-26.01,-3.95c-0.02,-0.003 -0.04,-0.003 -0.06,-0.006c-0.207,-0.03 -0.414,-0.049 -0.622,-0.062c-0.058,-0.004 -0.117,-0.011 -0.175,-0.013c-0.204,-0.009 -0.406,-0.006 -0.609,0.001c-0.065,0.002 -0.13,0.001 -0.194,0.004c-0.184,0.011 -0.367,0.032 -0.549,0.056c-0.08,0.01 -0.162,0.016 -0.241,0.029c-0.166,0.026 -0.328,0.063 -0.492,0.1c-0.091,0.02 -0.183,0.036 -0.274,0.06c-0.159,0.041 -0.314,0.094 -0.47,0.145c-0.088,0.029 -0.178,0.053 -0.264,0.085c-0.167,0.061 -0.33,0.133 -0.493,0.206c-0.069,0.031 -0.141,0.057 -0.209,0.09c-0.181,0.087 -0.357,0.184 -0.531,0.284c-0.045,0.026 -0.093,0.049 -0.138,0.076c-0.186,0.111 -0.365,0.233 -0.541,0.36c-0.031,0.022 -0.063,0.041 -0.094,0.064c-0.171,0.126 -0.335,0.263 -0.496,0.403c-0.034,0.029 -0.069,0.056 -0.102,0.085c-0.141,0.127 -0.273,0.262 -0.406,0.399c-0.05,0.052 -0.103,0.101 -0.152,0.154c-0.105,0.115 -0.202,0.237 -0.3,0.359c-0.07,0.086 -0.142,0.17 -0.208,0.259c-0.072,0.097 -0.138,0.2 -0.206,0.301c-0.084,0.123 -0.168,0.246 -0.244,0.375c-0.049,0.082 -0.093,0.169 -0.139,0.254c-0.084,0.153 -0.166,0.306 -0.24,0.465c-0.011,0.023 -0.025,0.045 -0.035,0.068l-12.07,26.567l-9.647,12.244l5.499,4.332l3.226,-4.094c0.766,0.976 1.767,1.791 2.975,2.339c1.074,0.488 2.198,0.719 3.305,0.719c1.631,0 3.214,-0.515 4.547,-1.435l9.876,7.816l9.992,7.908c-5.814,-2.724 -10.202,-4.914 -10.283,-4.955l-2.778,5.555l-1.694,3.388c0.053,0.026 0.214,0.107 0.454,0.226c2.569,1.275 15.252,7.522 25.885,11.838l-3.896,9.832c-15.679,-6.366 -23.682,-12.193 -24.692,-12.954c-0.516,2.464 -0.738,5.269 -0.374,7.534l2.825,48.963l-20.19,52.141c-2.493,6.438 0.706,13.678 7.143,16.17c1.484,0.575 3.01,0.847 4.511,0.847c5.012,0 9.741,-3.035 11.659,-7.989l21.167,-54.667c0.646,-1.666 0.926,-3.45 0.823,-5.233l-1.854,-32.14l22.98,29.951l-18.014,56.44c-2.099,6.577 1.531,13.61 8.107,15.709c1.265,0.403 2.544,0.596 3.804,0.595c5.294,0 10.21,-3.39 11.905,-8.702l20,-62.666c1.245,-3.9 0.501,-8.162 -1.991,-11.41l-18.444,-24.04c-2.069,-0.253 -11.653,-1.663 -26.581,-7.435l3.899,-9.839c4.274,1.653 8.995,3.305 13.304,4.747l11.475,9.081l22.702,17.967c0.922,3.5 4.042,5.867 7.524,5.954l17.18,13.597l-1.464,1.859l3.065,4.66l-9.507,12.067c0,0 9.576,7.545 16.982,13.379l-4.717,7.945zM32.499,83.093c2.867,1.422 15.299,7.528 25.748,11.769l-2.597,6.553z"></path></g></g></g></svg>