<svg version="1.1" xmlns="http://www.w3.org/2000/svg" xmlns:xlink="http://www.w3.org/1999/xlink" width="512" height="512" viewBox="0,0,256,256"><g fill="#ffffff" fill-rule="nonzero" stroke="none" stroke-width="1" stroke-linecap="butt" stroke-linejoin="miter" stroke-miterlimit="10" stroke-dasharray="" stroke-dashoffset="0" font-family="none" font-weight="none" font-size="none" text-anchor="none" style="mix-blend-mode: normal"><g transform="translate(0.00015,0.00009) scale(0.42121,0.42121)"><g><g id="Page-1_5_"><g id="_x30_06---Draw-Blueprint"><path d="M607.772,60.352c0.037,-8.254 -3.248,-16.176 -9.117,-21.981l-29.253,-29.254c-5.778,-5.841 -13.654,-9.124 -21.87,-9.117h-0.101c-8.166,0.005 -15.987,3.29 -21.708,9.117l-132.696,132.696h-261.341v-111.424c0,-16.784 -13.606,-30.389 -30.389,-30.389h-20.259c-44.734,0.05 -80.986,36.302 -81.036,81.036v448.241c2.535,44.393 39.511,78.955 83.974,78.493h493.408c16.783,0 30.388,-13.605 30.388,-30.388v-405.18c0,-16.783 -13.605,-30.389 -30.388,-30.389h-38.492l59.764,-59.764c5.815,-5.724 9.098,-13.537 9.116,-21.697zM362.436,253.238c-2.144,0.292 -4.299,-0.462 -5.794,-2.026c-1.508,-1.498 -2.253,-3.6 -2.026,-5.713l3.839,-34.44c0.161,-0.72 0.364,-1.431 0.608,-2.127l39.9,39.9c-0.658,0.142 -1.256,0.466 -1.945,0.547zM415.504,236.696l-44.327,-44.337l110.412,-110.411l44.306,44.296zM495.872,67.614l15.022,-15.012l44.286,44.296l-15.012,15.022zM20.261,81.036c0.034,-33.552 27.225,-60.744 60.777,-60.777h20.259c5.594,0 10.13,4.535 10.13,10.129v405.18c0,5.594 -4.535,10.129 -10.13,10.129h-20.259c-23.271,-0.007 -45.417,10.01 -60.777,27.491zM577.384,162.072c5.594,0 10.13,4.535 10.13,10.13v405.18c0,5.594 -4.535,10.13 -10.13,10.13h-493.408c-33.44,0.562 -61.454,-25.181 -63.715,-58.549v-2.229c0.034,-33.552 27.225,-60.743 60.777,-60.777h20.259c16.783,0 30.388,-13.605 30.388,-30.388v-273.497h241.082l-23.004,23.004c-6.422,6.328 -10.462,14.679 -11.436,23.642l-3.839,34.511c-0.316,3.366 0.004,6.76 0.942,10.008h-173.356c-5.594,0 -10.13,4.535 -10.13,10.13c0,5.594 4.535,10.129 10.13,10.129h30.389v273.497c0,5.594 4.535,10.13 10.13,10.13c5.595,0 10.13,-4.535 10.13,-10.13v-141.813h111.424v81.036h-70.907c-5.594,0 -10.129,4.535 -10.129,10.129c0,5.594 4.535,10.13 10.129,10.13h202.59c11.189,0 20.259,-9.07 20.259,-20.259v-151.942c0,-5.594 -4.535,-10.13 -10.129,-10.13c-5.594,0 -10.13,4.535 -10.13,10.13v50.647h-243.108v-111.424h148.985c0.988,0.002 1.976,-0.052 2.958,-0.162l34.612,-3.94c8.785,-0.997 16.985,-4.901 23.298,-11.092l96.109,-96.23h58.7zM455.83,405.18v81.036h-111.425v-81.036zM584.373,67.685l-14.87,14.88l-44.286,-44.286l14.88,-14.88c1.947,-1.998 4.615,-3.13 7.405,-3.14c2.84,0.007 5.558,1.153 7.546,3.181l29.295,29.234c2.037,2.006 3.18,4.748 3.171,7.607c-0.009,2.79 -1.141,5.459 -3.141,7.404z" id="Shape_17_"></path></g></g></g></g></g></svg>