<?xml version="1.0" encoding="UTF-8"?>
<!DOCTYPE svg PUBLIC "-//W3C//DTD SVG 1.1//EN" "http://www.w3.org/Graphics/SVG/1.1/DTD/svg11.dtd">
<!-- Creator: CorelDRAW 2020 (64 Bit) -->
<svg xmlns="http://www.w3.org/2000/svg" xml:space="preserve" width="127mm" height="127mm" version="1.1" style="shape-rendering:geometricPrecision; text-rendering:geometricPrecision; image-rendering:optimizeQuality; fill-rule:evenodd; clip-rule:evenodd"
viewBox="0 0 12700 12700"
 xmlns:xlink="http://www.w3.org/1999/xlink"
 xmlns:xodm="http://www.corel.com/coreldraw/odm/2003">
 <defs>
  <style type="text/css">
   <![CDATA[
    .fil0 {fill:#002c23}
    .fil1 {fill:#FEFEFE}
   ]]>
  </style>
 </defs>
 <g id="Camada_x0020_1">
  <metadata id="CorelCorpID_0Corel-Layer"/>
  <g id="_2177870518288">
   <path class="fil0" d="M6608.65 5756.37c-168.83,-130.88 -116.94,-113.11 -208.13,-194.74l-428.84 -378.92c-88.6,-94.34 -128.42,-112.85 -213.91,-189.76l-416.6 -389.33c-163.65,-127.54 -782.23,-699.1 -827.7,-786.8 -223.43,-430.77 131.91,-912.12 604.25,-814.76 276.04,56.9 1038.99,869.77 1318.38,1099.19l732.62 667.1c38.33,36.25 64.59,50.62 106.7,84.21l628.99 580.35c72.76,77.22 145.01,110.31 217.65,186.64 147.75,155.26 256.01,228.17 256.01,524.02 -0.01,427.33 -323.8,547.36 -484.51,723.37l-2323.7 2113.24c-703.93,754.77 -1362.48,-10.72 -1039.9,-541.34 75.84,-124.72 326.99,-306.42 410.15,-396.67l1259.56 -1137.6c179.92,-192.73 625.42,-548.91 822.85,-761l-413.87 -387.2zm-6414.65 387.2l0 450.86c0,1212.43 478.91,2380.22 1110.57,3303.14 1028.88,1503.27 2958.02,2605.53 4798.1,2605.53 703.6,0 1041.08,-1.85 1742.11,-179.99 809.05,-205.59 1789.86,-680.72 2428.18,-1249.9 767.87,-684.68 1151.97,-1170.09 1612.11,-2089.72 283.11,-565.82 577.13,-1553.1 577.13,-2389.06 0,-703.6 -1.85,-1041.08 -179.99,-1742.11 -210.51,-828.4 -687.36,-1797.29 -1249.9,-2428.18l-367.63 -391.72c-1052.47,-1052.48 -2576.72,-1797.52 -4111.15,-1797.52 -910.52,0 -1458.37,48.65 -2304.81,352.91 -1277.11,459.07 -2586.54,1497.84 -3224.23,2684.44 -444.01,826.2 -830.49,1755.79 -830.49,2871.32z"/>
   <path class="fil1" d="M7022.52 6143.57c-197.43,212.09 -642.93,568.27 -822.85,761l-1259.56 1137.6c-83.16,90.25 -334.31,271.95 -410.15,396.67 -322.58,530.62 335.97,1296.11 1039.9,541.34l2323.7 -2113.24c160.71,-176.01 484.5,-296.04 484.51,-723.37 0,-295.85 -108.26,-368.76 -256.01,-524.02 -72.64,-76.33 -144.89,-109.42 -217.65,-186.64l-628.99 -580.35c-42.11,-33.59 -68.37,-47.96 -106.7,-84.21l-732.62 -667.1c-279.39,-229.42 -1042.34,-1042.29 -1318.38,-1099.19 -472.34,-97.36 -827.68,383.99 -604.25,814.76 45.47,87.7 664.05,659.26 827.7,786.8l416.6 389.33c85.49,76.91 125.31,95.42 213.91,189.76l428.84 378.92c91.19,81.63 39.3,63.86 208.13,194.74l413.87 387.2z"/>
  </g>
 </g>
</svg>
