<?xml version="1.0" encoding="UTF-8"?>
<!DOCTYPE svg PUBLIC "-//W3C//DTD SVG 1.1//EN" "http://www.w3.org/Graphics/SVG/1.1/DTD/svg11.dtd">
<!-- Creator: CorelDRAW 2020 (64 Bit) -->
<svg xmlns="http://www.w3.org/2000/svg" xml:space="preserve" width="1000px" height="400px" version="1.1" style="shape-rendering:geometricPrecision; text-rendering:geometricPrecision; image-rendering:optimizeQuality; fill-rule:evenodd; clip-rule:evenodd"
viewBox="0 0 1000 400"
 xmlns:xlink="http://www.w3.org/1999/xlink"
 xmlns:xodm="http://www.corel.com/coreldraw/odm/2003">
 <defs>
  <style type="text/css">
   <![CDATA[
    .fil0 {fill:#858585}
   ]]>
  </style>
 </defs>
 <g id="Camada_x0020_1">
  <metadata id="CorelCorpID_0Corel-Layer"/>
  <path class="fil0" d="M18 46c0,18.4 4.03,27.21 18.19,36.81 10.62,7.2 20.35,13.84 31.02,20.98l45.59 31.41c35.7,23.73 72.15,50.21 107.4,73.6l61.2 41.8c5.58,3.69 9.87,6.91 15.4,10.6 35.23,23.48 71.77,50 106.8,73.2 5.6,3.71 10.16,7.13 15.4,10.6 5.3,3.52 10.05,6.67 15.42,10.58l46.38 31.62c6.42,4.26 11.07,7.96 16.5,8.8l4.69 0c4.17,-0.62 9.04,-2.89 15.44,-7.57 5.65,-4.13 11.01,-7.36 16.78,-11.22l33.19 -22.81c5.86,-3.91 10.16,-7.11 16,-11l50.01 -33.99c11.13,-7.71 21.56,-15.06 32.59,-22.41 41.07,-27.37 82.32,-56.98 123.61,-84.39l173.39 -118.61c11.48,-7.65 20.62,-17.64 19.54,-34.64 -1,-15.7 -7.97,-32.36 -25.54,-32.36 -9.73,0 -35.09,20.43 -44.4,26.6l-198.4 135.6c-37.46,24.86 -75.86,52.58 -113.4,77.6 -5.12,3.41 -9.19,6.12 -14.22,9.78l-71.38 48.62c-5.05,3.35 -9.3,6.52 -14.2,9.8l-441.6 -302.4c-6.92,-4.62 -9.06,-7.6 -18.4,-7.6 -13.12,0 -23,17.35 -23,31z"/>
 </g>
</svg>
