<?xml version="1.0" encoding="UTF-8"?>
<!DOCTYPE svg PUBLIC "-//W3C//DTD SVG 1.1//EN" "http://www.w3.org/Graphics/SVG/1.1/DTD/svg11.dtd">
<!-- Creator: CorelDRAW 2020 (64 Bit) -->
<svg xmlns="http://www.w3.org/2000/svg" xml:space="preserve" width="42.3332mm" height="10.1598mm" version="1.1" style="shape-rendering:geometricPrecision; text-rendering:geometricPrecision; image-rendering:optimizeQuality; fill-rule:evenodd; clip-rule:evenodd"
viewBox="0 0 4233.32 1015.98"
 xmlns:xlink="http://www.w3.org/1999/xlink"
 xmlns:xodm="http://www.corel.com/coreldraw/odm/2003">
 <defs>
  <style type="text/css">
   <![CDATA[
    .fil0 {fill:white;fill-rule:nonzero}
   ]]>
  </style>
 </defs>
 <g id="Camada_x0020_1">
  <metadata id="CorelCorpID_0Corel-Layer"/>
  <path class="fil0" d="M282.39 877.12c128.97,0 187.19,-86.33 187.19,-184.07 0,-216.33 -271.43,-199.67 -271.43,-371.27 0,-66.55 53.04,-100.86 109.19,-100.86 37.44,0 76.97,28.07 89.45,87.35 3.12,10.39 12.48,18.72 22.87,18.72 13.54,0 26.01,-14.57 26.01,-32.25 0,-4.16 -1.05,-9.36 -3.12,-13.52 -19.77,-65.51 -72.81,-114.4 -133.12,-114.4 -123.76,0 -193.43,87.36 -193.43,184.07 0,203.83 273.52,211.12 273.52,357.76 0,89.42 -38.5,120.61 -89.45,120.61 -58.24,0 -139.36,-43.67 -162.23,-73.82 -5.21,-7.29 -12.48,-11.44 -19.75,-11.44 -14.57,0 -24.96,14.56 -24.96,32.23 0,7.29 2.06,15.6 6.24,20.8 38.47,47.83 113.35,80.09 183.02,80.09zm477.33 20.78c10.4,-1.03 19.76,-14.54 19.76,-31.2 0,-16.63 -9.36,-31.2 -23.91,-31.2 -2.09,0 -4.17,0 -6.24,1.06 -14.56,4.15 -27.04,6.24 -37.44,6.24 -5.2,0 -9.35,0 -13.53,-1.06 -28.08,-5.18 -37.44,-93.59 -37.44,-196.55 0,-40.56 2.09,-83.18 4.18,-123.74 25.99,-4.17 69.67,-12.48 69.67,-43.67 0,-16.66 -9.36,-35.38 -24.96,-35.38 -2.09,0 -5.21,1.06 -7.27,2.09 -11.45,6.24 -22.9,12.48 -34.32,16.63 6.24,-89.42 14.54,-173.66 21.84,-221.49 0,-3.11 3.12,-5.2 3.12,-8.32 0,-18.72 -26.02,-31.2 -49.92,-31.2 -19.78,0 -40.56,7.27 -42.65,23.93 -8.33,64.46 -16.63,146.6 -22.87,231.9 -20.81,-6.24 -41.61,-13.54 -59.28,-18.72l-3.12 0c-17.68,0 -26.01,16.63 -26.01,32.23 0,14.57 7.29,28.08 20.81,31.2 20.8,4.15 42.64,9.36 63.42,14.56 -1.03,30.15 -2.06,59.28 -2.06,88.39 0,149.76 20.78,280.79 95.66,294.3 12.48,2.09 27.05,4.18 42.65,4.18 15.6,0 32.23,-2.09 49.91,-4.18zm121.68 -205.91c17.66,3.12 36.38,5.21 54.07,5.21 90.47,0 168.47,-45.77 168.47,-164.32 0,-78 -65.52,-121.68 -134.15,-121.68 -117.53,0 -180.96,131.04 -180.96,275.61 0,139.33 72.79,189.25 151.85,189.25 65.51,0 135.18,-34.32 172.62,-80.06 4.15,-5.21 6.24,-13.53 6.24,-20.8 0,-17.69 -11.45,-32.24 -25.99,-32.24 -7.3,0 -12.48,5.19 -19.78,11.43 -28.07,27.04 -75.9,56.16 -116.46,56.16 -40.56,0 -74.88,-29.12 -75.91,-118.56zm5.18 -67.58c13.54,-81.12 55.13,-151.84 120.65,-151.84 25.99,0 46.79,17.69 46.79,64.48 0,74.88 -48.88,93.6 -102.95,93.6 -21.84,0 -43.68,-3.12 -64.49,-6.24zm385.83 -163.63c7.28,-141.26 19.75,-275.24 25.99,-275.24 13.52,0 19.76,14.57 19.76,39.53 0,87.18 -21.84,168.13 -45.75,235.71zm-4.17 103.84c33.28,-66.58 97.77,-230.53 97.77,-334.34 0,-62.4 -24.96,-106.08 -95.68,-106.08 -74.88,0 -95.69,165.16 -95.69,385.29l0 68.47c0,62.39 2.09,126.68 13.54,179.72 18.72,82 41.59,114.23 68.63,114.23 53.04,0 117.5,-97.75 149.76,-152.7 9.36,111.11 32.23,203.65 85.27,203.65l1.03 0c14.57,-1.03 31.2,-14.54 31.2,-33.26 0,-5.21 -1.04,-10.42 -4.16,-15.6 -17.68,-35.38 -23.92,-133.98 -23.92,-246.13l0 -14.56c42.64,-105.91 96.71,-254.26 96.71,-313.54 0,-57.02 -24.96,-96.54 -95.66,-96.54 -74.87,0 -95.68,150.61 -95.68,353.06 0,23.75 0,48.71 1.03,73.67 -22.87,40.36 -79.03,150.44 -114.38,150.44 -14.56,0 -20.8,-62.22 -20.8,-147.32 0,-21.84 0,-44.73 1.03,-68.46zm231.92 -105.91c6.24,-115.26 17.67,-199.32 24.96,-199.32 13.51,0 19.75,12.3 19.75,35.17 -3.12,11.45 -18.72,102.79 -44.71,164.15zm386.87 113.69c-3.12,36.41 -5.21,72.79 -5.21,111.29 -15.6,69.67 -61.34,129.98 -109.2,129.98 -59.27,0 -84.23,-56.16 -84.23,-128.95 0,-91.51 57.21,-191.34 127.91,-191.34 16.66,18.71 57.22,35.35 70.73,79.02zm105.04 -81.11c0,-1.03 1.03,-2.09 1.03,-3.12 0,-21.67 -23.93,-33.29 -47.83,-33.29 -20.81,0 -40.56,8.33 -44.73,26.19 -1.03,2.09 -1.03,5.21 -1.03,7.27 -31.2,-35.52 -74.88,-59.45 -123.77,-59.45 -100.86,0 -179.89,127.91 -179.89,255.83 0,101.92 46.8,193.43 135.18,193.43 60.31,0 116.47,-35.35 154.96,-87.36 2.07,20.81 6.24,40.56 10.4,62.4 3.12,16.63 20.8,24.96 40.55,24.96 24.96,0 50.95,-12.48 50.95,-32.23 0,-3.12 0,-5.21 -1.03,-8.33 -12.48,-34.32 -17.69,-74.87 -17.69,-117.69 0,-77.11 14.57,-161.7 22.9,-229.47l0 0.86zm724.84 396.22c20.78,0 38.47,-8.33 38.47,-25.99 0,-46.8 9.36,-178.89 9.36,-314.07 0,-184.08 -16.63,-376.45 -93.6,-376.45 -32.23,0 -67.58,39.5 -100.86,116.46 -14.57,38.47 -27.05,85.27 -38.47,135.19 -14.57,-137.27 -41.62,-254.77 -93.6,-254.77 -40.56,0 -78,61.34 -107.13,151.82 2.09,-34.32 6.24,-67.59 6.24,-96.72l0 -3.12c0,-20.78 -22.87,-32.23 -46.8,-32.23 -20.78,0 -40.56,9.36 -44.71,27.05 -19.75,84.23 -27.05,186.13 -27.05,289.09 0,121.67 10.42,247.5 21.84,351.51 2.09,16.63 21.84,23.9 41.62,23.9 24.96,0 50.95,-11.42 50.95,-31.2 0,-3.12 0,-5.18 -1.03,-8.3 -9.36,-56.16 -12.48,-124.79 -13.54,-195.52 16.66,-200.7 58.25,-389.98 100.89,-389.98 34.32,0 31.2,424.3 34.32,535.58 1.03,23.91 31.2,35.35 55.1,35.35 20.81,0 38.5,-8.33 38.5,-25.99l0 -80.08c4.15,-152.88 29.11,-325.5 61.34,-410.77 17.68,-33.28 33.28,-54.09 44.73,-54.09 13.51,0 17.66,91.53 17.66,202.79 0,166.38 -9.36,376.47 -9.36,395.19 1.06,23.9 31.2,35.35 55.13,35.35zm398.29 -315.11c-3.12,36.41 -5.21,72.79 -5.21,111.29 -15.6,69.67 -61.34,129.98 -109.2,129.98 -59.27,0 -84.23,-56.16 -84.23,-128.95 0,-91.51 57.21,-191.34 127.91,-191.34 16.66,18.71 57.21,35.35 70.73,79.02zm105.04 -81.11c0,-1.03 1.03,-2.09 1.03,-3.12 0,-21.67 -23.93,-33.29 -47.83,-33.29 -20.81,0 -40.56,8.33 -44.73,26.19 -1.03,2.09 -1.03,5.21 -1.03,7.27 -31.2,-35.52 -74.88,-59.45 -123.77,-59.45 -100.86,0 -179.89,127.91 -179.89,255.83 0,101.92 46.8,193.43 135.18,193.43 60.31,0 116.47,-35.35 154.96,-87.36 2.07,20.81 6.24,40.56 10.4,62.4 3.12,16.63 20.8,24.96 40.55,24.96 24.96,0 50.95,-12.48 50.95,-32.23 0,-3.12 0,-5.21 -1.03,-8.33 -12.48,-34.32 -17.69,-74.87 -17.69,-117.69 0,-77.11 14.57,-161.7 22.9,-229.47l0 0.86zm150.78 185.1c4.18,-64.46 14.57,-131.03 20.81,-186.13l0 -3.12c0,-20.81 -22.87,-32.26 -46.8,-32.26 -20.8,0 -40.55,8.33 -44.71,26.02 -14.56,68.63 -18.71,143.51 -18.71,222.54 0,47.83 4.15,96.71 14.54,148.72 3.12,16.63 20.81,24.96 40.56,24.96 24.96,0 50.97,-12.48 50.97,-32.26 0,-3.12 0,-5.18 -1.06,-8.3 0,-108.16 126.89,-319.28 173.68,-319.28 10.4,0 17.69,11.45 17.69,36.4 0,30.17 -19.77,63.43 -19.77,85.27 0,21.84 13.53,32.26 26.01,32.26 27.02,0 42.62,-70.73 42.62,-135.21 0,-71.76 -20.78,-101.9 -49.91,-101.9 -59.28,0 -153.91,116.46 -205.92,242.29l0 0zm331.74 -387.89c0,42.64 28.08,65.51 53.04,65.51 20.81,0 39.53,-16.63 39.53,-50.95 0,-42.64 -27.05,-65.51 -52.01,-65.51 -20.78,0 -40.56,16.63 -40.56,50.95zm90.48 223.59l0 -4.17c0,-20.78 -22.87,-32.23 -46.8,-32.23 -20.78,0 -40.56,8.33 -44.71,25.99 -5.21,67.6 -7.27,141.45 -7.27,215.27 0,52.01 1.03,104.01 2.06,155.99 3.12,16.66 21.84,24.96 41.62,24.96 24.96,0 50.95,-11.42 50.95,-31.2 0,-3.12 -1.04,-6.24 -2.09,-9.36 -3.12,-33.26 -4.15,-68.63 -4.15,-106.07 0,-82.15 6.24,-168.47 10.39,-239.18l0 0zm248.56 368.15c73.84,0 121.67,-59.28 121.67,-111.28 0,-166.39 -199.67,-161.21 -199.67,-252.71 0,-32.23 37.44,-47.83 71.76,-47.83 23.92,0 38.47,17.66 42.64,28.08 4.15,10.39 12.48,18.71 22.87,18.71 13.51,0 25.99,-14.56 25.99,-32.25 0,-4.15 -1.03,-9.36 -3.12,-13.51 -13.51,-37.44 -58.22,-63.43 -107.1,-63.43 -84.24,0 -142.49,71.76 -142.49,143.51 0,123.74 209.04,127.92 209.04,223.58 0,27.04 -44.71,43.67 -73.82,43.67 -56.16,0 -112.32,-46.79 -127.92,-62.39 -7.3,-6.24 -12.48,-10.39 -19.77,-10.39 -14.55,0 -24.96,13.51 -24.96,31.2 0,7.27 2.08,15.59 6.24,20.8 32.25,39.5 94.65,84.24 198.64,84.24z"/>
 </g>
</svg>
