<?xml version="1.0" encoding="UTF-8"?>
<svg version="1.1" xmlns="http://www.w3.org/2000/svg" width="512" height="512">
<path d="M0 0 C4.89872999 2.85759249 7.79346527 7.1303958 9.5625 12.4375 C9.5625 21.0175 9.5625 29.5975 9.5625 38.4375 C39.2625 38.4375 68.9625 38.4375 99.5625 38.4375 C99.5625 29.8575 99.5625 21.2775 99.5625 12.4375 C104.07147227 3.41955546 104.07147227 3.41955546 107.125 1.5 C107.70378906 1.11972656 108.28257812 0.73945312 108.87890625 0.34765625 C114.49811227 -2.69010477 121.89172797 -2.55816692 127.953125 -0.9140625 C132.95949234 1.32160536 135.97250522 4.64656545 138.5625 9.4375 C141.62118527 18.6135558 139.5625 28.76508791 139.5625 38.4375 C169.5925 38.4375 199.6225 38.4375 230.5625 38.4375 C230.5625 29.8575 230.5625 21.2775 230.5625 12.4375 C235.07147227 3.41955546 235.07147227 3.41955546 238.125 1.5 C238.70378906 1.11972656 239.28257812 0.73945312 239.87890625 0.34765625 C245.49811227 -2.69010477 252.89172797 -2.55816692 258.953125 -0.9140625 C263.95949234 1.32160536 266.97250522 4.64656545 269.5625 9.4375 C270.64167226 12.67501678 270.67675601 15.01501771 270.66015625 18.41796875 C270.65693359 19.58134766 270.65371094 20.74472656 270.65039062 21.94335938 C270.64201172 23.15830078 270.63363281 24.37324219 270.625 25.625 C270.62048828 26.85154297 270.61597656 28.07808594 270.61132812 29.34179688 C270.59953065 32.37374668 270.58306921 35.40559906 270.5625 38.4375 C271.62984375 38.41655273 272.6971875 38.39560547 273.796875 38.37402344 C277.83742322 38.30046085 281.87791528 38.25528764 285.91894531 38.21777344 C287.6527712 38.19791802 289.38653255 38.17082427 291.12011719 38.13574219 C305.88464636 37.84489978 319.75797625 39.08734246 333 46.25 C333.66410889 46.59764404 334.32821777 46.94528809 335.01245117 47.3034668 C340.33610202 50.16233179 345.09290575 53.35124686 349.5625 57.4375 C350.45453125 58.23800781 351.3465625 59.03851563 352.265625 59.86328125 C366.38056461 73.18762998 375.99482913 91.6566331 376.84210014 111.26482582 C376.99709635 117.14271116 376.98004253 123.0202103 376.96655273 128.8996582 C376.97226326 131.15458005 376.97923015 133.409499 376.98735046 135.66441345 C377.00521448 141.75493771 377.00412707 147.84531738 376.99840808 153.93585992 C376.99530864 159.02820622 377.00141657 164.12052506 377.00744683 169.21286744 C377.02226599 181.90897864 377.01869705 194.60498792 377.00658352 207.30109283 C376.99663738 218.31388742 377.00962228 229.32651434 377.03351771 240.33928309 C377.05791977 251.67151974 377.06711525 263.0036562 377.06086498 274.33592671 C377.05749541 280.68865245 377.05991168 287.04123939 377.07711601 293.39394569 C377.0925761 299.36211524 377.08863969 305.32996367 377.06981087 311.2981205 C377.06612349 313.48623595 377.06923775 315.67437516 377.07969666 317.86246872 C377.09289656 320.85243366 377.08136768 323.84133368 377.06370544 326.83125305 C377.07331045 327.69400087 377.08291546 328.55674869 377.09281152 329.44564039 C377.01361338 335.9747534 375.42937519 341.53363287 370.74609375 346.27734375 C370.16988281 346.63957031 369.59367187 347.00179688 369 347.375 C368.42121094 347.75527344 367.84242188 348.13554687 367.24609375 348.52734375 C361.62688773 351.56510477 354.23327203 351.43316692 348.171875 349.7890625 C343.16550766 347.55339464 340.15249478 344.22843455 337.5625 339.4375 C336.27322981 335.56968942 336.41586747 331.91243489 336.41773987 327.88136292 C336.41421302 326.99705202 336.41068618 326.11274112 336.40705246 325.20163292 C336.39634337 322.22629497 336.39268056 319.25098901 336.38891602 316.27563477 C336.38261217 314.14690515 336.37584656 312.01817686 336.36865234 309.88945007 C336.35396671 305.29776344 336.34224805 300.70608195 336.33270454 296.11438179 C336.3172618 288.84795364 336.29331047 281.58156918 336.26780701 274.31517029 C336.19658586 253.64935062 336.13691253 232.98350552 336.08569336 212.31762695 C336.05734382 200.90963359 336.02193367 189.5016833 335.97903961 178.09373516 C335.95233141 170.87738496 335.93438619 163.6610835 335.92300236 156.44469368 C335.91384183 151.94157353 335.89646306 147.43851221 335.87682343 142.93542671 C335.86938303 140.85543752 335.86526899 138.7754332 335.86482811 136.69543076 C335.91403244 111.55398509 335.91403244 111.55398509 323.58203125 90.2578125 C311.89757015 79.72597716 297.97902254 79.37494938 283.0625 78.875 C281.25652344 78.81022461 281.25652344 78.81022461 279.4140625 78.74414062 C276.46363807 78.63876832 273.51313929 78.53664097 270.5625 78.4375 C270.58344727 79.18322266 270.60439453 79.92894531 270.62597656 80.69726562 C270.70966634 84.11053725 270.76132794 87.52359224 270.8125 90.9375 C270.84601563 92.11054687 270.87953125 93.28359375 270.9140625 94.4921875 C270.99115968 101.35383696 270.73856346 106.79252513 266.5625 112.4375 C264.74609375 114.27734375 264.74609375 114.27734375 263 115.375 C262.42121094 115.75527344 261.84242188 116.13554688 261.24609375 116.52734375 C255.62688773 119.56510477 248.23327203 119.43316692 242.171875 117.7890625 C237.16550766 115.55339464 234.15249478 112.22843455 231.5625 107.4375 C228.50381473 98.2614442 230.5625 88.10991209 230.5625 78.4375 C200.5325 78.4375 170.5025 78.4375 139.5625 78.4375 C139.5625 87.0175 139.5625 95.5975 139.5625 104.4375 C135.05352773 113.45544454 135.05352773 113.45544454 132 115.375 C131.42121094 115.75527344 130.84242188 116.13554688 130.24609375 116.52734375 C124.62688773 119.56510477 117.23327203 119.43316692 111.171875 117.7890625 C106.16550766 115.55339464 103.15249478 112.22843455 100.5625 107.4375 C97.50381473 98.2614442 99.5625 88.10991209 99.5625 78.4375 C69.8625 78.4375 40.1625 78.4375 9.5625 78.4375 C9.5625 87.0175 9.5625 95.5975 9.5625 104.4375 C5.05352773 113.45544454 5.05352773 113.45544454 2 115.375 C1.42121094 115.75527344 0.84242188 116.13554688 0.24609375 116.52734375 C-5.37311227 119.56510477 -12.76672797 119.43316692 -18.828125 117.7890625 C-23.83449234 115.55339464 -26.84750522 112.22843455 -29.4375 107.4375 C-30.51667226 104.19998322 -30.55175601 101.85998229 -30.53515625 98.45703125 C-30.53032227 96.71196289 -30.53032227 96.71196289 -30.52539062 94.93164062 C-30.51282227 93.10922852 -30.51282227 93.10922852 -30.5 91.25 C-30.49548828 90.02345703 -30.49097656 88.79691406 -30.48632812 87.53320312 C-30.47453065 84.50125332 -30.45806921 81.46940094 -30.4375 78.4375 C-34.35465725 78.54928894 -38.27101228 78.679437 -42.1875 78.8125 C-43.27933594 78.8434375 -44.37117188 78.874375 -45.49609375 78.90625 C-60.01646176 79.42176602 -72.62298409 81.20270688 -83.6171875 91.41796875 C-94.62410199 103.62950263 -94.55354369 118.41904318 -95 133.9375 C-95.04327737 135.34636473 -95.08689431 136.75521907 -95.13085938 138.1640625 C-95.23640571 141.5884546 -95.33851798 145.01291292 -95.4375 148.4375 C-94.64070123 148.43598112 -93.84390246 148.43446224 -93.02295828 148.43289733 C-45.8090332 148.34340512 1.40488265 148.27476393 48.61887553 148.23323868 C54.28660727 148.22823579 59.95433883 148.22305851 65.62207031 148.21777344 C66.75042421 148.2167242 67.87877811 148.21567495 69.04132456 148.21459392 C87.31681703 148.19718379 105.59225922 148.16564273 123.86772186 148.12888882 C142.6169231 148.09149636 161.36609799 148.06926773 180.11533499 148.06114602 C191.68670024 148.05565474 203.25792339 148.03830451 214.82924491 148.00583413 C222.76173579 147.98470719 230.69415309 147.97829584 238.62667006 147.98349449 C243.20486106 147.98605909 247.78280354 147.98209912 252.36095047 147.9606781 C256.5533259 147.94120529 260.74528582 147.94023465 264.93768042 147.95390442 C266.45329889 147.95559377 267.96894334 147.95052561 269.48451072 147.93796727 C277.4065588 147.87614704 283.76683534 147.95407468 290.5625 152.4375 C292.40234375 154.25390625 292.40234375 154.25390625 293.5 156 C293.88027344 156.57878906 294.26054687 157.15757812 294.65234375 157.75390625 C297.69010477 163.37311227 297.55816692 170.76672797 295.9140625 176.828125 C293.67839464 181.83449234 290.35343455 184.84750522 285.5625 187.4375 C282.24210675 188.54429775 279.78833142 188.56170584 276.28999043 188.56054783 C275.64832364 188.56170167 275.00665685 188.56285552 274.34554562 188.56404433 C272.18080293 188.56670549 270.0161336 188.56219293 267.85139465 188.55775452 C266.28963077 188.55819032 264.72786696 188.5590654 263.16610354 188.56034368 C258.8630774 188.56258684 254.560076 188.55856978 250.25705302 188.55356562 C245.62107061 188.54925876 240.98508968 188.55070771 236.34910583 188.5514679 C228.31315084 188.55199298 220.27720395 188.54884779 212.24125099 188.54323006 C200.62252255 188.53511297 189.00379804 188.53249962 177.38506707 188.53124207 C158.53576189 188.52905188 139.68646103 188.52239268 120.8371582 188.51293945 C102.52368186 188.50376449 84.21020669 188.49668406 65.89672852 188.49243164 C64.76843236 188.49216892 63.6401362 188.49190619 62.47764925 188.49163551 C56.81748223 188.4903305 51.15731519 188.48906678 45.49714816 188.48782361 C-1.48107089 188.47745202 -48.45928522 188.4598346 -95.4375 188.4375 C-95.35549182 219.06264961 -95.26343517 249.68775025 -95.15744839 280.31282546 C-95.14493027 283.93250838 -95.13249738 287.5521916 -95.12011719 291.171875 C-95.11765119 291.89245605 -95.1151852 292.6130371 -95.11264448 293.35545394 C-95.07297499 305.00648183 -95.04020201 316.65751935 -95.01000018 328.30857518 C-94.97883108 340.27323325 -94.94019854 352.23785064 -94.89470994 364.20246291 C-94.86938731 370.91874893 -94.84769981 377.63500462 -94.83415604 384.35132599 C-94.82128916 390.67795439 -94.79918489 397.00448445 -94.77011681 403.3310585 C-94.76107716 405.64808969 -94.75535928 407.9651367 -94.75328636 410.2821846 C-95.02323669 436.42124687 -95.02323669 436.42124687 -82.45703125 458.6171875 C-70.50405339 469.39105149 -56.4233713 469.58985292 -41.19293213 469.57121277 C-39.74264967 469.57308278 -38.29236772 469.57538424 -36.84208655 469.57807809 C-32.86996894 469.58417898 -28.89787243 469.58406452 -24.92575121 469.58288372 C-20.63659372 469.58267928 -16.34744293 469.5882026 -12.05828857 469.59294128 C-3.65988059 469.60123903 4.73852037 469.60399573 13.1369321 469.60455366 C19.96539644 469.60502924 26.79385847 469.60708608 33.62232208 469.61025429 C52.99308011 469.61905849 72.3638326 469.62367403 91.73459265 469.62292381 C92.77833918 469.62288386 93.82208572 469.6228439 94.89746094 469.62280273 C95.9424856 469.62276185 96.98751026 469.62272097 98.06420234 469.62267885 C114.99789583 469.62227246 131.93156708 469.63184102 148.86525413 469.6459411 C166.26323785 469.66031319 183.66121072 469.66721083 201.05920053 469.66634732 C210.82257543 469.66601564 220.58592702 469.66875016 230.34929657 469.67952538 C238.66232658 469.68864133 246.97532271 469.69079663 255.28835556 469.68401595 C259.52677921 469.68075628 263.76513787 469.68067408 268.0035553 469.6893692 C271.88979182 469.69725958 275.77591211 469.69577701 279.66214588 469.68708507 C281.06184234 469.68555565 282.46154759 469.68734501 283.86123368 469.69294515 C299.34510469 469.75075216 312.9728546 468.39250453 324.7421875 457.45703125 C332.51954903 448.82849926 334.72437446 438.93329968 336.15429688 427.75390625 C337.11805787 421.52045796 339.56276457 417.01146653 344.37890625 412.87890625 C350.88185404 409.60561038 357.90918721 409.14193186 364.93359375 411.09765625 C369.96194087 413.29339951 372.97381881 416.64899531 375.5625 421.4375 C380.40732507 435.9719752 375.24059178 453.6853392 368.75 466.875 C365.61582143 472.92304728 362.17530165 478.39196047 357.5625 483.4375 C356.76199219 484.32953125 355.96148437 485.2215625 355.13671875 486.140625 C341.99974365 500.0570733 324.16258091 509.25247282 304.92364919 510.71391761 C300.890126 510.82454495 296.8669318 510.84308332 292.83244324 510.82518005 C291.28169776 510.82936173 289.73095535 510.83484379 288.18021852 510.84149987 C283.95342614 510.85586402 279.72683025 510.85173825 275.50002754 510.84433305 C270.92797354 510.83958113 266.35596083 510.85212909 261.78392029 510.86235046 C252.84006689 510.87950461 243.89628386 510.88038547 234.95241829 510.87513756 C227.67883084 510.8710881 220.4052641 510.87254862 213.13167763 510.87788582 C211.57594529 510.87900845 211.57594529 510.87900845 209.98878402 510.88015376 C207.88146366 510.88168532 205.7741433 510.88322367 203.66682295 510.88476873 C183.92575816 510.89848168 164.18473305 510.89306469 144.44366918 510.88158352 C126.40718987 510.8716537 108.37081319 510.88458963 90.33434971 510.90851771 C71.78808671 510.93293561 53.24187145 510.94250989 34.6955927 510.93586498 C24.29386461 510.93237858 13.89221539 510.93456648 3.4904995 510.95211601 C-5.36470967 510.96687172 -14.2197844 510.96742957 -23.07499103 510.9500451 C-27.58741647 510.94156019 -32.09960212 510.93932376 -36.61201477 510.95469666 C-40.75311914 510.96862917 -44.89378022 510.96367198 -49.0348595 510.94445742 C-50.52263145 510.94072313 -52.01043965 510.94354404 -53.49817906 510.95406907 C-66.80784187 511.04143677 -80.02591206 509.03421362 -91.875 502.625 C-92.53910889 502.27735596 -93.20321777 501.92971191 -93.88745117 501.5715332 C-99.21110202 498.71266821 -103.96790575 495.52375314 -108.4375 491.4375 C-109.32953125 490.63699219 -110.2215625 489.83648437 -111.140625 489.01171875 C-125.85985581 475.11692573 -135.19935364 456.02808615 -135.81781673 435.6351347 C-135.83538505 433.16548371 -135.83697346 430.69568324 -135.82518005 428.22599792 C-135.82936354 426.840244 -135.83484657 425.45449351 -135.84149987 424.06874925 C-135.85584049 420.29801215 -135.85174582 416.52749572 -135.84433305 412.75674713 C-135.83957517 408.67549316 -135.8521343 404.59428517 -135.86235046 400.51304626 C-135.87949315 392.53172923 -135.88038786 384.55049108 -135.87513756 376.56916042 C-135.87108591 370.07741815 -135.87255121 363.58569908 -135.87788582 357.0939579 C-135.87863424 356.16781746 -135.87938266 355.24167702 -135.88015376 354.28747172 C-135.88168534 352.40563135 -135.88322369 350.523791 -135.88476873 348.64195064 C-135.89847756 331.01828916 -135.89306763 313.39467214 -135.88158352 295.77101169 C-135.87165442 279.67448556 -135.88458911 263.57807443 -135.90851771 247.48156603 C-135.93294465 230.92412358 -135.94250766 214.3667346 -135.93586498 197.80927449 C-135.93238054 188.52536983 -135.93455338 179.24155355 -135.95211601 169.95766258 C-135.9668831 162.05399079 -135.9674149 154.15046961 -135.9500451 146.24680062 C-135.94156937 142.220429 -135.93930078 138.19432592 -135.95469666 134.16796875 C-136.08445776 97.63949414 -136.08445776 97.63949414 -127.625 82 C-127.27735596 81.33589111 -126.92971191 80.67178223 -126.5715332 79.98754883 C-123.71266821 74.66389798 -120.52375314 69.90709425 -116.4375 65.4375 C-115.23673828 64.09945312 -115.23673828 64.09945312 -114.01171875 62.734375 C-100.85370389 48.79563856 -82.35858068 38.91217115 -62.91943359 38.19848633 C-57.98668017 38.10845103 -53.05749393 38.17413016 -48.125 38.25 C-46.40170451 38.26508674 -44.67839613 38.27876803 -42.95507812 38.29101562 C-38.78222655 38.32367627 -34.61001048 38.37523326 -30.4375 38.4375 C-30.4689209 37.31891602 -30.4689209 37.31891602 -30.50097656 36.17773438 C-30.58466634 32.76446275 -30.63632794 29.35140776 -30.6875 25.9375 C-30.72101563 24.76445312 -30.75453125 23.59140625 -30.7890625 22.3828125 C-30.86615968 15.52116304 -30.61356346 10.08247487 -26.4375 4.4375 C-24.62109375 2.59765625 -24.62109375 2.59765625 -22.875 1.5 C-22.29621094 1.11972656 -21.71742187 0.73945312 -21.12109375 0.34765625 C-14.98998289 -2.96684219 -6.30251123 -2.81448021 0 0 Z " fill="#DE030A" transform="translate(135.4375,1.5625)"/>
</svg>
