<?xml version="1.0" encoding="UTF-8"?>
<svg version="1.1" xmlns="http://www.w3.org/2000/svg" width="560" height="446">
<path d="M0 0 C4.14442942 0.2735597 6.17972451 1.67791094 9.125 4.5 C12.41773177 7.55908909 15.7554216 10.48525363 19.25 13.3125 C22.32185686 15.8010929 25.37386979 18.30633001 28.37890625 20.875 C29.23597168 21.60722778 29.23597168 21.60722778 30.11035156 22.35424805 C31.21230041 23.29830147 32.31206075 24.24491795 33.40917969 25.19458008 C35.97184452 27.38820501 38.54232981 29.39491109 41.38671875 31.19921875 C42.24910156 31.79347656 43.11148438 32.38773438 44 33 C44 33.66 44 34.32 44 35 C44.55816406 35.24878906 45.11632812 35.49757812 45.69140625 35.75390625 C48.4004423 37.21614398 50.5696432 38.96844013 52.9375 40.9375 C54.38769531 42.14019531 54.38769531 42.14019531 55.8671875 43.3671875 C59.66448883 46.55039588 63.43929189 49.76015451 67.21679688 52.96679688 C75.98729416 60.44079391 75.98729416 60.44079391 85.3125 67.1875 C88.27029157 69.18228967 90.4778635 71.4778635 93 74 C95.21845658 75.78650757 97.47634421 77.51505764 99.73828125 79.24609375 C103.59339934 82.23564129 107.24898234 85.443941 110.89453125 88.68359375 C114.24826687 91.6536673 117.63048233 94.52533747 121.1875 97.25 C125.06104211 100.22038462 128.78855677 103.33200853 132.5 106.5 C136.92125984 110.27312373 141.40612566 113.91924664 146.01953125 117.45703125 C149.77385123 120.38199455 153.3380663 123.52310634 156.89453125 126.68359375 C161.11455456 130.42085305 165.44225 133.94596154 169.91015625 137.3828125 C174.01443324 140.55883245 177.92956555 143.93539271 181.8125 147.375 C185.30661743 150.44902316 188.92079871 153.31803456 192.62890625 156.12890625 C193.80259766 157.05509766 193.80259766 157.05509766 195 158 C195.57176877 158.2995566 196.14353754 158.5991132 196.73263264 158.90774727 C199.11083534 160.39551519 200.43131018 161.65208591 202 164 C203.0790734 169.55497284 202.92651904 175.07000751 202.8581543 180.71044922 C202.86273044 182.43233254 202.87033033 184.15421007 202.88072205 185.87606812 C202.89980405 190.54594914 202.87511732 195.21466981 202.84148383 199.88443136 C202.81256361 204.77606585 202.8202326 209.66765651 202.82295227 214.55935669 C202.82196246 222.77593159 202.79353566 230.99205512 202.74780273 239.20849609 C202.69521979 248.69823648 202.68112542 258.18741385 202.6888358 267.67728412 C202.69576071 276.81512718 202.6798654 285.95278032 202.65207863 295.09057999 C202.64039518 298.97476692 202.63583049 302.85886504 202.63687706 306.7430687 C202.63675085 311.32168054 202.61633433 315.89977769 202.58048439 320.47824478 C202.57043366 322.1551471 202.56707523 323.83210543 202.57102966 325.5090332 C202.5924526 337.13464843 201.46174598 345.33186997 193 354 C189.23104575 355.89668119 186.16144285 356.24786908 181.96989441 356.24050903 C180.75979706 356.24325836 179.54969971 356.24600769 178.30293274 356.24884033 C176.98375351 356.24164978 175.66457428 356.23445923 174.30541992 356.22705078 C172.89583342 356.22648636 171.48624632 356.22680384 170.07666016 356.22793579 C166.25677844 356.22850909 162.43702259 356.21675852 158.6171701 356.20278788 C154.62266031 356.19027669 150.62814757 356.18910971 146.63362122 356.18673706 C139.07245091 356.18052344 131.51133852 356.1641142 123.9501937 356.14403808 C113.73068024 356.11749314 103.51115092 356.10670549 93.29161167 356.09503365 C77.19436442 356.07623353 61.09723935 356.03638708 45 356 C45 312.44 45 268.88 45 224 C16.62 224 -11.76 224 -41 224 C-41 267.56 -41 311.12 -41 356 C-76.95030652 356.08060607 -76.95030652 356.08060607 -91.9921875 356.09765625 C-102.38641326 356.10953271 -112.78060664 356.12350955 -123.17480469 356.15087891 C-130.74417019 356.1708006 -138.31350948 356.18371354 -145.88290048 356.18817699 C-149.89158895 356.19078644 -153.90020242 356.19692804 -157.90886688 356.21146011 C-161.68119303 356.22502476 -165.45341319 356.22922491 -169.22576141 356.22621536 C-170.61088639 356.22676603 -171.99601487 356.23075017 -173.38111877 356.23841095 C-175.27144818 356.24835408 -177.16183432 356.24477905 -179.05218506 356.24050903 C-180.1104034 356.24235262 -181.16862175 356.24419621 -182.25890732 356.24609566 C-187.06922874 355.81422438 -189.47102966 353.81867717 -192.5625 350.25 C-193.14128906 349.59515625 -193.72007812 348.9403125 -194.31640625 348.265625 C-198.13015748 343.13343077 -199.3771558 339.03351665 -199.42805481 332.65066528 C-199.43767374 331.93247805 -199.44729267 331.21429081 -199.45720309 330.47434032 C-199.48545129 328.0793164 -199.49245394 325.68472443 -199.49926758 323.28955078 C-199.51480016 321.5676672 -199.53149763 319.8457938 -199.54927063 318.12393188 C-199.59281274 313.4544934 -199.61634175 308.78517181 -199.63349748 304.11556864 C-199.64452702 301.19643238 -199.65881332 298.27732881 -199.67401695 295.35821152 C-199.72038087 286.219376 -199.75396262 277.08061872 -199.7700327 267.94167912 C-199.78877681 257.40141293 -199.85023754 246.86253387 -199.94853479 236.32271588 C-200.02195528 228.16795021 -200.0569113 220.01357769 -200.06289595 211.85848606 C-200.06733947 206.99072597 -200.08805226 202.12433985 -200.14899635 197.2569313 C-200.20529786 192.67783451 -200.21376414 188.1010897 -200.18595695 183.52175522 C-200.18392313 181.84475543 -200.19889433 180.16763248 -200.2324295 178.4909668 C-200.47103606 165.82943951 -200.47103606 165.82943951 -196.79982567 161.26377487 C-194.28872902 159.23334899 -191.80021776 157.59742696 -189 156 C-187.18409225 154.52501887 -185.37082238 153.04677101 -183.5625 151.5625 C-182.65242188 150.81613281 -181.74234375 150.06976563 -180.8046875 149.30078125 C-179.87914062 148.54152344 -178.95359375 147.78226563 -178 147 C-176.06262249 145.41651678 -174.12512449 143.83318099 -172.1875 142.25 C-167.12630418 138.10641475 -162.08328225 133.96400701 -157.1875 129.625 C-153.62000195 126.4864187 -149.91599691 123.57286452 -146.1484375 120.6796875 C-143.64537556 118.72274816 -141.25238017 116.6623958 -138.85546875 114.578125 C-136.73289393 112.77281925 -134.55907986 111.04288211 -132.375 109.3125 C-128.43282208 106.18019549 -124.5772021 102.95841603 -120.75 99.6875 C-115.59586084 95.28586822 -110.31418553 91.07988795 -104.96118164 86.92358398 C-100.84330192 83.70896618 -96.92647759 80.32943837 -93.05859375 76.81640625 C-90.31221552 74.39313134 -87.41594544 72.19682064 -84.5078125 69.97265625 C-81.48416231 67.59423983 -78.55345358 65.11902207 -75.625 62.625 C-68.93666731 56.92972455 -62.14476558 51.36913694 -55.328125 45.828125 C-50.2981163 41.72852253 -45.315449 37.58159111 -40.375 33.375 C-35.97106613 29.62697117 -31.50310825 25.99761214 -26.9140625 22.4765625 C-22.86487085 19.35290037 -19.01369178 16.01434311 -15.1875 12.625 C-11.53898542 9.4123388 -7.75000334 6.42465411 -3.8828125 3.48046875 C-1.91170452 1.99089213 -1.91170452 1.99089213 0 0 Z " fill="#DE030A" transform="translate(278,90)"/>
<path d="M0 0 C6.10449266 3.38497722 11.25511832 7.56761832 16.1875 12.5 C20.97026008 16.83437632 25.91530185 20.8830831 31.03125 24.81640625 C34.81647169 27.77189637 38.41533053 30.93274948 42.01171875 34.11328125 C45.7185964 37.38405565 49.47510827 40.57032255 53.3125 43.6875 C57.66411777 47.22544963 61.93992291 50.83881408 66.1875 54.5 C73.72641499 60.99473253 81.41553933 67.28566137 89.1875 73.5 C89.19336624 72.68869125 89.19923248 71.87738251 89.20527649 71.04148865 C89.2633043 63.37635312 89.33543825 55.71153891 89.42321491 48.04669094 C89.46784426 44.10658776 89.50711638 40.16658621 89.53393555 36.22631836 C89.56004327 32.42005106 89.60049744 28.6141764 89.65068626 24.80815315 C89.66730474 23.35983241 89.67885018 21.91144384 89.68511391 20.46304131 C89.75527633 5.72358163 89.75527633 5.72358163 93.1875 0.5 C97.69456223 -3.13134621 100.72796289 -4.00312599 106.47460938 -4.01757812 C107.17785843 -4.0245874 107.88110748 -4.03159668 108.60566711 -4.03881836 C110.91460453 -4.05632617 113.2223016 -4.04480262 115.53125 -4.03125 C117.14498122 -4.03394702 118.75871085 -4.03783119 120.37243652 -4.04284668 C123.74828623 -4.04873191 127.1237115 -4.04021066 130.49951172 -4.02148438 C134.817195 -3.99869493 139.13388363 -4.01182332 143.45153046 -4.03577423 C146.78195633 -4.05025889 150.11214809 -4.04561411 153.44258118 -4.03526306 C155.03412495 -4.03260312 156.62569028 -4.03583968 158.21720886 -4.04518127 C160.44550517 -4.05539156 162.6722121 -4.03978636 164.90039062 -4.01757812 C166.16580688 -4.01439575 167.43122314 -4.01121338 168.73498535 -4.00793457 C172.85977567 -3.40109468 174.99651071 -2.15081634 178.1875 0.5 C180.36505309 3.83135698 180.43476061 6.59432448 180.42800903 10.52374268 C180.43213303 12.3746904 180.43213303 12.3746904 180.43634033 14.26303101 C180.42926255 15.62750342 180.42199293 16.99197484 180.41455078 18.35644531 C180.41398654 19.79544059 180.41430347 21.23443645 180.41543579 22.6734314 C180.41600981 26.57807912 180.40424748 30.48260406 180.39028788 34.38722324 C180.37778881 38.46849 180.37661067 42.54975954 180.37423706 46.63104248 C180.36801987 54.35870049 180.35160582 62.08630194 180.33153808 69.81393504 C180.30918652 78.61191775 180.29818752 87.40990316 180.28814721 96.2079072 C180.2672398 114.30530354 180.23205917 132.40264722 180.1875 150.5 C181.08275391 150.91572266 181.08275391 150.91572266 181.99609375 151.33984375 C184.68964434 152.76584112 186.80978755 154.67556167 189.08984375 156.6796875 C191.45742355 158.73423533 193.87926448 160.71116024 196.3125 162.6875 C201.03654661 166.53792156 205.6960893 170.45696926 210.33911133 174.40405273 C213.86107525 177.39271913 217.41620172 180.33537567 221 183.25 C224.15895668 185.81922381 227.26725311 188.42211815 230.3125 191.125 C233.76796007 194.18474276 237.37329037 197.0040366 241.03125 199.81640625 C243.56204653 201.79244484 246.00442413 203.84849211 248.421875 205.9609375 C249.71134703 207.0849463 251.01558177 208.19208294 252.328125 209.2890625 C253.04484375 209.89492187 253.7615625 210.50078125 254.5 211.125 C255.48419922 211.94871094 255.48419922 211.94871094 256.48828125 212.7890625 C259.33645169 215.6568755 260.52762213 218.55171949 260.8125 222.5625 C260.60171893 231.73147661 251.76422761 239.14463001 245.921875 245.5078125 C244.00966925 247.60012114 244.00966925 247.60012114 242.1875 250.6875 C238.94871429 255.2420424 235.28316697 258.65020907 229.796875 260.15625 C224.56189111 260.61719198 221.47848304 259.41309039 217.375 256.1875 C215.63073154 254.64187678 213.90266751 253.07785425 212.1875 251.5 C210.11067541 249.72063028 208.02827015 247.95022634 205.9375 246.1875 C205.39536865 245.72520996 204.8532373 245.26291992 204.29467773 244.78662109 C200.25663088 241.35377939 196.12328094 238.06282875 191.9375 234.8125 C187.26150728 231.17929504 182.76529795 227.43170698 178.37890625 223.44921875 C175.05659641 220.4940804 171.59277229 217.71922234 168.140625 214.91796875 C164.9592439 212.31310777 161.81989171 209.66331859 158.6875 207 C152.91223261 202.09433793 147.06706501 197.28034199 141.1875 192.5 C134.47592195 187.0343382 127.77311182 181.57293472 121.30078125 175.82421875 C117.94499573 172.85082137 114.55997148 169.97692514 111 167.25 C106.56642169 163.84837526 102.31976 160.25379425 98.0690918 156.62915039 C93.90868206 153.08911521 89.66984187 149.66139065 85.390625 146.265625 C81.59751804 143.22575914 77.93035812 140.04840701 74.296875 136.8203125 C70.80517326 133.72726962 67.27411843 130.76480665 63.5625 127.9375 C60.82748596 125.84629511 58.32535882 123.72969954 55.9375 121.25 C53.41232514 118.49577029 53.41232514 118.49577029 50.75 117.0625 C48.29883768 115.56788883 46.73058255 114.11257668 44.75 112.0625 C41.79581757 109.01302136 38.73879308 106.84385343 35.1875 104.5 C32.97316763 102.60324378 30.81801663 100.64780505 28.65625 98.69140625 C26.15623489 96.47224727 23.59711896 94.35443022 21 92.25 C16.64338999 88.71711878 12.37066606 85.10178789 8.125 81.4375 C3.31193837 77.28565562 -1.56864624 73.2507088 -6.5625 69.31640625 C-9.47822829 66.9625631 -12.25916387 64.4743288 -15.0234375 61.9453125 C-16.86246531 60.45963501 -18.66522612 59.4743137 -20.8125 58.5 C-21.32039063 59.03109375 -21.82828125 59.5621875 -22.3515625 60.109375 C-26.28690018 64.14788633 -30.06232543 67.43217892 -34.8125 70.5 C-37.54285262 72.76196577 -40.17484124 75.13108383 -42.8125 77.5 C-47.36180138 81.57135921 -51.96345375 85.41715013 -56.87890625 89.0390625 C-60.65541629 91.89242564 -64.17508606 95.04452094 -67.7109375 98.1875 C-71.8888158 101.88649106 -76.17630759 105.35957921 -80.6015625 108.7578125 C-83.38511981 110.95121632 -86.02245488 113.28457609 -88.671875 115.63671875 C-91.05194513 117.70842213 -93.48723019 119.69934248 -95.9375 121.6875 C-100.28912416 125.22545482 -104.56478296 128.83897145 -108.8125 132.5 C-115.32653441 138.10803933 -121.94930759 143.56691923 -128.6328125 148.97216797 C-137.24806504 155.9420274 -145.80348155 162.96700638 -154.23583984 170.15722656 C-157.46303331 172.90568802 -160.70251488 175.63967364 -163.94042969 178.37548828 C-166.64245208 180.65963033 -169.33973725 182.94890548 -172.02734375 185.25 C-177.61353838 190.02231758 -183.2614109 194.67788569 -189.0625 199.1875 C-194.51010657 203.42295644 -199.71359729 207.84749928 -204.8125 212.5 C-209.61957829 216.81140679 -214.53764276 220.88476769 -219.66015625 224.81640625 C-222.17711291 226.78520538 -224.58028793 228.86166127 -226.98828125 230.9609375 C-229.81070883 233.34217191 -232.75497831 235.56127133 -235.69921875 237.7890625 C-237.89562954 239.56730266 -239.81697593 241.50068215 -241.8125 243.5 C-244.48415633 245.77616704 -247.20605124 247.97755962 -249.9453125 250.171875 C-251.72628512 251.61800535 -253.47808891 253.10188568 -255.1796875 254.640625 C-258.98726108 257.97394564 -261.78799334 259.9626218 -266.9375 260.25 C-273.22336208 259.72617816 -276.59377458 257.06153278 -280.6328125 252.3984375 C-281.96062819 250.74807549 -283.26685964 249.08018917 -284.5546875 247.3984375 C-287.61337821 243.47188299 -290.86324226 239.71938109 -294.13183594 235.96679688 C-298.68866995 230.66084944 -300.48315589 227.08895963 -300.30859375 220.0859375 C-298.86888709 212.58132483 -290.90627629 207.77244296 -285.2265625 203.37109375 C-281.32184111 200.34461876 -277.6141504 197.10063982 -273.921875 193.8203125 C-270.46680318 190.75971738 -266.97390168 187.81210748 -263.3125 185 C-258.98231076 181.67251324 -254.88561026 178.13496692 -250.8125 174.5 C-246.8399153 170.95474512 -242.85239905 167.48997737 -238.625 164.25 C-234.19142169 160.84837526 -229.94476 157.25379425 -225.6940918 153.62915039 C-221.53368206 150.08911521 -217.29484187 146.66139065 -213.015625 143.265625 C-209.22251804 140.22575914 -205.55535812 137.04840701 -201.921875 133.8203125 C-198.56711507 130.84857634 -195.18349451 127.97579378 -191.625 125.25 C-186.0934349 120.99932905 -180.80761779 116.46541047 -175.50195312 111.93945312 C-172.23821677 109.15867428 -168.96147052 106.39324517 -165.6862793 103.62597656 C-162.98370049 101.34133067 -160.28583265 99.05158247 -157.59765625 96.75 C-151.43468331 91.48493746 -145.17213536 86.39330545 -138.77075195 81.4206543 C-134.67753271 78.22478361 -130.77861006 74.87116877 -126.93359375 71.37890625 C-124.72166548 69.41953701 -122.44435852 67.58067682 -120.125 65.75 C-115.9521784 62.45191585 -111.90130287 59.03602357 -107.875 55.5625 C-102.82152655 51.20453353 -97.71343645 46.92848589 -92.53515625 42.71875 C-86.1499826 37.51533732 -79.78789343 32.27839953 -73.625 26.8125 C-70.19216753 23.77850284 -66.60901762 20.98128158 -62.9765625 18.19140625 C-59.23942727 15.27050453 -55.6848723 12.13940432 -52.1171875 9.015625 C-48.02879213 5.5 -48.02879213 5.5 -45.8125 5.5 C-45.8125 4.84 -45.8125 4.18 -45.8125 3.5 C-44.25130578 2.70576139 -42.68848036 1.91472877 -41.125 1.125 C-39.81982422 0.46371094 -39.81982422 0.46371094 -38.48828125 -0.2109375 C-37.16376953 -0.84902344 -37.16376953 -0.84902344 -35.8125 -1.5 C-34.7296875 -2.056875 -34.7296875 -2.056875 -33.625 -2.625 C-23.09767952 -5.90016637 -9.76120043 -5.05437781 0 0 Z " fill="#DE030A" transform="translate(299.8125,3.5)"/>
</svg>
