<?xml version="1.0" encoding="UTF-8"?>
<!DOCTYPE svg PUBLIC "-//W3C//DTD SVG 1.1//EN" "http://www.w3.org/Graphics/SVG/1.1/DTD/svg11.dtd">
<!-- Creator: CorelDRAW 2020 (64 Bit) -->
<svg xmlns="http://www.w3.org/2000/svg" xml:space="preserve" width="100px" height="100px" version="1.1" style="shape-rendering:geometricPrecision; text-rendering:geometricPrecision; image-rendering:optimizeQuality; fill-rule:evenodd; clip-rule:evenodd"
viewBox="0 0 100 100"
 xmlns:xlink="http://www.w3.org/1999/xlink"
 xmlns:xodm="http://www.corel.com/coreldraw/odm/2003">
 <defs>
  <style type="text/css">
   <![CDATA[
    .fil0 {fill:#828282}
   ]]>
  </style>
 </defs>
 <g id="Camada_x0020_1">
  <metadata id="CorelCorpID_0Corel-Layer"/>
  <g id="_2202162780000">
   <path class="fil0" d="M9.523 10.523c0,1.336 0.883,2.183 -0.701,4.744 -1.419,2.294 -4.867,4.209 -4.867,6.889 0,2.379 1.98,4.438 1.98,6.806 0,1.892 -1.305,2.446 -2.193,3.5 -1.693,2.007 -2.377,5.017 -0.437,7.174 1.475,1.64 2.33,2.666 1.023,5.169 -0.72,1.379 -2.477,3.367 -2.477,4.947 0,0.515 0.447,1.691 0.601,2.122 0.618,1.717 2.042,3.926 3.266,5.15 2.842,2.841 4.539,2.415 8.188,2.948 1.713,0.25 7.46,0.169 9.482,0.171 0.68,0.001 0.796,0.099 1.356,0.129 2.658,0.143 7.127,-0.383 9.252,-0.095 0.363,0.05 0.795,0.208 1.268,0.218l0.123 1.856c0,2.459 -0.885,4.265 -1.644,6.029 -0.417,0.969 -0.84,1.681 -1.219,2.617 -0.365,0.901 -0.902,1.73 -1.344,2.616 -1.631,3.264 -3.341,7.263 -3.341,12.127 0,3.421 0.793,7.158 2.883,9.615 2.249,2.643 4.83,4.245 8.625,4.245 0.544,0 1.635,-0.409 1.899,-0.7 0.354,-0.39 0.278,-1.678 0.364,-2.358 0.537,-4.235 0.841,-9.87 2.404,-13.808 1.41,-3.557 1.338,-3.896 4.088,-6.678 0.265,-0.268 0.37,-0.372 0.65,-0.587l3.62 -3.187c0.441,-0.441 0.977,-0.911 1.349,-1.373 1.19,-1.478 2.02,-3.515 2.756,-5.288 1.248,-3.002 3.67,-8.255 5.217,-10.871 0.375,-0.635 0.64,-1.1 1.018,-1.704 1.979,-3.164 4.818,-7.03 9.182,-7.03 0.555,0 0.609,0.422 0.739,-0.241 0.042,-0.211 0.004,-1.089 0.003,-1.367l0.003 -5.201c0.004,-0.909 -0.129,-1.457 -0.127,-2.472l0 -31.185c-0.467,-0.225 -3.933,-0.802 -4.734,-0.958l-9.568 -1.817c-5.204,-1.029 -9.985,-1.638 -15.525,-1.8 -0.611,-0.018 -0.619,-0.113 -1.23,-0.132l-2.733 -0.113c-0.445,-0.037 -1.02,-0.007 -1.478,-0.007 -1.903,0.001 -3.66,-0.123 -5.693,-0.123l-5.721 0c-3.937,0.091 -7.91,0.55 -10.614,2.475 -2.109,1.502 -5.693,4.079 -5.693,7.548z"/>
   <path class="fil0" d="M76.473 6.44l0 37.496c0,2.336 1.794,4.084 3.465,4.084l12.993 0c1.758,0 3.466,-1.913 3.466,-3.712l0 -37.992c0,-0.735 -0.186,-1.135 -0.45,-1.654 -0.173,-0.34 -0.159,-0.336 -0.383,-0.607l-0.292 -0.327c-0.924,-0.958 -1.868,-1.248 -3.578,-1.248l-10.643 0c-1.39,0 -2.445,0.326 -3.189,1.018 -0.72,0.671 -1.389,1.599 -1.389,2.942z"/>
  </g>
 </g>
</svg>
