<?xml version="1.0" encoding="UTF-8"?>
<!DOCTYPE svg PUBLIC "-//W3C//DTD SVG 1.1//EN" "http://www.w3.org/Graphics/SVG/1.1/DTD/svg11.dtd">
<!-- Creator: CorelDRAW 2020 (64 Bit) -->
<svg xmlns="http://www.w3.org/2000/svg" xml:space="preserve" width="100px" height="100px" version="1.1" style="shape-rendering:geometricPrecision; text-rendering:geometricPrecision; image-rendering:optimizeQuality; fill-rule:evenodd; clip-rule:evenodd"
viewBox="0 0 100 100"
 xmlns:xlink="http://www.w3.org/1999/xlink"
 xmlns:xodm="http://www.corel.com/coreldraw/odm/2003">
 <defs>
  <style type="text/css">
   <![CDATA[
    .fil0 {fill:#DD2323}
   ]]>
  </style>
 </defs>
 <g id="Camada_x0020_1">
  <metadata id="CorelCorpID_0Corel-Layer"/>
  <g id="_2201917152080">
   <path class="fil0" d="M9.625 9.625c0,1.349 0.891,2.205 -0.709,4.791 -1.434,2.317 -4.916,4.252 -4.916,6.959 0,2.403 2,4.483 2,6.875 0,1.911 -1.318,2.47 -2.216,3.535 -1.709,2.027 -2.4,5.068 -0.441,7.246 1.49,1.657 2.354,2.693 1.034,5.221 -0.727,1.393 -2.502,3.402 -2.502,4.998 0,0.519 0.451,1.708 0.607,2.142 0.624,1.735 2.063,3.966 3.298,5.202 2.871,2.871 4.585,2.44 8.272,2.979 1.73,0.252 7.535,0.17 9.577,0.173 0.687,0.001 0.804,0.099 1.37,0.13 2.685,0.145 7.199,-0.387 9.346,-0.096 0.366,0.05 0.803,0.209 1.28,0.22l0.125 1.875c0,2.483 -0.894,4.308 -1.661,6.089 -0.422,0.979 -0.849,1.698 -1.232,2.644 -0.368,0.91 -0.91,1.747 -1.357,2.642 -1.648,3.298 -3.375,7.337 -3.375,12.25 0,3.455 0.801,7.23 2.913,9.712 2.271,2.67 4.879,4.288 8.712,4.288 0.549,0 1.652,-0.413 1.918,-0.707 0.357,-0.394 0.28,-1.695 0.368,-2.382 0.542,-4.278 0.849,-9.97 2.427,-13.947 1.426,-3.593 1.353,-3.936 4.13,-6.746 0.268,-0.27 0.373,-0.376 0.657,-0.593l3.656 -3.219c0.446,-0.445 0.987,-0.92 1.363,-1.387 1.202,-1.493 2.04,-3.55 2.784,-5.341 1.26,-3.032 3.707,-8.339 5.269,-10.981 0.379,-0.641 0.647,-1.111 1.028,-1.721 1.999,-3.197 4.867,-7.101 9.275,-7.101 0.56,0 0.615,0.426 0.747,-0.243 0.042,-0.214 0.004,-1.101 0.003,-1.382l0.003 -5.253c0.004,-0.918 -0.13,-1.471 -0.128,-2.497l0 -31.5c-0.472,-0.227 -3.972,-0.81 -4.782,-0.968l-9.665 -1.835c-5.257,-1.04 -10.086,-1.654 -15.682,-1.818 -0.617,-0.018 -0.625,-0.115 -1.242,-0.133l-2.761 -0.115c-0.449,-0.037 -1.03,-0.007 -1.493,-0.006 -1.922,0 -3.696,-0.125 -5.75,-0.125l-5.779 0c-3.977,0.092 -7.99,0.555 -10.721,2.5 -2.131,1.518 -5.75,4.121 -5.75,7.625z"/>
   <path class="fil0" d="M77.25 5.5l0 37.875c0,2.359 1.813,4.125 3.5,4.125l13.125 0c1.776,0 3.5,-1.932 3.5,-3.75l0 -38.375c0,-0.742 -0.187,-1.147 -0.453,-1.671 -0.175,-0.343 -0.161,-0.339 -0.387,-0.613l-0.296 -0.33c-0.933,-0.968 -1.886,-1.261 -3.614,-1.261l-10.75 0c-1.405,0 -2.47,0.329 -3.221,1.029 -0.728,0.677 -1.404,1.614 -1.404,2.971z"/>
  </g>
 </g>
</svg>
