<svg enable-background="new 0 0 64 64" viewBox="0 0 64 64" xmlns="http://www.w3.org/2000/svg"><g id="Layer_1" display="none"><g display="inline" fill="none" stroke="#b3b3b3" stroke-miterlimit="10" stroke-width=".1"><path d="m2 2h60v60h-60z"/><path d="m32 2v60"/><path d="m62 32h-60"/><path d="m2 2 60 60"/><path d="m10 10h44v44h-44z"/><path d="m62 2-60 60"/><path d="m2 32 30-30"/><path d="m32 2 30 30"/><path d="m62 32-30 30"/><path d="m32 62-30-30"/><circle cx="32" cy="32" r="21"/></g></g><g id="Layer_2"><g><path d="m32 45c-3.9 0-7-3.1-7-7h2c0 2.8 2.2 5 5 5s5-2.2 5-5-2.2-5-5-5c-3.9 0-7-3.1-7-7s3.1-7 7-7 7 3.1 7 7h-2c0-2.8-2.2-5-5-5s-5 2.2-5 5 2.2 5 5 5c3.9 0 7 3.1 7 7s-3.1 7-7 7z"/></g><g><path d="m31 17h2v30h-2z"/></g><path d="m23 26h-12v-12h-6.4l12.4-12.4 12.4 12.4h-6.4zm-10-2h8v-12h3.6l-7.6-7.6-7.6 7.6h3.6z"/><g><path d="m32 12c11 0 20 9 20 20 0 1.4-.1 2.7-.4 4h2c.2-1.3.4-2.6.4-4 0-12.1-9.9-22-22-22-1.2 0-2.3.1-3.5.3l1.8 1.8c.6-.1 1.1-.1 1.7-.1z"/><path d="m33.7 51.9c-.6.1-1.1.1-1.7.1-11 0-20-9-20-20 0-1.4.1-2.7.4-4h-2c-.2 1.3-.4 2.6-.4 4 0 12.1 9.9 22 22 22 1.2 0 2.3-.1 3.5-.3z"/></g><path d="m47 62.4-12.4-12.4h6.4v-12h12v12h6.4zm-7.6-10.4 7.6 7.6 7.6-7.6h-3.6v-12h-8v12z"/></g></svg>