<svg id="Capa_1" enable-background="new 0 0 512 512" height="512" viewBox="0 0 512 512" width="512" xmlns="http://www.w3.org/2000/svg"><g><g><g><path d="m295.27 47.254h-169.545c-15.541 0-28.139 12.598-28.139 28.139v365.283c0 15.541 12.598 28.139 28.139 28.139h296.093c15.54 0 28.139-12.598 28.139-28.139v-238.736" fill="#dedbee"/><path d="m137.34 35.639v365.283c0 15.54 12.598 28.139 28.139 28.139h296.093c15.541 0 28.139-12.598 28.139-28.139v-238.735l-68.565-90.352-86.123-64.335h-169.544c-15.541 0-28.139 12.598-28.139 28.139z" fill="#eef5f6"/><path d="m400.367 34.561c-17.327-17.327-40.827-27.061-65.331-27.061h-31.323-7.976 7.976c38.431-.007 69.586 31.148 69.586 69.586v26.821c0 11.048 8.956 20.004 20.004 20.004h26.821c38.438 0 69.593 31.155 69.586 69.586v7.976-7.976-31.311c0-24.512-9.737-48.02-27.07-65.353l-31.132-31.132z" fill="#dedbee"/></g><circle cx="125.544" cy="401.246" fill="#9be69d" r="103.254"/><path d="m146.382 502.381c-6.724 1.392-13.697 2.113-20.844 2.113-57.025 0-103.248-46.224-103.248-103.248 0-57.025 46.224-103.248 103.248-103.248 7.147 0 14.119.721 20.844 2.113-47.044 9.633-82.417 51.245-82.417 101.135s35.373 91.503 82.417 101.135z" fill="#6fd7a3"/><circle cx="125.544" cy="401.246" fill="#eef5f6" r="72.612"/><path d="m141.251 472.146c-5.06 1.12-10.32 1.71-15.71 1.71-40.1 0-72.61-32.51-72.61-72.61s32.51-72.61 72.61-72.61c5.39 0 10.65.59 15.71 1.71-32.55 7.17-56.91 36.19-56.91 70.9.001 34.71 24.36 63.73 56.91 70.9z" fill="#dedbee"/></g><g><path d="m467.943 91.527-62.27-62.27c-18.866-18.867-43.951-29.257-70.633-29.257h-.021-169.539c-19.652 0-35.641 15.988-35.641 35.64v4.11h-4.109c-19.652 0-35.641 15.988-35.641 35.64v220.919c-43.735 14.816-75.3 56.261-75.3 104.941 0 23.056 7.022 45.164 20.308 63.933 2.393 3.381 7.075 4.181 10.455 1.789 3.381-2.393 4.182-7.074 1.789-10.455-11.482-16.222-17.551-35.333-17.551-55.267 0-52.802 42.953-95.76 95.75-95.76 52.802 0 95.76 42.958 95.76 95.76 0 52.797-42.958 95.75-95.76 95.75-19.935 0-39.045-6.069-55.267-17.552-3.381-2.394-8.062-1.591-10.454 1.788-2.394 3.381-1.593 8.062 1.788 10.455 18.769 13.287 40.876 20.309 63.933 20.309 32.135 0 61.112-13.759 81.363-35.69h214.917c19.651 0 35.64-15.983 35.64-35.63v-4.12h4.11c19.651 0 35.64-15.988 35.64-35.64v-238.73c0-26.684-10.394-51.779-29.267-70.663zm-362.853 200.864v-217c0-11.381 9.26-20.64 20.641-20.64h4.109v235.832c-1.427-.055-2.859-.091-4.3-.091-6.986-.002-13.82.656-20.45 1.899zm337.37 148.289c0 11.375-9.259 20.63-20.64 20.63h-203.264c4.961-7.655 9.005-15.956 11.971-24.75h211.933zm39.75-39.76c0 11.381-9.259 20.64-20.64 20.64h-227.144c1.226-6.586 1.874-13.374 1.874-20.31 0-54.491-39.555-99.915-91.46-109.073v-256.537c0-11.381 9.26-20.64 20.641-20.64h138.25c34.226 0 62.069 27.854 62.069 62.09v26.82c0 15.164 12.337 27.5 27.5 27.5h9.32c4.143 0 7.5-3.358 7.5-7.5s-3.357-7.5-7.5-7.5h-9.32c-6.893 0-12.5-5.607-12.5-12.5v-26.82c0-24.522-11.521-46.391-29.417-60.52 16.447 3.191 31.573 11.183 43.683 23.293l62.269 62.269c12.076 12.083 20.064 27.16 23.276 43.551-10.181-12.891-24.471-22.545-41.266-26.857-4.016-1.032-8.1 1.387-9.13 5.399s1.388 8.1 5.399 9.129c27.435 7.044 46.595 31.769 46.595 60.146v207.42z"/><path d="m236.16 167.994h154.73c4.143 0 7.5-3.358 7.5-7.5s-3.357-7.5-7.5-7.5h-154.73c-4.143 0-7.5 3.358-7.5 7.5s3.358 7.5 7.5 7.5z"/><path d="m193.48 208.97h42.47c4.143 0 7.5-3.358 7.5-7.5s-3.357-7.5-7.5-7.5h-42.47c-4.143 0-7.5 3.358-7.5 7.5s3.358 7.5 7.5 7.5z"/><path d="m433.57 193.97h-162.62c-4.143 0-7.5 3.358-7.5 7.5s3.357 7.5 7.5 7.5h162.62c4.143 0 7.5-3.358 7.5-7.5s-3.357-7.5-7.5-7.5z"/><path d="m433.568 226.146h-240.086c-4.143 0-7.5 3.358-7.5 7.5s3.357 7.5 7.5 7.5h240.086c4.143 0 7.5-3.358 7.5-7.5s-3.357-7.5-7.5-7.5z"/><path d="m433.568 258.319h-240.086c-4.143 0-7.5 3.358-7.5 7.5s3.357 7.5 7.5 7.5h240.086c4.143 0 7.5-3.358 7.5-7.5s-3.357-7.5-7.5-7.5z"/><path d="m253.451 290.492h-59.969c-4.143 0-7.5 3.358-7.5 7.5s3.357 7.5 7.5 7.5h59.969c4.143 0 7.5-3.358 7.5-7.5s-3.357-7.5-7.5-7.5z"/><path d="m125.544 481.358c44.174 0 80.112-35.938 80.112-80.112s-35.938-80.112-80.112-80.112-80.112 35.938-80.112 80.112 35.938 80.112 80.112 80.112zm0-145.224c35.903 0 65.112 29.209 65.112 65.112s-29.209 65.112-65.112 65.112-65.112-29.209-65.112-65.112 29.209-65.112 65.112-65.112z"/><path d="m125.544 408.746h35.035c4.143 0 7.5-3.358 7.5-7.5s-3.357-7.5-7.5-7.5h-27.535v-36.306c0-4.142-3.357-7.5-7.5-7.5s-7.5 3.358-7.5 7.5v43.806c0 4.142 3.357 7.5 7.5 7.5z"/></g></g></svg>