<?xml version="1.0" encoding="UTF-8"?>
<!DOCTYPE svg PUBLIC "-//W3C//DTD SVG 1.1//EN" "http://www.w3.org/Graphics/SVG/1.1/DTD/svg11.dtd">
<!-- Creator: CorelDRAW 2020 (64 Bit) -->
<svg xmlns="http://www.w3.org/2000/svg" xml:space="preserve" width="84.6666mm" height="84.6666mm" version="1.1" style="shape-rendering:geometricPrecision; text-rendering:geometricPrecision; image-rendering:optimizeQuality; fill-rule:evenodd; clip-rule:evenodd"
viewBox="0 0 8466.66 8466.66"
 xmlns:xlink="http://www.w3.org/1999/xlink"
 xmlns:xodm="http://www.corel.com/coreldraw/odm/2003">
 <defs>
  <style type="text/css">
   <![CDATA[
    .fil1 {fill:white}
    .fil0 {fill:url(#id0);fill-rule:nonzero}
   ]]>
  </style>
  <linearGradient id="id0" gradientUnits="userSpaceOnUse" x1="4541.73" y1="7295.84" x2="4541.73" y2="738.91">
   <stop offset="0" style="stop-opacity:1; stop-color:#20B038"/>
   <stop offset="1" style="stop-opacity:1; stop-color:#60D66A"/>
  </linearGradient>
 </defs>
 <g id="Camada_x0020_1">
  <metadata id="CorelCorpID_0Corel-Layer"/>
  <path class="fil0" d="M1282.37 7296.48l461.12 -1683.71c-284.48,-492.77 -434.08,-1051.82 -433.9,-1624.38 0.74,-1791.51 1458.77,-3249.02 3250.24,-3249.02 869.49,0.39 1685.56,338.77 2299.13,952.92 613.7,614.14 951.47,1430.47 951.11,2298.64 -0.74,1791.55 -1458.87,3249.19 -3250.11,3249.19 -0.13,0 0.09,0 0,0l-1.45 0c-543.94,-0.17 -1078.42,-136.72 -1553.12,-395.43l-1723.02 451.79 0 0z"/>
  <g id="_1658464029648">
   <g id="_2164141282624">
    <path class="fil1" d="M7163.26 4070.74c0,401.52 -40.32,461.51 -109.34,794.62l-88.63 261.29c-44.57,125.41 -192.31,392.64 -269,518.3 -9.74,15.94 -24.09,33.26 -37.09,50.38 -154.15,202.94 -151.38,221.8 -363.6,423.72 -95.76,91.11 -120.33,119.01 -233.46,203.93 -117.5,88.19 -294.69,212.32 -426.41,273.43 -42.17,19.56 -76.4,35.74 -118.26,56.69 -161.7,80.97 -344.55,132.46 -521.92,177.91 -542.49,138.98 -1171.43,94.71 -1693.88,-113.67 -154.89,-61.77 -162.81,-70.93 -280.94,-127.3 -37.14,-17.71 -61.68,-28.75 -98.58,-47.22 -101.03,-50.56 -82.9,-62.57 -207.28,-29.08 -39.82,10.74 -74.92,14.62 -110.23,25.84 -36.16,11.51 -81.99,18.13 -117.77,28.04 -72.71,20.14 -145.73,33.06 -220.58,51.59l-455.39 108.36c-141.98,38.02 -110.31,30.96 -83.39,-93.11 8.92,-41.1 12.5,-77.45 21.57,-114.52l143.41 -692.49c8.98,-47.34 17.09,-70.95 26.18,-119.63 20.21,-108 22.56,-95.25 -37.58,-203.99 -106.63,-192.83 -183.6,-373.62 -254.62,-591.01 -73.75,-225.77 -151.39,-685.4 -118.76,-976.73 17.79,-158.94 20.97,-321.59 67.84,-486.2 20.7,-72.71 33.74,-150.86 58.28,-223.6 94.72,-280.84 79.04,-199.87 159.86,-394.17 69.79,-167.8 272.22,-464.54 390.64,-591.07 25.69,-27.45 34.13,-44.54 63.01,-73.06 26.74,-26.38 43.89,-41.98 65.55,-70.52 25.6,-33.72 45.31,-40.08 75.67,-70.14 143.35,-141.96 299.89,-258.81 472.99,-362.91 363.18,-218.41 719.94,-342.34 1140.93,-394.82 43.82,-5.47 84.8,-4.22 137.37,-8.42 43.21,-3.47 71.24,-7.36 127.2,-9.01l125.89 -0.3c322.2,17.91 304.03,13.91 611.61,78.77 412.85,87.03 794.74,300.94 1124.44,557.09 29.58,22.99 43.05,43.57 70.55,65.52 32.07,25.6 42.63,34.53 71.83,64.24l77.06 68.76c25.92,31.26 34.07,42.64 63.98,72.1 31.09,30.62 40.84,46.97 68.12,77.67l125.92 155.95c41.23,54.94 76.92,98.89 112.82,159.33 36.88,62.09 70.28,114.6 105.79,176.09l112.22 237.7c14.16,29.7 10.86,14.56 21.75,46.29 89.55,261.17 171.58,498.27 193.99,787.71 7.29,94.08 10.24,174.03 10.24,271.65zm-6454 -136.08c0,473.11 14.98,733.1 146.92,1184.7 56.89,194.72 138.75,384.61 222.79,564.97 29.07,62.36 -0.17,138.94 -15.71,208.12l-87.72 427.43c-56.86,219.57 -121.93,631.35 -178.7,871.03 -8.75,36.91 -12.99,64.37 -20.67,105.69 -19.06,102.56 -66.91,231.76 -66.91,331.62 0,97.36 84.41,136.07 165.23,136.07 77.05,0 157.1,-29.81 233.38,-48.49 74.41,-18.22 149.45,-39.31 227.55,-54.33l684.07 -161.56c68.23,-18.95 157.63,-37.98 227.52,-54.37l345.33 -82.33c209.48,-41.32 102.66,-33.13 317.65,56.85 289.15,121.03 576.15,204.15 887.37,249.85l254.05 27.83c343.28,36.36 697.68,-3.93 1035.99,-65.32 256.33,-46.52 508.93,-138.89 745.36,-246.07 649.57,-294.45 1223.26,-791.6 1591.1,-1402.62 182.93,-303.9 282.05,-539.63 395.96,-877.34 74.92,-222.1 140.46,-624.98 140.46,-860.7 0,-176.28 6.27,-359.11 -11.24,-533.07l-122.68 -635.47c-9.06,-36.04 -14.39,-42.14 -25.8,-81.11 -17.74,-60.54 -35.55,-104.26 -55.25,-158.6 -127.32,-351.22 -308.31,-684.58 -538.98,-977.32 -95.13,-120.73 -193.8,-239.32 -303.08,-348.14 -143.77,-143.18 -301.71,-281.38 -471.02,-394.05 -269.6,-179.41 -538.67,-338.39 -847.34,-445.41l-239.23 -81.51c-499.37,-143.37 -1042.95,-173.94 -1558.2,-100.17 -70.6,10.11 -117.56,21.45 -181.78,32.05 -474.22,78.17 -967.61,326.71 -1362.73,590.98 -124.04,82.96 -272.19,203.22 -360.13,291.09l-267.28 277.03c-20.83,23.44 -31.79,31.1 -50.95,55.96 -30.83,40 -64.05,75.5 -95.85,118 -94.58,126.43 -191.07,253.95 -267.11,393.83 -53.36,98.16 -105.63,185.31 -151.09,286.31l-126.38 301.28c-40.38,110.71 -69.63,213.09 -103.94,333.46 -34.52,121.09 -59.09,238.75 -73.83,363.56 -15.32,129.59 -37.13,246.61 -37.13,400.27z"/>
    <path class="fil1" d="M2507.44 3157.08c0,296.65 15.29,409.78 124.83,681.91 63.6,158 146.29,292.96 238.63,432.04 106.01,159.64 195.1,243.79 291.87,369.08 25.82,33.43 51.62,55.05 80.95,84.29l252.52 252.92c19.97,19.22 23.55,19.33 42.94,34.8l412.28 336.17c102.3,77.34 298.06,195.84 415.62,255.05l227.22 103.24c42.03,16.3 83.33,32.42 121.56,43.7 274.73,81.02 460.76,125.2 773.09,86.99 22.73,-2.78 63.79,-11.14 88.96,-17.95 193.62,-52.34 268.73,-101.69 416.22,-235.02l151.41 -179.07c69.56,-92.98 142.93,-177.81 142.93,-294.47 0,-111.14 -79.15,-205.17 -174.56,-243.4 -78.44,-31.43 -245.59,-67.21 -330.88,-96.79l-167.35 -46.48c-172.26,-46.38 -333.86,-143.59 -486.53,4.95 -207.52,201.92 -272.82,346.91 -582.49,160.12 -348.16,-210 -643.97,-495.96 -918.99,-791.71 -18.38,-19.77 -18.11,-23.56 -34.62,-43.14 -201.46,-238.92 -180.77,-324.17 -10.82,-541.71 170.95,-218.78 146.95,-253.9 26.87,-524.09l-169.96 -384.07c-15.39,-37.56 -36.84,-92.31 -57.14,-127.53 -44.09,-76.45 -109.84,-142.61 -227.15,-149.23 -50.12,-2.83 -100.11,11.12 -141.62,32.73 -43.77,22.79 -62.94,52.85 -100.43,84.25 -197.62,165.45 -405.36,428.99 -405.36,712.42z"/>
   </g>
  </g>
 </g>
</svg>
