<?xml version="1.0" encoding="UTF-8"?>
<!DOCTYPE svg PUBLIC "-//W3C//DTD SVG 1.1//EN" "http://www.w3.org/Graphics/SVG/1.1/DTD/svg11.dtd">
<!-- Creator: CorelDRAW 2020 (64 Bit) -->
<svg xmlns="http://www.w3.org/2000/svg" xml:space="preserve" width="100px" height="100px" version="1.1" style="shape-rendering:geometricPrecision; text-rendering:geometricPrecision; image-rendering:optimizeQuality; fill-rule:evenodd; clip-rule:evenodd"
viewBox="0 0 100 100"
 xmlns:xlink="http://www.w3.org/1999/xlink"
 xmlns:xodm="http://www.corel.com/coreldraw/odm/2003">
 <defs>
  <style type="text/css">
   <![CDATA[
    .fil0 {fill:#1e4c7b}
    .fil1 {fill:white}
   ]]>
  </style>
 </defs>
 <g id="Camada_x0020_1">
  <metadata id="CorelCorpID_0Corel-Layer"/>
  <g id="_2436699649760">
   <path class="fil0" d="M48.818 80.786l5.847 -0.004 0.017 6.281c-1.664,0.183 -4.202,0.184 -5.854,0l-0.01 -6.277zm6.039 -27.597c0.464,0.111 1.931,1.021 2.446,1.325 0.793,0.467 1.619,0.895 2.418,1.359 1.13,0.655 6.487,3.565 7.214,4.158 1.48,1.21 2.17,2.733 0.954,4.449 -0.062,0.088 -0.154,0.213 -0.212,0.277 -0.084,0.092 -0.171,0.152 -0.251,0.237 -2.171,2.321 -5.5,-0.328 -7.87,-1.672 -1.151,-0.653 -8.799,-4.903 -9.675,-5.517 -1.957,-1.372 -1.58,-3.161 -1.58,-6l0 -18.924c0,-1.249 -0.043,-2.576 0.006,-3.816 0.046,-1.164 0.443,-2.116 1.018,-2.74 1.223,-1.329 4.041,-1.29 5.125,0.658 0.61,1.095 0.404,2.072 0.404,3.411l0 15.192c0,2.511 -0.062,5.102 0.003,7.603zm33.246 2.407l-5.978 0 -0.017 -5.677 6.379 -0.014c0.087,0.738 -0.145,5.147 -0.384,5.691zm-73.09 -5.69l6.712 0 0.012 5.692 -6.374 -0.001c-0.086,-0.922 -0.218,-1.812 -0.283,-2.761 -0.054,-0.789 -0.156,-2.175 -0.067,-2.93zm33.805 -36.29c1.662,-0.185 4.201,-0.183 5.854,0l0.01 6.098 -5.85 0.004 -0.014 -6.102zm-41.224 34.813c0,2.195 -0.01,3.784 0.174,5.956l0.201 1.843c0.121,0.833 0.219,1.544 0.354,2.355 0.061,0.369 0.137,0.75 0.221,1.112 0.673,2.893 1.177,4.562 2.248,7.259l0.826 1.884c0.383,0.928 0.892,1.802 1.352,2.69 0.158,0.306 0.319,0.589 0.49,0.887 0.808,1.404 1.687,2.793 2.663,4.089l2.72 3.366c0.141,0.151 0.205,0.205 0.339,0.372 0.258,0.324 1.038,1.092 1.328,1.382 0.465,0.466 0.901,0.877 1.376,1.333 0.995,0.959 2.606,2.218 3.705,3.047l4.961 3.169c1.589,0.967 4.775,2.314 6.565,2.941 2.837,0.991 5.674,1.665 8.743,2.096 4.6,0.646 9.468,0.453 14,-0.356 2.841,-0.506 5.593,-1.331 8.263,-2.398 1.262,-0.506 2.478,-1.078 3.691,-1.684 1.739,-0.87 3.412,-1.882 5.008,-2.988 0.539,-0.373 1.027,-0.737 1.543,-1.122l2.914 -2.417c0.135,-0.137 0.224,-0.179 0.357,-0.31 0.119,-0.118 0.209,-0.221 0.331,-0.335 0.135,-0.123 0.218,-0.17 0.357,-0.31l1.355 -1.354c0.124,-0.134 0.17,-0.218 0.31,-0.356 1.153,-1.14 2.72,-3.125 3.61,-4.387 0.186,-0.264 0.36,-0.496 0.551,-0.782 0.189,-0.283 0.343,-0.515 0.533,-0.799 0.367,-0.551 0.684,-1.063 1.029,-1.637 0.42,-0.699 0.837,-1.389 1.203,-2.127 0.083,-0.166 0.14,-0.279 0.223,-0.444 0.156,-0.314 0.323,-0.616 0.458,-0.919 0.856,-1.925 1.585,-3.728 2.261,-5.736 0.228,-0.677 0.392,-1.358 0.598,-2.066 0.724,-2.477 1.451,-6.671 1.451,-9.256 0,-3.151 0.041,-5.161 -0.419,-8.288 -0.542,-3.674 -1.26,-7.241 -2.751,-10.576 -0.143,-0.322 -0.276,-0.601 -0.41,-0.923l-1.798 -3.533c-1.672,-2.892 -2.719,-4.543 -4.833,-7.16l-0.618 -0.715c-0.621,-0.705 -1.287,-1.377 -1.954,-2.044 -0.331,-0.33 -0.642,-0.697 -1.001,-0.997l-1.758 -1.575 -2.996 -2.335c-1.421,-1.07 -3.762,-2.53 -5.346,-3.315 -1.671,-0.827 -3.27,-1.598 -5.054,-2.276l-2.997 -1.002c-1.781,-0.551 -3.605,-0.882 -5.462,-1.2 -0.771,-0.132 -1.562,-0.166 -2.393,-0.273 -1.648,-0.213 -3.564,-0.12 -5.255,-0.12 -1.777,0 -3.434,0.099 -5,0.33 -0.992,0.146 -1.875,0.279 -2.827,0.505 -0.196,0.047 -0.355,0.064 -0.558,0.108l-2.197 0.468c-1.935,0.469 -4.128,1.227 -5.928,2.068 -0.32,0.15 -0.627,0.308 -0.942,0.436 -0.823,0.333 -1.845,0.92 -2.642,1.355l-1.692 0.974c-1.383,0.828 -2.719,1.733 -4.011,2.697 -0.758,0.565 -1.51,1.152 -2.223,1.774 -0.476,0.415 -0.973,0.801 -1.422,1.245 -0.565,0.559 -1.166,1.094 -1.653,1.721 -0.434,0.558 -0.962,1.022 -1.396,1.581l-2.533 3.198c-1.776,2.456 -2.925,4.532 -4.231,7.141l-0.621 1.378c-0.465,0.965 -1.161,2.806 -1.462,3.868 -0.401,1.412 -0.825,2.793 -1.126,4.249 -0.493,2.379 -0.803,4.758 -0.803,7.238z"/>
   <path class="fil1" d="M54.857 53.189c-0.065,-2.501 -0.003,-5.092 -0.003,-7.603l0 -15.192c0,-1.339 0.206,-2.316 -0.404,-3.411 -1.084,-1.948 -3.902,-1.987 -5.125,-0.658 -0.575,0.624 -0.972,1.576 -1.018,2.74 -0.049,1.24 -0.006,2.567 -0.006,3.816l0 18.924c0,2.839 -0.377,4.628 1.58,6 0.876,0.614 8.524,4.864 9.675,5.517 2.37,1.344 5.699,3.993 7.87,1.672 0.08,-0.085 0.167,-0.145 0.251,-0.237 0.058,-0.064 0.15,-0.189 0.212,-0.277 1.216,-1.716 0.526,-3.239 -0.954,-4.449 -0.727,-0.593 -6.084,-3.503 -7.214,-4.158 -0.799,-0.464 -1.625,-0.892 -2.418,-1.359 -0.515,-0.304 -1.982,-1.214 -2.446,-1.325z"/>
   <path class="fil1" d="M15.013 49.906c-0.089,0.755 0.013,2.141 0.067,2.93 0.065,0.949 0.197,1.839 0.283,2.761l6.374 0.001 -0.012 -5.692 -6.712 0z"/>
   <path class="fil1" d="M48.828 87.063c1.652,0.184 4.19,0.183 5.854,0l-0.017 -6.281 -5.847 0.004 0.01 6.277z"/>
   <path class="fil1" d="M48.832 19.718l5.85 -0.004 -0.01 -6.098c-1.653,-0.183 -4.192,-0.185 -5.854,0l0.014 6.102z"/>
   <path class="fil1" d="M88.103 55.596c0.239,-0.544 0.471,-4.953 0.384,-5.691l-6.379 0.014 0.017 5.677 5.978 0z"/>
  </g>
 </g>
</svg>
