<?xml version="1.0" encoding="UTF-8"?>
<!DOCTYPE svg PUBLIC "-//W3C//DTD SVG 1.1//EN" "http://www.w3.org/Graphics/SVG/1.1/DTD/svg11.dtd">
<!-- Creator: CorelDRAW 2017 -->
<svg xmlns="http://www.w3.org/2000/svg" xml:space="preserve" width="58.9139mm" height="69.4972mm" version="1.1" style="shape-rendering:geometricPrecision; text-rendering:geometricPrecision; image-rendering:optimizeQuality; fill-rule:evenodd; clip-rule:evenodd"
viewBox="0 0 371268 437963"
 xmlns:xlink="http://www.w3.org/1999/xlink">
 <defs>
  <style type="text/css">
   <![CDATA[
    .fil0 {fill:black;fill-rule:nonzero}
    .fil1 {fill:white;fill-rule:nonzero}
   ]]>
  </style>
 </defs>
 <g id="Layer_x0020_1">
  <metadata id="CorelCorpID_0Corel-Layer"/>
  <path class="fil0" d="M33348 165317l0 -134193c0,-8569 3499,-16352 9136,-21989 5636,-5636 13420,-9136 21989,-9136l208681 0 98115 97173 0 309666c0,8568 -3499,16352 -9136,21989 -5636,5636 -13420,9136 -21989,9136l-275672 0c-8569,0 -16352,-3499 -21989,-9136 -5636,-5636 -9136,-13420 -9136,-21989l0 -51133 17785 0 0 51133c0,3658 1504,6992 3925,9414 2422,2422 5755,3925 9414,3925l275672 0c3659,0 6992,-1504 9414,-3925 2422,-2422 3925,-5756 3925,-9414l0 -297100 -40045 0c-14529,0 -27732,-5938 -37297,-15503 -9565,-9565 -15503,-22768 -15503,-37297l0 -39154 -196166 0c-3659,0 -6992,1504 -9414,3925 -2422,2422 -3925,5755 -3925,9414l0 134193 -17785 0zm-3335 12536l255664 0c16507,0 30013,13506 30013,30013l0 104489c0,16507 -13506,30013 -30013,30013l-255664 0c-16507,0 -30013,-13506 -30013,-30013l0 -104489c0,-16507 13506,-30013 30013,-30013zm310783 -85900l-62372 -61774 0 26759c0,9619 3942,18373 10292,24722 6350,6350 15103,10292 24722,10292l27358 0z"/>
  <path class="fil1" d="M83407 227314l21599 0 0 69664 -21599 0 0 -69664zm36988 0l57599 0 0 14886 -36000 0 0 11091 33372 0 0 14205 -33372 0 0 13719 37070 0 0 15762 -58670 0 0 -69664zm66566 46621l20432 -1281c438,3308 1346,5838 2708,7557 2222,2805 5384,4216 9503,4216 3065,0 5432,-714 7086,-2157 1671,-1443 2497,-3114 2497,-5010 0,-1800 -778,-3422 -2351,-4849 -1573,-1427 -5237,-2756 -10994,-4038 -9438,-2108 -16151,-4930 -20173,-8448 -4054,-3503 -6081,-7978 -6081,-13427 0,-3567 1038,-6941 3113,-10119 2076,-3194 5190,-5691 9357,-7508 4167,-1816 9875,-2724 17123,-2724 8903,0 15681,1654 20351,4978 4670,3308 7443,8578 8335,15810l-20238 1201c-534,-3162 -1669,-5465 -3389,-6892 -1735,-1443 -4119,-2157 -7151,-2157 -2498,0 -4395,535 -5660,1589 -1265,1054 -1897,2351 -1897,3876 0,1102 519,2092 1541,2984 989,924 3389,1768 7184,2562 9405,2027 16135,4086 20189,6162 4070,2076 7038,4638 8886,7719 1849,3065 2773,6502 2773,10314 0,4459 -1232,8578 -3697,12356 -2481,3762 -5919,6633 -10362,8578 -4427,1946 -10005,2918 -16751,2918 -11838,0 -20043,-2286 -24600,-6843 -4556,-4557 -7134,-10346 -7735,-17367z"/>
 </g>
</svg>
