<?xml version="1.0" encoding="UTF-8"?>
<!DOCTYPE svg PUBLIC "-//W3C//DTD SVG 1.1//EN" "http://www.w3.org/Graphics/SVG/1.1/DTD/svg11.dtd">
<!-- Creator: CorelDRAW 2020 (64 Bit) -->
<svg xmlns="http://www.w3.org/2000/svg" xml:space="preserve" width="100px" height="100px" version="1.1" style="shape-rendering:geometricPrecision; text-rendering:geometricPrecision; image-rendering:optimizeQuality; fill-rule:evenodd; clip-rule:evenodd"
viewBox="0 0 100 100"
 xmlns:xlink="http://www.w3.org/1999/xlink"
 xmlns:xodm="http://www.corel.com/coreldraw/odm/2003">
 <defs>
  <style type="text/css">
   <![CDATA[
    .fil0 {fill:#006CC9}
   ]]>
  </style>
 </defs>
 <g id="Camada_x0020_1">
  <metadata id="CorelCorpID_0Corel-Layer"/>
  <g id="_2201904976512">
   <path class="fil0" d="M27.106 54.084c-0.76,0 -0.746,-0.766 -0.743,1.608l-0.002 5.201c-0.004,0.909 0.129,1.457 0.126,2.472l0 31.185c0.468,0.225 3.933,0.802 4.735,0.958l9.568 1.817c5.204,1.029 9.985,1.638 15.525,1.8l2.723 0.124c0.635,0 0.757,0.081 1.24,0.121l7.171 0.13 5.721 0c3.937,-0.091 7.91,-0.55 10.613,-2.475 2.11,-1.502 5.694,-4.079 5.694,-7.548 0,-0.98 -1.018,-3.244 1.515,-5.786 0.392,-0.394 0.535,-0.664 0.927,-1.053 3.504,-3.487 3.837,-4.076 2.154,-8.153 -0.422,-1.023 -1.008,-2.127 -1.008,-3.447 0,-1.892 1.305,-2.446 2.193,-3.5 1.693,-2.007 2.377,-5.017 0.437,-7.174 -1.475,-1.64 -2.33,-2.666 -1.023,-5.169 0.167,-0.319 0.275,-0.458 0.473,-0.764 0.185,-0.287 0.271,-0.469 0.468,-0.769 1.815,-2.77 1.844,-3.007 0.935,-5.536 -0.246,-0.684 -0.573,-1.307 -0.922,-1.924 -0.729,-1.292 -1.335,-2.217 -2.344,-3.226 -0.733,-0.733 -2.265,-1.983 -3.338,-2.229 -0.795,-0.183 -1.464,-0.305 -2.302,-0.422 -4.467,-0.624 -7.519,-0.462 -12.03,-0.468 -0.68,-0.001 -0.796,-0.099 -1.356,-0.129 -2.005,-0.108 -3.894,0.14 -5.446,0.124 -1.419,-0.014 -2.46,0.154 -3.806,-0.029 -0.363,-0.05 -0.795,-0.208 -1.268,-0.218l-0.123 -1.856c0,-3.594 2.607,-8.059 4.207,-11.262 1.631,-3.264 3.341,-7.263 3.341,-12.127 0,-5.16 -1.713,-9.903 -6.191,-12.495 -0.938,-0.543 -3.038,-1.292 -4.802,-1.365l-0.54 0c-0.782,0.036 -1.458,0.24 -1.874,0.7 -0.354,0.39 -0.278,1.678 -0.364,2.358 -0.537,4.235 -0.841,9.87 -2.404,13.808 -1.411,3.557 -1.338,3.896 -4.088,6.678 -0.265,0.268 -0.37,0.372 -0.65,0.587 -0.302,0.231 -0.434,0.403 -0.725,0.637 -0.324,0.261 -0.425,0.356 -0.732,0.629l-1.484 1.239c-1.037,0.958 -2.476,2.377 -3.084,3.599 -0.33,0.663 -0.539,1.182 -0.864,1.858 -0.313,0.652 -0.553,1.204 -0.836,1.886 -0.276,0.662 -0.569,1.222 -0.85,1.873 -2.167,5.017 -4.234,9.554 -7.653,13.88 -1.423,1.8 -3.734,3.852 -6.914,3.852z"/>
   <path class="fil0" d="M2.603 55.692l0 37.992c0,0.735 0.186,1.135 0.45,1.654 0.172,0.34 0.158,0.336 0.383,0.607 0.985,1.192 1.974,1.575 3.87,1.575l10.643 0c2.653,0 4.578,-1.603 4.578,-3.96l0 -37.496c0,-2.336 -1.794,-4.084 -3.465,-4.084l-12.994 0c-1.757,0 -3.465,1.913 -3.465,3.712z"/>
  </g>
 </g>
</svg>
