<?xml version="1.0" encoding="UTF-8"?>
<!DOCTYPE svg PUBLIC "-//W3C//DTD SVG 1.1//EN" "http://www.w3.org/Graphics/SVG/1.1/DTD/svg11.dtd">
<!-- Creator: CorelDRAW X7 -->
<svg xmlns="http://www.w3.org/2000/svg" xml:space="preserve" width="155.148mm" height="220.839mm" version="1.1" style="shape-rendering:geometricPrecision; text-rendering:geometricPrecision; image-rendering:optimizeQuality; fill-rule:evenodd; clip-rule:evenodd"
viewBox="0 0 16472732 23447483"
 xmlns:xlink="http://www.w3.org/1999/xlink">
 <defs>
  <style type="text/css">
   <![CDATA[
    .fil0 {fill:#FF0000;}
   ]]>
  </style>
 </defs>
 <g id="Camada_x0020_1">
  <metadata id="CorelCorpID_0Corel-Layer"/>
  <path class="fil0" d="M8208278 3734821c-1135411,0 -2270811,0 -3405393,0 -1134583,0 -2269982,0 -3404565,0 -776943,0 -1383732,557884 -1348344,1237964 149590,2874106 300082,5748179 448896,8620342 148804,2872098 297703,5746246 447261,8618377 35409,680080 619911,1235979 1300650,1235979 993179,0 1987165,0 2980333,0 993169,0 1987165,0 2981162,0 993996,0 1987992,0 2981161,0 993168,0 1987154,0 2980333,0 680739,0 1265241,-555899 1300650,-1235979 149558,-2872131 298457,-5746279 447261,-8618377 148814,-2872163 299306,-5746236 448896,-8620342 35388,-680080 -571401,-1237964 -1348344,-1237964 -1134582,0 -2269982,0 -3404565,0 -1134582,0 -2269982,0 -3405392,0zm1217313 -618022l-2378450 0 -6035817 0c-556228,0 -1011324,-455085 -1011324,-1011324l0 0c0,-556238 455096,-1011324 1011324,-1011324l3813836 0c0,-601787 492364,-1094151 1094151,-1094151l4634099 0c601787,0 1094151,492364 1094151,1094151l3813847 0c556249,0 1011324,455086 1011324,1011324l0 0c0,556239 -455075,1011324 -1011324,1011324l-6035817 0zm-5745121 9814605l2550124 -924983c61592,-22350 130255,9768 152616,71360l924972 2550124 -896486 -419241 -1400858 2995537c-41132,87945 -138112,107863 -215555,44264l-1361552 -1118242c-77444,-63598 -107152,-187557 -66030,-275502l1177901 -2518749 -865132 -404568zm8354884 -2368258l-650278 2633610c-15692,63609 -80586,102798 -144206,87105l-2633599 -650277 847157 -511656 -1709656 -2830680c-50178,-83103 -12773,-174774 83167,-203738l1686722 -509171c95929,-28954 215460,15331 265660,98424l1437509 2380149 817524 -493766zm-4465356 1309431l-1203883 -799930c-62377,-41451 -79482,-126348 -38042,-188726l952026 -1432816c41249,-62070 125541,-79323 187833,-38626l904768 1498039 -613955 924017c-41451,62367 -126359,79493 -188747,38042zm2109552 6891202l-1918162 -1918172c-46334,-46324 -46334,-122133 0,-168468l1918162 -1918161 0 989675 3306916 0c97086,0 156215,79418 131402,176505l-436166 1707065c-24802,97086 -124511,176505 -221597,176505l-2780555 0 0 955051zm1187670 -4499257l1307137 -616970c67719,-31959 149250,-2708 181219,65011l734283 1555681c31810,67400 2994,148464 -64045,180752l-1750066 0 -473539 -1003244c-31958,-67718 -2718,-149261 65011,-181230zm-3614249 1648691l5150 1445409c265,74884 -60775,136338 -135660,136614l-1720252 6137c-74524,266 -135755,-60179 -136604,-134587l741353 -1585283 1109388 -3960c74885,-266 136360,60774 136625,135670z"/>
 </g>
</svg>
