<?xml version="1.0" encoding="iso-8859-1"?>
<!-- Generator: Adobe Illustrator 19.0.0, SVG Export Plug-In . SVG Version: 6.00 Build 0)  -->
<svg version="1.1" id="Capa_1" xmlns="http://www.w3.org/2000/svg" xmlns:xlink="http://www.w3.org/1999/xlink" x="0px" y="0px"
	 viewBox="0 0 512 512" style="enable-background:new 0 0 512 512;" xml:space="preserve">
<circle style="fill:#FF623E;" cx="256" cy="256" r="256"/>
<path style="fill:#CA1C00;" d="M512,256c0-24.305-3.387-47.819-9.715-70.095L401.14,84.76l-31.653,14.815l2.132,4.554
	l-25.202,11.796c-7.875,3.686-9.365,4.489-23.813,0.018c-11.519-3.564-23.709,1.762-34.208,6.676l-57.074,26.715
	c-8.483,3.971-12.496,13.31-8.962,20.861c0.608,1.3,1.401,2.46,2.341,3.47l17.98,17.952h-87.678v126.767l8.572,7.872
	c-2.817-0.763-5.846-1.076-8.894,0.351c-1.503,0.704-25.855,12.102-42.163,19.735l-4.532-9.681l-31.653,14.815l0,0l34.527,73.765
	l77.787,77.787C210.11,508.866,232.687,512,256,512C397.385,512,512,397.385,512,256z"/>
<rect x="155" y="191.62" style="fill:#D4F4CA;" width="202.01" height="126.77"/>
<rect x="256.01" y="191.62" style="fill:#9EE98F;" width="101.01" height="126.77"/>
<rect x="165.84" y="202.45" style="fill:#2AD827;" width="180.34" height="105.09"/>
<rect x="256.01" y="202.45" style="fill:#00AD00;" width="90.17" height="105.09"/>
<circle style="fill:#D4F4CA;" cx="256.01" cy="255" r="42.14"/>
<path style="fill:#9EE98F;" d="M298.152,255c0,23.274-18.87,42.143-42.144,42.143v-84.287
	C279.282,212.857,298.152,231.726,298.152,255z"/>
<path style="fill:#2AD827;" d="M274.138,259.662c-0.732-1.531-1.772-2.845-3.119-3.941c-1.348-1.097-2.993-2.01-4.935-2.742
	c-1.927-0.725-4.069-1.405-6.422-2.041v-12.077c0.302,0.061,0.604,0.126,0.905,0.203c1.415,0.366,2.73,0.812,3.941,1.337
	c1.21,0.526,2.238,1.062,3.084,1.611c0.845,0.548,1.428,0.983,1.748,1.302l4.181-7.677c-2.149-1.462-4.661-2.73-7.54-3.804
	c-1.976-0.737-4.085-1.215-6.319-1.446v-4.729h-7.307v4.908c-0.945,0.161-1.865,0.375-2.755,0.65
	c-2.148,0.663-4.033,1.634-5.655,2.913c-1.623,1.28-2.89,2.879-3.804,4.798c-0.915,1.919-1.371,4.113-1.371,6.58
	c0,1.874,0.285,3.485,0.857,4.832c0.571,1.348,1.428,2.536,2.57,3.564c1.141,1.028,2.57,1.919,4.284,2.673
	c1.665,0.733,3.627,1.41,5.874,2.035v12.092c-0.164-0.038-0.33-0.068-0.493-0.11c-1.782-0.456-3.404-1.016-4.867-1.679
	c-1.463-0.662-2.731-1.325-3.804-1.988c-1.074-0.662-1.816-1.199-2.228-1.611l-4.181,8.157c2.833,2.011,6.032,3.564,9.596,4.661
	c1.978,0.609,3.971,1.042,5.977,1.313v4.896h7.307v-4.673c1.497-0.12,2.956-0.339,4.366-0.68c2.17-0.525,4.089-1.359,5.757-2.502
	c1.668-1.142,2.992-2.639,3.975-4.49c0.983-1.851,1.474-4.078,1.474-6.683C275.234,263.078,274.868,261.194,274.138,259.662z
	 M251.313,248.25c-0.915-0.503-1.611-1.085-2.091-1.748c-0.48-0.662-0.72-1.496-0.72-2.502c0-1.736,0.64-3.084,1.919-4.044
	c0.529-0.397,1.178-0.707,1.933-0.939v9.735C251.983,248.589,251.628,248.423,251.313,248.25z M259.662,271.144v-10.338
	c0.759,0.279,1.454,0.57,2.07,0.878c1.097,0.548,1.942,1.189,2.536,1.919c0.594,0.731,0.891,1.622,0.891,2.673
	C265.159,269.072,263.321,270.692,259.662,271.144z"/>
<path style="fill:#00AD00;" d="M274.137,259.661c-0.732-1.528-1.77-2.845-3.119-3.94c-1.349-1.096-2.992-2.012-4.936-2.739
	c-1.928-0.727-4.067-1.407-6.422-2.044v-12.074c0.306,0.058,0.606,0.126,0.906,0.2c1.417,0.369,2.729,0.811,3.94,1.338
	c1.212,0.527,2.239,1.064,3.087,1.612c0.843,0.548,1.428,0.98,1.744,1.301l4.183-7.675c-2.149-1.464-4.662-2.734-7.539-3.803
	c-1.975-0.738-4.088-1.217-6.322-1.449v-4.731h-3.651v58.685h3.651v-4.673c1.496-0.116,2.955-0.337,4.367-0.68
	c2.17-0.521,4.088-1.359,5.758-2.502c1.665-1.138,2.992-2.639,3.977-4.488c0.98-1.849,1.47-4.077,1.47-6.68
	C275.233,263.08,274.869,261.194,274.137,259.661z M259.661,271.146v-10.341c0.759,0.279,1.454,0.569,2.07,0.88
	c1.096,0.548,1.944,1.191,2.534,1.918c0.595,0.732,0.896,1.622,0.896,2.676C265.16,269.07,263.322,270.693,259.661,271.146z"/>
<circle style="fill:#D4F4CA;" cx="190.86" cy="255" r="11.194"/>
<circle style="fill:#9EE98F;" cx="321.15" cy="255" r="11.194"/>
<path style="fill:#FFDBA9;" d="M125.805,412.693l39.778-18.619c7.875-3.686,9.365-4.489,23.814-0.018
	c11.519,3.565,23.708-1.762,34.208-6.676l57.074-26.715c8.483-3.971,12.495-13.31,8.961-20.861l0,0
	c-3.534-7.55-13.276-10.452-21.759-6.481l-53.246,24.923c-1.016,0.476-2.162,0.558-3.167,0.227l-52.18-17.158
	c-1.005-0.331-2.151-0.248-3.167,0.227l-52.185,24.426L125.805,412.693z"/>
<path style="fill:#FFC473;" d="M206.709,340.584c0,0-35.693-11.864-38.259-12.723c-4.007-1.342-8.863-3.552-13.77-1.255
	c-2.272,1.064-56.739,26.558-56.739,26.558l9.335,19.944l51.696-24.197l26.547,8.89c0.055,0.018,12.801,4.278,12.801,4.278
	c6.017,2.015,14.073-0.756,16.38-6.667l0,0C217.007,349.5,212.726,342.599,206.709,340.584z"/>
<polygon style="fill:#00F8FE;" points="142.513,410.425 110.86,425.24 76.333,351.476 76.333,351.475 107.986,336.66 "/>
<rect x="98.892" y="371.398" transform="matrix(0.9057 -0.4239 0.4239 0.9057 -156.7937 86.6457)" style="fill:#00B7BE;" width="34.949" height="48.735"/>
<path style="fill:#FFDBA9;" d="M386.195,97.307l-39.778,18.619c-7.875,3.686-9.365,4.489-23.814,0.018
	c-11.519-3.564-23.708,1.762-34.208,6.676l-57.074,26.715c-8.483,3.971-12.495,13.311-8.961,20.861l0,0
	c3.534,7.55,13.276,10.452,21.759,6.481l53.246-24.923c1.016-0.476,2.162-0.558,3.167-0.227l52.18,17.158
	c1.005,0.331,2.151,0.248,3.167-0.227l52.185-24.426L386.195,97.307z"/>
<path style="fill:#FFC473;" d="M305.291,169.416c0,0,35.693,11.864,38.259,12.723c4.007,1.342,8.863,3.552,13.77,1.255
	c2.272-1.063,56.739-26.558,56.739-26.558l-9.335-19.944l-51.696,24.197l-26.547-8.89c-0.055-0.019-12.801-4.278-12.801-4.278
	c-6.017-2.015-14.073,0.756-16.38,6.667l0,0C294.993,160.499,299.274,167.402,305.291,169.416z"/>
<polygon style="fill:#AB3CCC;" points="369.487,99.575 401.14,84.76 435.667,158.524 435.666,158.525 404.014,173.34 "/>
<rect x="378.166" y="89.884" transform="matrix(-0.9057 0.4239 -0.4239 -0.9057 802.4066 50.016)" style="fill:#CA80DE;" width="34.949" height="48.735"/>
<g>
</g>
<g>
</g>
<g>
</g>
<g>
</g>
<g>
</g>
<g>
</g>
<g>
</g>
<g>
</g>
<g>
</g>
<g>
</g>
<g>
</g>
<g>
</g>
<g>
</g>
<g>
</g>
<g>
</g>
</svg>
