<svg clip-rule="evenodd" fill-rule="evenodd" height="512" image-rendering="optimizeQuality" shape-rendering="geometricPrecision" text-rendering="geometricPrecision" viewBox="0 0 512 512" width="512" xmlns="http://www.w3.org/2000/svg" xmlns:xodm="http://www.corel.com/coreldraw/odm/2003"><g id="Layer_x0020_1"><g id="_2346610605648"><g><path d="m295.25 440.91c-1.15 0-2.27-.02-3.39-.08-10.58-.51-64.93-4.11-96.86-24.9-6.9-4.41-25.7-7.28-45.64-6.96-21.02.34-39.15 4.08-46.19 9.53-2.62 2.03-6.39 1.55-8.42-1.07s-1.55-6.39 1.07-8.42c-3.02 1.37-.42-122.54-1.79-125.56-1.36-3.01-.02-6.57 3-7.93 28.35-12.81 81.7-18.75 129.73-14.44 34.18 3.06 94.32 13.92 113.1 52.15 2.3 4.78 2.39 11.42 1.97 16.29 18.26-10.56 45.14-24.68 71.1-35.3 49.04-20.07 78.91-21.91 91.31-5.64 8.59 11.2 12.64 27.58-1.79 39.95-.04.03-.08.07-.13.11-52.29 42.28-147.83 112.27-207.07 112.27z" fill="#fdd7ad"/><path d="m341.99 323.2c.09 2.23 0 4.41-.16 6.32-16.25 4.96-55.88 13.05-104.34-5.73-1.54-.6-2.3-2.33-1.71-3.87.6-1.54 2.33-2.31 3.87-1.71 49.07 19.01 88.45 9.57 102.34 4.99z" fill="#e4c29c"/><path d="m99.5 453.77h-93.5c-3.31 0-6-2.69-6-6v-194.93c0-3.31 2.69-6 6-6h93.5c3.31 0 6 2.69 6 6v194.93c0 3.31-2.69 6-6 6z" fill="#9a59de"/><path d="m0 381.8v-63h105.5v63z" fill="#7d48b4"/></g><path d="m353.43 225.43c-3.31 0-6-2.69-6-6v-127.51c0-3.31 2.69-6 6-6s6 2.69 6 6v127.51c0 3.31-2.69 6-6 6z" fill="#ef6b86"/><path d="m353.43 225.43c-1.59 0-3.11-.63-4.24-1.76l-35.79-35.79c-2.34-2.34-2.34-6.14 0-8.48s6.14-2.34 8.48 0l31.55 31.55 31.55-31.55c2.34-2.34 6.14-2.34 8.48 0s2.34 6.14 0 8.48l-35.79 35.79c-1.12 1.13-2.65 1.76-4.24 1.76z" fill="#ef6b86"/><g><path d="m201.77 228.24c-46.87 0-85-38.14-85-85 0-46.87 38.13-85 85-85s85 38.13 85 85c0 46.86-38.13 85-85 85z" fill="#ffc81c"/><path d="m201.77 68.64c-41.13 0-74.59 33.46-74.59 74.6 0 41.13 33.46 74.59 74.59 74.59s74.6-33.46 74.6-74.59c0-41.14-33.47-74.6-74.6-74.6z" fill="#fea819"/><path d="m201.77 209.54c-2.87 0-5.2-2.34-5.2-5.21v-11.22c-12.84-2.45-22.58-13.75-22.58-27.3 0-2.87 2.33-5.2 5.2-5.2 2.88 0 5.21 2.33 5.21 5.2 0 9.58 7.79 17.38 17.37 17.38 9.58 0 17.38-7.79 17.38-17.38 0-9.58-7.8-17.37-17.38-17.37-15.32 0-27.78-12.47-27.78-27.78 0-13.55 9.74-24.85 22.58-27.3v-11.22c0-2.88 2.33-5.21 5.2-5.21 2.88 0 5.21 2.33 5.21 5.21v11.22c12.84 2.45 22.58 13.75 22.58 27.3 0 2.87-2.34 5.2-5.21 5.2s-5.2-2.33-5.2-5.2c0-9.57-7.78-17.36-17.34-17.38h-.04-.03c-9.57.02-17.34 7.81-17.34 17.38 0 9.58 7.79 17.37 17.37 17.37 15.32 0 27.79 12.47 27.79 27.78 0 13.55-9.74 24.85-22.58 27.3v11.22c0 2.87-2.33 5.21-5.21 5.21z" fill="#a05822"/><path d="m201.77 217.83c41.13 0 74.6-33.46 74.6-74.59 0-25.59-12.95-48.2-32.63-61.65 15.51 13.68 25.31 33.7 25.31 55.95 0 41.13-33.47 74.6-74.6 74.6-15.55 0-30-4.79-41.96-12.96 13.15 11.6 30.41 18.65 49.28 18.65z" fill="#f07b16"/></g></g></g></svg>