<?xml version="1.0" encoding="UTF-8"?>
<!DOCTYPE svg PUBLIC "-//W3C//DTD SVG 1.1//EN" "http://www.w3.org/Graphics/SVG/1.1/DTD/svg11.dtd">
<!-- Creator: CorelDRAW 2020 (64 Bit) -->
<svg xmlns="http://www.w3.org/2000/svg" xml:space="preserve" width="100px" height="100px" version="1.1" style="shape-rendering:geometricPrecision; text-rendering:geometricPrecision; image-rendering:optimizeQuality; fill-rule:evenodd; clip-rule:evenodd"
viewBox="0 0 100 100"
 xmlns:xlink="http://www.w3.org/1999/xlink"
 xmlns:xodm="http://www.corel.com/coreldraw/odm/2003">
 <defs>
  <style type="text/css">
   <![CDATA[
    .fil0 {fill:#757575}
   ]]>
  </style>
 </defs>
 <g id="Camada_x0020_1">
  <metadata id="CorelCorpID_0Corel-Layer"/>
  <g id="_3050952233168">
   <path class="fil0" d="M46.713 8.621l0 7.154 6.574 0 0 -7.154c6.352,0 16.579,4.023 21.509,8.075 3.249,2.67 2.208,1.653 5.321,4.734 6.768,6.703 11.456,17.94 11.456,28.183l-7.542 0 0 6.381 7.155 0c-0.526,1.096 -0.375,5.354 -4.574,13.603 -3.137,6.165 -7.577,10.45 -12.937,14.519 -4.677,3.551 -14.436,7.263 -20.388,7.263l0 -7.154 -6.574 0 0 7.154c-4.38,0 -11.342,-2.272 -14.375,-3.801 -1.004,-0.506 -2.012,-0.931 -2.948,-1.499 -0.919,-0.557 -2.016,-1.183 -2.845,-1.795 -7.658,-5.657 -12.646,-11.728 -15.872,-20.867 -0.758,-2.15 -1.783,-7.264 -1.859,-7.423l7.541 0 0 -6.381 -7.928 0c0,-6.302 1.649,-11.693 3.508,-16.215 2.62,-6.373 7.759,-12.594 13.146,-16.631 4.641,-3.477 7.954,-4.805 13.147,-6.576 1.793,-0.611 6.219,-1.57 8.485,-1.57zm52.787 39.919l0 4.03c-0.265,5.975 -1.736,11.706 -4.585,18.368 -1.669,3.903 -4.406,7.683 -7.042,10.941l-2.824 3.17c-3.5,3.499 -9.909,8.123 -14.248,9.922 -2.82,1.169 -5.698,2.468 -8.86,3.128 -3.759,0.786 -7.193,1.261 -10.481,1.401l-4.03 0c-5.975,-0.265 -11.706,-1.736 -18.368,-4.585 -1.38,-0.59 -2.649,-1.325 -3.923,-2.071 -1.363,-0.797 -2.356,-1.508 -3.64,-2.355l-6.548 -5.44 -5.516 -6.665c-6.495,-9.718 -8.935,-17.787 -8.935,-29.737 0,-12.036 5.232,-23.624 13.102,-32.145 0.535,-0.58 0.749,-0.951 1.349,-1.551 5.828,-5.828 15.133,-11.384 23.108,-13.05 5.987,-1.251 7.035,-1.401 13.294,-1.401 12.036,0 23.624,5.232 32.145,13.102 2.619,2.419 5.072,5.028 7.067,8.014 3.257,4.873 6.295,10.512 7.534,16.443 0.786,3.759 1.261,7.193 1.401,10.481z"/>
   <path class="fil0" d="M46.133 26.603l0 28.231c0,2.737 1.427,3.502 3.228,4.506l10.125 5.731c1.917,1.103 3.838,2.525 5.983,2.525 1.928,0 6.012,-4.022 0.665,-7.24l-10.517 -5.918c-0.524,-0.302 -1.536,-0.99 -2.136,-1.151l0 -25.91c0.001,-1.894 0.196,-2.44 -0.581,-3.674 -1.529,-2.423 -6.767,-2.425 -6.767,2.9z"/>
  </g>
 </g>
</svg>
