<?xml version="1.0" encoding="UTF-8"?>
<!DOCTYPE svg PUBLIC "-//W3C//DTD SVG 1.1//EN" "http://www.w3.org/Graphics/SVG/1.1/DTD/svg11.dtd">
<!-- Creator: CorelDRAW 2018 (64 Bit Versão de avaliação) -->
<svg xmlns="http://www.w3.org/2000/svg" xml:space="preserve" width="42.1875mm" height="18.1957mm" version="1.1" style="shape-rendering:geometricPrecision; text-rendering:geometricPrecision; image-rendering:optimizeQuality; fill-rule:evenodd; clip-rule:evenodd"
viewBox="0 0 642.82 277.25"
 xmlns:xlink="http://www.w3.org/1999/xlink">
 <defs>
  <style type="text/css">
   <![CDATA[
    .fil1 {fill:white;fill-rule:nonzero}
    .fil0 {fill:white;fill-rule:nonzero}
   ]]>
  </style>
 </defs>
 <g id="Camada_x0020_1">
  <metadata id="CorelCorpID_0Corel-Layer"/>
  <g id="_1534316883104">
   <g>
    <path class="fil0" d="M631.04 67.66l0 19.08 10.29 0 0 19.26 -10.29 0 0 64.81c0,7.95 0.44,12.41 1.28,13.31 0.84,0.91 4.33,1.37 10.5,1.37l0 19.45 -14.93 0c-8.42,0 -14.43,-0.34 -18.05,-1.06 -3.58,-0.68 -6.76,-2.31 -9.51,-4.83 -2.74,-2.53 -4.46,-5.39 -5.14,-8.67 -0.66,-3.24 -1,-10.88 -1,-22.91l0 -61.47 -7.85 0 0 -19.26 7.85 0 0 -19.08 36.85 0z"/>
    <path class="fil0" d="M579.67 122.46l-32.54 0 0 -6.58c0,-5.61 -0.31,-9.13 -0.97,-10.63 -0.62,-1.5 -2.24,-2.24 -4.8,-2.24 -2.06,0 -3.62,0.69 -4.64,2.06 -1.03,1.37 -1.56,3.43 -1.56,6.17 0,3.71 0.25,6.45 0.78,8.17 0.5,1.74 2.06,3.65 4.64,5.7 2.56,2.09 7.85,5.11 15.87,9.07 10.69,5.24 17.68,10.16 21.01,14.81 3.33,4.61 5.02,11.35 5.02,20.17 0,9.88 -1.28,17.33 -3.83,22.35 -2.56,5.02 -6.83,8.92 -12.81,11.63 -6.02,2.71 -13.22,4.05 -21.7,4.05 -9.35,0 -17.39,-1.47 -24.03,-4.36 -6.67,-2.93 -11.25,-6.89 -13.75,-11.88 -2.49,-4.99 -3.74,-12.53 -3.74,-22.63l0 -5.83 32.73 0 0 7.64c0,6.48 0.41,10.69 1.21,12.66 0.84,1.93 2.46,2.9 4.86,2.9 2.62,0 4.43,-0.65 5.45,-1.96 1.03,-1.31 1.56,-4.08 1.56,-8.26 0,-5.8 -0.65,-9.41 -1.99,-10.88 -1.4,-1.46 -8.54,-5.8 -21.42,-13 -10.82,-6.08 -17.43,-11.6 -19.79,-16.58 -2.37,-4.96 -3.55,-10.85 -3.55,-17.68 0,-9.7 1.28,-16.83 3.84,-21.41 2.56,-4.61 6.89,-8.17 13,-10.66 6.11,-2.49 13.22,-3.74 21.29,-3.74 8.04,0 14.87,1.03 20.48,3.06 5.64,2.06 9.94,4.74 12.97,8.1 2.99,3.34 4.83,6.45 5.45,9.32 0.66,2.87 0.97,7.36 0.97,13.43l0 7.04z"/>
    <path class="fil0" d="M455.45 126.76l0 -8.85c0,-6.3 -0.34,-10.32 -1.03,-12.16 -0.68,-1.84 -2.09,-2.74 -4.21,-2.74 -2.62,0 -4.24,0.78 -4.86,2.34 -0.62,1.56 -0.94,5.74 -0.94,12.56l0 8.85 11.04 0zm36.84 19.64l-47.88 0 0 26.28c0,5.49 0.41,9.04 1.19,10.63 0.81,1.59 2.34,2.37 4.61,2.37 2.84,0 4.74,-1.06 5.67,-3.15 0.97,-2.12 1.43,-6.2 1.43,-12.25l0 -16.02 34.97 0 0 8.98c0,7.51 -0.47,13.28 -1.4,17.3 -0.97,4.02 -3.18,8.32 -6.64,12.9 -3.46,4.58 -7.89,8.01 -13.22,10.32 -5.33,2.27 -12,3.43 -20.04,3.43 -7.79,0 -14.68,-1.12 -20.67,-3.4 -5.95,-2.24 -10.6,-5.33 -13.93,-9.26 -3.34,-3.93 -5.61,-8.26 -6.89,-13 -1.28,-4.71 -1.93,-11.56 -1.93,-20.6l0 -35.38c0,-10.6 1.43,-18.95 4.3,-25.09 2.87,-6.11 7.54,-10.82 14.06,-14.06 6.55,-3.27 14.03,-4.89 22.51,-4.89 10.35,0 18.89,1.96 25.62,5.89 6.73,3.93 11.47,9.13 14.18,15.62 2.71,6.45 4.05,15.59 4.05,27.34l0 16.05z"/>
    <path class="fil0" d="M345.07 138.17l0 41.52c5.3,-0.19 8.7,-1.03 10.16,-2.56 1.46,-1.53 2.18,-5.3 2.18,-11.28l0 -13.84c0,-6.36 -0.65,-10.19 -1.96,-11.56 -1.31,-1.34 -4.77,-2.09 -10.38,-2.28zm0 -55.92l0 32.92c1.62,-0.06 2.87,-0.09 3.77,-0.09 3.68,0 6.05,-0.94 7.04,-2.77 1.03,-1.87 1.53,-7.2 1.53,-15.96 0,-4.64 -0.41,-7.89 -1.25,-9.76 -0.84,-1.84 -1.93,-3.02 -3.27,-3.52 -1.34,-0.47 -3.96,-0.75 -7.82,-0.81zm-38.53 -25.25l38.28 0c12.1,0 21.26,0.94 27.49,2.84 6.23,1.87 11.25,5.7 15.09,11.44 3.83,5.77 5.74,15.03 5.74,27.81 0,8.63 -1.34,14.65 -4.05,18.05 -2.71,3.43 -8.07,6.02 -16.05,7.86 8.92,2.03 14.96,5.36 18.14,10.01 3.18,4.67 4.77,11.81 4.77,21.48l0 13.72c0,10.01 -1.15,17.39 -3.43,22.23 -2.27,4.8 -5.89,8.1 -10.88,9.88 -4.99,1.78 -15.21,2.65 -30.67,2.65l-44.42 0 0 -147.94z"/>
    <path class="fil0" d="M287.16 67.66l0 19.08 10.29 0 0 19.26 -10.29 0 0 64.81c0,7.95 0.44,12.41 1.28,13.31 0.84,0.91 4.33,1.37 10.51,1.37l0 19.45 -14.93 0c-8.42,0 -14.43,-0.34 -18.05,-1.06 -3.59,-0.68 -6.76,-2.31 -9.51,-4.83 -2.74,-2.53 -4.46,-5.39 -5.14,-8.67 -0.66,-3.24 -1,-10.88 -1,-22.91l0 -61.47 -7.85 0 0 -19.26 7.85 0 0 -19.08 36.85 0z"/>
    <path class="fil0" d="M241.52 57l0 18.7c-7.7,0 -12.25,0.34 -13.62,1.06 -1.4,0.72 -2.09,2.74 -2.09,6.08l0 3.9 15.71 0 0 19.26 -8.98 0 0 98.94 -36.85 0 0 -98.94 -7.48 0 0 -19.26 7.48 0c0,-8.01 0.28,-13.37 0.81,-16.05 0.56,-2.71 1.93,-5.11 4.08,-7.2 2.18,-2.12 5.21,-3.74 9.13,-4.83 3.89,-1.09 9.97,-1.65 18.23,-1.65l13.56 0z"/>
    <path class="fil0" d="M145.35 117.16c0,-6.2 -0.34,-10.13 -1,-11.72 -0.69,-1.62 -2.12,-2.43 -4.33,-2.43 -2.21,0 -3.68,0.81 -4.43,2.43 -0.72,1.59 -1.09,5.52 -1.09,11.72l0 54.71c0,5.74 0.37,9.48 1.09,11.19 0.75,1.75 2.18,2.62 4.33,2.62 2.21,0 3.65,-0.78 4.36,-2.37 0.72,-1.59 1.06,-4.99 1.06,-10.23l0 -55.92zm36.85 9.13l0 29.71c0,10.91 -0.56,18.89 -1.65,24 -1.09,5.08 -3.43,9.82 -7.01,14.25 -3.59,4.43 -8.2,7.67 -13.84,9.79 -5.64,2.09 -12.1,3.15 -19.39,3.15 -8.17,0 -15.09,-0.9 -20.73,-2.68 -5.67,-1.81 -10.07,-4.52 -13.19,-8.14 -3.15,-3.65 -5.39,-8.04 -6.73,-13.19 -1.34,-5.14 -1.99,-12.87 -1.99,-23.16l0 -31.08c0,-11.28 1.21,-20.08 3.65,-26.43 2.43,-6.33 6.83,-11.41 13.15,-15.24 6.33,-3.83 14.43,-5.77 24.28,-5.77 8.26,0 15.37,1.25 21.32,3.71 5.92,2.46 10.5,5.67 13.75,9.63 3.21,3.96 5.42,8.04 6.61,12.25 1.18,4.21 1.78,10.6 1.78,19.2z"/>
    <path class="fil0" d="M66.86 122.42c6.88,5.06 11.61,9.49 14.19,13.29 4.46,6.51 6.67,17.02 6.67,31.48 0,10.54 -1.25,18.3 -3.71,23.32 -2.46,4.99 -7.2,9.17 -14.28,12.53 -7.04,3.4 -15.24,5.08 -24.63,5.08 -10.29,0 -19.05,-1.96 -26.34,-5.86 -7.26,-3.9 -12,-8.85 -14.28,-14.87 -2.24,-6.05 -3.37,-14.62 -3.37,-25.69l0 -9.69 35.72 0 0 17.99c0,5.55 0.5,9.1 1.5,10.69 1,1.59 2.77,2.37 5.33,2.37 2.56,0 4.46,-1 5.7,-3.02 1.25,-1.99 1.87,-4.99 1.87,-8.91 0,-8.7 -1.18,-14.4 -3.55,-17.05 -1.29,-1.4 -3.55,-3.31 -6.78,-5.71l25.94 -25.94z"/>
    <path class="fil0" d="M84.54 101.89l-35.72 0 0 -10.94c0,-5.11 -0.47,-8.39 -1.37,-9.79 -0.91,-1.4 -2.4,-2.09 -4.52,-2.09 -2.31,0 -4.05,0.93 -5.24,2.84 -1.19,1.87 -1.78,4.71 -1.78,8.54 0,4.92 0.69,8.63 2.03,11.13 1.31,2.46 4.92,5.49 10.88,9.04 2.86,1.71 5.55,3.37 8.06,4.98l-25.87 25.87 -1.3 -0.86c-9.54,-6.33 -15.83,-10.94 -18.95,-13.81 -3.09,-2.87 -5.67,-6.83 -7.7,-11.88 -2.03,-5.05 -3.06,-11.5 -3.06,-19.36 0,-11.32 1.43,-19.61 4.33,-24.84 2.9,-5.24 7.54,-9.32 14,-12.28 6.45,-2.96 14.21,-4.43 23.35,-4.43 9.97,0 18.45,1.62 25.5,4.83 7.01,3.24 11.66,7.29 13.93,12.22 2.27,4.89 3.43,13.22 3.43,24.97l0 5.86z"/>
    <path class="fil0" d="M39.63 264.56l-4.4 0 0 -25.34c0,-2 0.12,-4.45 0.37,-7.35l-0.11 0c-0.42,1.71 -0.8,2.92 -1.13,3.66l-12.9 29.03 -2.17 0 -12.88 -28.82c-0.37,-0.85 -0.75,-2.13 -1.13,-3.87l-0.11 0c0.14,1.51 0.21,3.98 0.21,7.4l0 25.29 -4.26 0 0 -37.77 5.85 0 11.59 26.33c0.9,2.02 1.47,3.53 1.74,4.53l0.15 0c0.76,-2.07 1.37,-3.61 1.82,-4.63l11.83 -26.24 5.53 0 0 37.77zm43.45 0l-4.33 0 0 -4.22 -0.1 0c-1.88,3.24 -4.65,4.85 -8.3,4.85 -2.69,0 -4.79,-0.71 -6.31,-2.13 -1.52,-1.42 -2.27,-3.31 -2.27,-5.67 0,-5.03 2.97,-7.98 8.9,-8.79l8.08 -1.13c0,-4.59 -1.85,-6.88 -5.56,-6.88 -3.25,0 -6.18,1.11 -8.79,3.32l0 -4.42c2.65,-1.69 5.7,-2.53 9.16,-2.53 6.34,0 9.51,3.35 9.51,10.06l0 17.54zm-4.33 -13.65l-6.5 0.9c-2.01,0.28 -3.52,0.77 -4.53,1.49 -1.02,0.71 -1.53,1.97 -1.53,3.78 0,1.31 0.47,2.39 1.41,3.23 0.94,0.84 2.19,1.25 3.75,1.25 2.14,0 3.91,-0.76 5.31,-2.25 1.4,-1.5 2.09,-3.41 2.09,-5.71l0 -2.69zm41.32 -8.96c-0.76,-0.57 -1.84,-0.86 -3.26,-0.86 -1.85,0 -3.39,0.86 -4.63,2.61 -1.23,1.74 -1.85,4.11 -1.85,7.11l0 13.75 -4.32 0 0 -26.97 4.32 0 0 5.56 0.11 0c0.61,-1.9 1.55,-3.37 2.81,-4.44 1.27,-1.06 2.68,-1.59 4.24,-1.59 1.12,0 1.98,0.12 2.58,0.37l0 4.48zm41.86 22.6l-6.06 0 -11.9 -12.96 -0.11 0 0 12.96 -4.32 0 0 -39.93 4.32 0 0 25.31 0.11 0 11.32 -12.35 5.67 0 -12.51 13.01 13.49 13.96zm39.8 -12.41l-19.04 0c0.07,3 0.88,5.32 2.43,6.96 1.55,1.63 3.67,2.45 6.38,2.45 3.04,0 5.83,-1 8.38,-3l0 4.06c-2.37,1.72 -5.51,2.58 -9.4,2.58 -3.81,0 -6.81,-1.22 -8.98,-3.67 -2.19,-2.45 -3.27,-5.9 -3.27,-10.34 0,-4.2 1.2,-7.62 3.57,-10.26 2.38,-2.64 5.34,-3.97 8.87,-3.97 3.53,0 6.26,1.14 8.19,3.43 1.93,2.27 2.9,5.45 2.9,9.5l0 2.27zm-4.42 -3.66c-0.02,-2.49 -0.62,-4.43 -1.8,-5.83 -1.19,-1.38 -2.83,-2.08 -4.94,-2.08 -2.03,0 -3.77,0.73 -5.19,2.19 -1.42,1.46 -2.3,3.36 -2.63,5.72l14.57 0zm38.26 15.81c-1.02,0.56 -2.36,0.84 -4.03,0.84 -4.73,0 -7.09,-2.63 -7.09,-7.9l0 -15.96 -4.64 0 0 -3.69 4.64 0 0 -6.58 4.32 -1.4 0 7.98 6.8 0 0 3.69 -6.8 0 0 15.2c0,1.81 0.3,3.09 0.93,3.87 0.61,0.77 1.63,1.16 3.06,1.16 1.09,0 2.02,-0.3 2.81,-0.9l0 3.7zm22.76 -33.56c-0.76,0 -1.43,-0.26 -1.97,-0.79 -0.55,-0.52 -0.82,-1.19 -0.82,-2 0,-0.81 0.27,-1.48 0.82,-2.01 0.54,-0.54 1.21,-0.81 1.97,-0.81 0.79,0 1.47,0.27 2.02,0.81 0.55,0.53 0.83,1.21 0.83,2.01 0,0.77 -0.28,1.43 -0.83,1.97 -0.56,0.55 -1.23,0.82 -2.02,0.82zm2.11 33.83l-4.32 0 0 -26.97 4.32 0 0 26.97zm45.92 0l-4.33 0 0 -15.38c0,-5.73 -2.09,-8.59 -6.27,-8.59 -2.16,0 -3.95,0.81 -5.36,2.44 -1.42,1.63 -2.12,3.68 -2.12,6.15l0 15.38 -4.32 0 0 -26.97 4.32 0 0 4.48 0.11 0c2.03,-3.41 4.98,-5.11 8.85,-5.11 2.95,0 5.21,0.95 6.77,2.86 1.56,1.9 2.35,4.66 2.35,8.25l0 16.49zm45.95 -2.16c0,9.9 -4.74,14.85 -14.22,14.85 -3.34,0 -6.25,-0.63 -8.75,-1.9l0 -4.32c3.04,1.68 5.93,2.53 8.69,2.53 6.64,0 9.95,-3.53 9.95,-10.59l0 -2.95 -0.1 0c-2.06,3.44 -5.15,5.16 -9.28,5.16 -3.35,0 -6.05,-1.2 -8.09,-3.6 -2.05,-2.39 -3.07,-5.61 -3.07,-9.65 0,-4.58 1.11,-8.23 3.31,-10.93 2.2,-2.71 5.22,-4.06 9.04,-4.06 3.64,0 6.33,1.46 8.09,4.37l0.1 0 0 -3.74 4.32 0 0 24.82zm-4.32 -10.04l0 -3.98c0,-2.14 -0.72,-3.97 -2.17,-5.5 -1.45,-1.53 -3.25,-2.29 -5.41,-2.29 -2.67,0 -4.76,0.97 -6.28,2.91 -1.51,1.94 -2.27,4.66 -2.27,8.15 0,3 0.73,5.4 2.18,7.21 1.45,1.8 3.37,2.7 5.76,2.7 2.43,0 4.4,-0.86 5.92,-2.58 1.52,-1.73 2.27,-3.93 2.27,-6.61zm60.95 12.19l0 -37.77 10.43 0c13.31,0 19.97,6.13 19.97,18.41 0,5.83 -1.85,10.51 -5.55,14.05 -3.7,3.53 -8.64,5.3 -14.84,5.3l-10.01 0zm4.42 -33.77l0 29.77 5.64 0c4.96,0 8.8,-1.33 11.56,-3.98 2.76,-2.65 4.14,-6.41 4.14,-11.28 0,-9.67 -5.14,-14.51 -15.44,-14.51l-5.9 0zm49.81 -0.05c-0.76,0 -1.43,-0.26 -1.97,-0.79 -0.55,-0.52 -0.82,-1.19 -0.82,-2 0,-0.81 0.27,-1.48 0.82,-2.01 0.54,-0.54 1.21,-0.81 1.97,-0.81 0.79,0 1.47,0.27 2.02,0.81 0.55,0.53 0.83,1.21 0.83,2.01 0,0.77 -0.28,1.43 -0.83,1.97 -0.56,0.55 -1.23,0.82 -2.02,0.82zm2.11 33.83l-4.32 0 0 -26.97 4.32 0 0 26.97zm46.55 -2.16c0,9.9 -4.74,14.85 -14.22,14.85 -3.34,0 -6.25,-0.63 -8.75,-1.9l0 -4.32c3.04,1.68 5.93,2.53 8.69,2.53 6.64,0 9.95,-3.53 9.95,-10.59l0 -2.95 -0.1 0c-2.06,3.44 -5.15,5.16 -9.28,5.16 -3.35,0 -6.05,-1.2 -8.09,-3.6 -2.05,-2.39 -3.07,-5.61 -3.07,-9.65 0,-4.58 1.11,-8.23 3.31,-10.93 2.2,-2.71 5.22,-4.06 9.04,-4.06 3.64,0 6.33,1.46 8.09,4.37l0.1 0 0 -3.74 4.32 0 0 24.82zm-4.32 -10.04l0 -3.98c0,-2.14 -0.72,-3.97 -2.17,-5.5 -1.45,-1.53 -3.25,-2.29 -5.41,-2.29 -2.67,0 -4.76,0.97 -6.28,2.91 -1.51,1.94 -2.27,4.66 -2.27,8.15 0,3 0.73,5.4 2.18,7.21 1.45,1.8 3.37,2.7 5.76,2.7 2.43,0 4.4,-0.86 5.92,-2.58 1.52,-1.73 2.27,-3.93 2.27,-6.61zm30.06 -21.63c-0.76,0 -1.43,-0.26 -1.97,-0.79 -0.55,-0.52 -0.82,-1.19 -0.82,-2 0,-0.81 0.27,-1.48 0.82,-2.01 0.54,-0.54 1.21,-0.81 1.97,-0.81 0.79,0 1.47,0.27 2.02,0.81 0.55,0.53 0.83,1.21 0.83,2.01 0,0.77 -0.28,1.43 -0.83,1.97 -0.56,0.55 -1.23,0.82 -2.02,0.82zm2.11 33.83l-4.32 0 0 -26.97 4.32 0 0 26.97zm36.04 -0.26c-1.02,0.56 -2.36,0.84 -4.03,0.84 -4.73,0 -7.09,-2.63 -7.09,-7.9l0 -15.96 -4.64 0 0 -3.69 4.64 0 0 -6.58 4.32 -1.4 0 7.98 6.8 0 0 3.69 -6.8 0 0 15.2c0,1.81 0.3,3.09 0.93,3.87 0.61,0.77 1.63,1.16 3.06,1.16 1.09,0 2.02,-0.3 2.81,-0.9l0 3.7zm39.86 0.26l-4.33 0 0 -4.22 -0.1 0c-1.88,3.24 -4.65,4.85 -8.3,4.85 -2.69,0 -4.79,-0.71 -6.31,-2.13 -1.52,-1.42 -2.27,-3.31 -2.27,-5.67 0,-5.03 2.97,-7.98 8.9,-8.79l8.08 -1.13c0,-4.59 -1.85,-6.88 -5.56,-6.88 -3.25,0 -6.18,1.11 -8.79,3.32l0 -4.42c2.65,-1.69 5.7,-2.53 9.16,-2.53 6.34,0 9.51,3.35 9.51,10.06l0 17.54zm-4.33 -13.65l-6.5 0.9c-2.01,0.28 -3.52,0.77 -4.53,1.49 -1.02,0.71 -1.53,1.97 -1.53,3.78 0,1.31 0.47,2.39 1.41,3.23 0.94,0.84 2.19,1.25 3.75,1.25 2.14,0 3.91,-0.76 5.31,-2.25 1.4,-1.5 2.09,-3.41 2.09,-5.71l0 -2.69zm31.57 13.65l-4.32 0 0 -39.93 4.32 0 0 39.93z"/>
   </g>
   <path class="fil1" d="M-0 32.21l0 -30.88 6.41 0c4.62,0 7.97,0.37 10.06,1.11 3,1.05 5.34,2.87 7.02,5.46 1.69,2.59 2.53,5.67 2.53,9.25 0,3.1 -0.67,5.81 -2.01,8.16 -1.33,2.35 -3.07,4.09 -5.2,5.21 -2.14,1.12 -5.13,1.68 -8.98,1.68l-9.83 0zm2.97 -2.92l3.56 0c4.26,0 7.2,-0.27 8.85,-0.8 2.32,-0.76 4.14,-2.11 5.47,-4.08 1.33,-1.97 1.99,-4.37 1.99,-7.21 0,-2.97 -0.72,-5.53 -2.16,-7.63 -1.43,-2.11 -3.44,-3.56 -6.01,-4.34 -1.93,-0.59 -5.1,-0.88 -9.52,-0.88l-2.18 0 0 24.94zm47.84 -4.64l2.48 1.3c-0.82,1.58 -1.76,2.87 -2.82,3.84 -1.07,0.97 -2.26,1.71 -3.6,2.22 -1.34,0.51 -2.85,0.76 -4.53,0.76 -3.74,0 -6.66,-1.22 -8.77,-3.66 -2.11,-2.44 -3.16,-5.19 -3.16,-8.26 0,-2.89 0.9,-5.47 2.68,-7.73 2.26,-2.87 5.29,-4.32 9.08,-4.32 3.91,0 7.03,1.48 9.36,4.42 1.65,2.08 2.5,4.67 2.53,7.79l-20.64 0c0.06,2.65 0.91,4.81 2.55,6.49 1.65,1.69 3.68,2.54 6.1,2.54 1.17,0 2.31,-0.2 3.41,-0.6 1.1,-0.4 2.04,-0.93 2.82,-1.6 0.77,-0.67 1.61,-1.73 2.51,-3.22zm0.03 -6.15c-0.39,-1.57 -0.97,-2.82 -1.72,-3.76 -0.76,-0.94 -1.76,-1.69 -3,-2.26 -1.24,-0.57 -2.54,-0.86 -3.91,-0.86 -2.26,0 -4.19,0.72 -5.81,2.16 -1.19,1.05 -2.08,2.62 -2.69,4.72l17.12 0zm20.16 -6.64l-1.89 1.95c-1.57,-1.52 -3.11,-2.28 -4.61,-2.28 -0.95,0 -1.77,0.32 -2.45,0.95 -0.68,0.62 -1.02,1.36 -1.02,2.2 0,0.74 0.28,1.45 0.84,2.11 0.56,0.69 1.74,1.49 3.53,2.42 2.18,1.12 3.66,2.22 4.45,3.27 0.77,1.06 1.15,2.26 1.15,3.58 0,1.88 -0.66,3.46 -1.98,4.76 -1.32,1.3 -2.97,1.95 -4.94,1.95 -1.32,0 -2.57,-0.29 -3.78,-0.86 -1.2,-0.57 -2.19,-1.36 -2.97,-2.37l1.85 -2.1c1.5,1.69 3.1,2.54 4.78,2.54 1.17,0 2.18,-0.38 3.01,-1.13 0.82,-0.75 1.24,-1.64 1.24,-2.66 0,-0.84 -0.27,-1.58 -0.82,-2.24 -0.55,-0.64 -1.78,-1.46 -3.71,-2.43 -2.06,-1.06 -3.47,-2.11 -4.21,-3.14 -0.75,-1.03 -1.12,-2.21 -1.12,-3.53 0,-1.73 0.6,-3.16 1.78,-4.31 1.19,-1.14 2.69,-1.71 4.5,-1.71 2.11,0 4.23,1.01 6.36,3.04zm24.45 12.79l2.48 1.3c-0.82,1.58 -1.76,2.87 -2.82,3.84 -1.07,0.97 -2.26,1.71 -3.6,2.22 -1.34,0.51 -2.85,0.76 -4.53,0.76 -3.74,0 -6.66,-1.22 -8.77,-3.66 -2.11,-2.44 -3.16,-5.19 -3.16,-8.26 0,-2.89 0.9,-5.47 2.68,-7.73 2.26,-2.87 5.29,-4.32 9.08,-4.32 3.91,0 7.03,1.48 9.36,4.42 1.65,2.08 2.5,4.67 2.53,7.79l-20.64 0c0.06,2.65 0.91,4.81 2.55,6.49 1.65,1.69 3.68,2.54 6.1,2.54 1.17,0 2.31,-0.2 3.41,-0.6 1.1,-0.4 2.04,-0.93 2.82,-1.6 0.77,-0.67 1.61,-1.73 2.51,-3.22zm0.03 -6.15c-0.39,-1.57 -0.97,-2.82 -1.72,-3.76 -0.76,-0.94 -1.76,-1.69 -3,-2.26 -1.24,-0.57 -2.54,-0.86 -3.91,-0.86 -2.26,0 -4.19,0.72 -5.81,2.16 -1.19,1.05 -2.08,2.62 -2.69,4.72l17.12 0zm8.64 -9.12l2.92 0 0 4.09c1.18,-1.56 2.49,-2.73 3.91,-3.5 1.43,-0.77 2.99,-1.15 4.67,-1.15 1.71,0 3.23,0.43 4.56,1.3 1.33,0.87 2.31,2.03 2.94,3.5 0.63,1.46 0.95,3.75 0.95,6.85l0 11.74 -2.92 0 0 -10.88c0,-2.62 -0.11,-4.38 -0.34,-5.26 -0.36,-1.5 -1.02,-2.64 -1.99,-3.4 -0.97,-0.76 -2.23,-1.14 -3.78,-1.14 -1.78,0 -3.38,0.59 -4.79,1.76 -1.41,1.17 -2.34,2.62 -2.79,4.36 -0.28,1.13 -0.42,3.2 -0.42,6.2l0 8.36 -2.92 0 0 -22.83zm24.07 0l3.07 0 7.69 16.67 7.63 -16.67 3.15 0 -10.45 22.83 -0.56 0 -10.54 -22.83zm36.81 -0.56c3.52,0 6.44,1.27 8.76,3.81 2.11,2.31 3.16,5.06 3.16,8.23 0,3.18 -1.11,5.96 -3.34,8.34 -2.22,2.38 -5.09,3.57 -8.58,3.57 -3.51,0 -6.39,-1.19 -8.61,-3.57 -2.23,-2.38 -3.34,-5.16 -3.34,-8.34 0,-3.15 1.05,-5.89 3.16,-8.21 2.32,-2.56 5.25,-3.84 8.79,-3.84zm-0.01 2.88c-2.44,0 -4.54,0.9 -6.29,2.7 -1.76,1.8 -2.63,3.98 -2.63,6.53 0,1.64 0.4,3.17 1.2,4.6 0.8,1.42 1.88,2.52 3.25,3.29 1.35,0.77 2.85,1.16 4.48,1.16 1.63,0 3.13,-0.39 4.48,-1.16 1.36,-0.77 2.44,-1.87 3.25,-3.29 0.8,-1.43 1.2,-2.96 1.2,-4.6 0,-2.55 -0.88,-4.73 -2.65,-6.53 -1.76,-1.8 -3.85,-2.7 -6.28,-2.7zm16.91 -11.14l2.92 0 0 31.65 -2.92 0 0 -31.65zm6.89 8.81l3.07 0 7.69 16.67 7.63 -16.67 3.15 0 -10.45 22.83 -0.56 0 -10.54 -22.83zm27.01 -9.37c0.67,0 1.23,0.24 1.71,0.72 0.47,0.47 0.71,1.05 0.71,1.72 0,0.66 -0.24,1.23 -0.71,1.71 -0.47,0.48 -1.04,0.72 -1.71,0.72 -0.66,0 -1.22,-0.24 -1.69,-0.72 -0.47,-0.47 -0.71,-1.05 -0.71,-1.71 0,-0.67 0.24,-1.25 0.71,-1.72 0.47,-0.48 1.03,-0.72 1.69,-0.72zm-1.45 9.37l2.92 0 0 22.83 -2.92 0 0 -22.83zm31.83 -8.81l0 31.65 -2.93 0 0 -3.93c-1.23,1.5 -2.61,2.62 -4.14,3.37 -1.53,0.75 -3.2,1.12 -5.02,1.12 -3.22,0 -5.98,-1.17 -8.27,-3.5 -2.29,-2.34 -3.43,-5.18 -3.43,-8.54 0,-3.28 1.15,-6.09 3.46,-8.41 2.3,-2.33 5.07,-3.5 8.32,-3.5 1.87,0 3.56,0.4 5.08,1.2 1.51,0.8 2.85,1.99 3.99,3.59l0 -13.04 2.93 0zm-11.77 11.09c-1.63,0 -3.15,0.4 -4.52,1.2 -1.38,0.8 -2.48,1.92 -3.3,3.37 -0.82,1.45 -1.23,2.98 -1.23,4.6 0,1.6 0.41,3.13 1.23,4.59 0.82,1.46 1.93,2.6 3.32,3.41 1.39,0.82 2.88,1.23 4.47,1.23 1.6,0 3.13,-0.4 4.56,-1.21 1.44,-0.81 2.54,-1.9 3.32,-3.28 0.77,-1.38 1.16,-2.93 1.16,-4.66 0,-2.63 -0.87,-4.83 -2.61,-6.6 -1.73,-1.77 -3.87,-2.65 -6.41,-2.65zm29.26 -2.84c3.52,0 6.44,1.27 8.76,3.81 2.11,2.31 3.16,5.06 3.16,8.23 0,3.18 -1.11,5.96 -3.34,8.34 -2.22,2.38 -5.09,3.57 -8.58,3.57 -3.51,0 -6.39,-1.19 -8.61,-3.57 -2.23,-2.38 -3.34,-5.16 -3.34,-8.34 0,-3.15 1.05,-5.89 3.16,-8.21 2.32,-2.56 5.25,-3.84 8.79,-3.84zm-0.01 2.88c-2.44,0 -4.54,0.9 -6.29,2.7 -1.76,1.8 -2.63,3.98 -2.63,6.53 0,1.64 0.4,3.17 1.2,4.6 0.8,1.42 1.88,2.52 3.25,3.29 1.35,0.77 2.85,1.16 4.48,1.16 1.63,0 3.13,-0.39 4.48,-1.16 1.36,-0.77 2.44,-1.87 3.25,-3.29 0.8,-1.43 1.2,-2.96 1.2,-4.6 0,-2.55 -0.88,-4.73 -2.65,-6.53 -1.76,-1.8 -3.85,-2.7 -6.28,-2.7zm29.29 -2.32l2.92 0 0 4.2c1.16,-1.6 2.49,-2.79 4.01,-3.58 1.51,-0.79 3.2,-1.18 5.06,-1.18 3.25,0 6.02,1.17 8.33,3.5 2.31,2.33 3.46,5.14 3.46,8.41 0,3.35 -1.15,6.19 -3.43,8.54 -2.29,2.34 -5.05,3.5 -8.28,3.5 -1.81,0 -3.48,-0.38 -5.01,-1.13 -1.53,-0.76 -2.9,-1.88 -4.14,-3.38l0 12.3 -2.92 0 0 -31.18zm11.78 2.28c-2.54,0 -4.68,0.88 -6.41,2.65 -1.74,1.77 -2.61,3.97 -2.61,6.6 0,1.73 0.39,3.28 1.16,4.66 0.77,1.38 1.88,2.47 3.33,3.28 1.45,0.81 2.97,1.21 4.57,1.21 1.58,0 3.06,-0.41 4.45,-1.23 1.39,-0.81 2.49,-1.95 3.32,-3.41 0.82,-1.46 1.23,-3 1.23,-4.59 0,-1.62 -0.41,-3.15 -1.23,-4.6 -0.82,-1.45 -1.91,-2.57 -3.3,-3.37 -1.38,-0.8 -2.89,-1.2 -4.52,-1.2zm28.35 -2.84c3.52,0 6.44,1.27 8.76,3.81 2.11,2.31 3.16,5.06 3.16,8.23 0,3.18 -1.11,5.96 -3.34,8.34 -2.22,2.38 -5.09,3.57 -8.58,3.57 -3.51,0 -6.39,-1.19 -8.61,-3.57 -2.23,-2.38 -3.34,-5.16 -3.34,-8.34 0,-3.15 1.05,-5.89 3.16,-8.21 2.32,-2.56 5.25,-3.84 8.79,-3.84zm-0.01 2.88c-2.44,0 -4.54,0.9 -6.29,2.7 -1.76,1.8 -2.63,3.98 -2.63,6.53 0,1.64 0.4,3.17 1.2,4.6 0.8,1.42 1.88,2.52 3.25,3.29 1.35,0.77 2.85,1.16 4.48,1.16 1.63,0 3.13,-0.39 4.48,-1.16 1.36,-0.77 2.44,-1.87 3.25,-3.29 0.8,-1.43 1.2,-2.96 1.2,-4.6 0,-2.55 -0.88,-4.73 -2.65,-6.53 -1.76,-1.8 -3.85,-2.7 -6.28,-2.7zm16.23 -2.32l3.01 0 0 3.34c0.9,-1.32 1.84,-2.29 2.84,-2.94 1,-0.64 2.04,-0.96 3.11,-0.96 0.82,0 1.68,0.26 2.61,0.77l-1.53 2.47c-0.62,-0.27 -1.13,-0.4 -1.55,-0.4 -0.98,0 -1.93,0.4 -2.84,1.2 -0.91,0.8 -1.61,2.06 -2.09,3.75 -0.37,1.3 -0.54,3.93 -0.54,7.88l0 7.72 -3.01 0 0 -22.83z"/>
  </g>
 </g>
</svg>
