<?xml version="1.0" encoding="UTF-8"?>
<!DOCTYPE svg PUBLIC "-//W3C//DTD SVG 1.1//EN" "http://www.w3.org/Graphics/SVG/1.1/DTD/svg11.dtd">
<!-- Creator: CorelDRAW 2020 (64 Bit) -->
<svg xmlns="http://www.w3.org/2000/svg" xml:space="preserve" width="42.3332mm" height="42.3332mm" version="1.1" style="shape-rendering:geometricPrecision; text-rendering:geometricPrecision; image-rendering:optimizeQuality; fill-rule:evenodd; clip-rule:evenodd"
viewBox="0 0 4233.32 4233.32"
 xmlns:xlink="http://www.w3.org/1999/xlink"
 xmlns:xodm="http://www.corel.com/coreldraw/odm/2003">
 <defs>
  <style type="text/css">
   <![CDATA[
    .fil0 {fill:#000000}
   ]]>
  </style>
 </defs>
 <g id="Camada_x0020_1">
  <metadata id="CorelCorpID_0Corel-Layer"/>
  <g id="_2661827115760">
   <path class="fil0" d="M70.03 655.39l0 2990.27c0,134.36 72.4,249.47 159.45,333.53 82.54,79.71 205.96,127.13 365.87,127.13l2068.94 0c216.49,0 401.97,-117.66 474.65,-301.2 46.23,-116.78 34.5,-198.68 34.5,-353.43 0,-132 0,-264.01 0,-396.01 -5.94,6.83 -11.37,13.08 -18.44,21.96l-198.06 254.53c-41.35,69.45 38.55,312.85 -64.15,436.93 -62.62,75.66 -127.57,102.84 -236.58,102.84l-2077.02 0c-80.34,0 -143.81,-23.26 -187.94,-62.61 -39.31,-35.06 -86.85,-93.24 -86.85,-163.67l0 -2998.36c0,-104.06 113.87,-218.2 242.45,-218.2l1511.3 0c0,177.81 -22.18,424.05 43,563.14 37.93,80.93 82.78,139.01 154.23,193.28 66.73,50.69 163.84,92.17 255.36,92.17l436.41 0 0 614.22 117.72 -189.39c142.96,-238.78 108.57,-130.39 108.57,-513.73 0,-71.75 -48.2,-127.42 -89.98,-160.56 -45.04,-35.7 -327.61,-321.82 -429.22,-411.29l-161.53 -161.73c-24.96,-24.69 -43.13,-34.3 -68.93,-60.38 -103.51,-104.71 -165.8,-200.1 -317.14,-200.1l-1527.45 0c-151.02,0 -276.89,55.04 -353.74,131.17 -84.87,84.06 -155.42,196.24 -155.42,329.49z"/>
   <path class="fil0" d="M2389.51 3500.18c0,30.22 -9.35,88.9 48.49,88.9 101.42,0 445.04,-439.7 536.86,-562.27 32.69,-43.65 63.87,-82.59 93.47,-124.74 182.52,-259.88 364.8,-522.38 527.89,-797.52 28.4,-47.91 53.62,-86.69 82.87,-135.32l208.1 -349.56c16.49,-27.38 30.32,-42.92 37.86,-75.28 38.06,8.86 65.48,31.82 96.98,48.49 -6.39,27.42 -225.83,398.93 -245.87,433.01 -43.34,73.72 -84.33,142.47 -125.48,213.95 -63.02,109.49 -151.7,212.02 -91.11,292.32 78.33,103.78 117.96,-22.2 148.74,-73.06 54.63,-90.24 499.6,-835.23 499.6,-882.38 0,-66.68 -38.33,-77.4 -87.29,-106.67 -163.13,-97.57 -118.65,-31.55 -73.18,-199.27 53.14,-195.97 -131.17,-275.95 -203.21,-275.95 -152.75,0 -385.11,395.59 -462.18,523.79l-281.81 461.72c-31.31,52.01 -58.78,103.77 -91.96,158.58 -142.84,235.87 -401.19,737.74 -498.78,980.18 -30.22,75.08 -119.99,288.9 -119.99,381.08z"/>
   <path class="fil0" d="M546.85 2287.91c0,59.19 54.97,121.23 113.15,121.23l1915.39 0c160.61,0 158.88,-234.37 0,-234.37l-1915.39 0c-63.76,0 -113.15,71.18 -113.15,113.14z"/>
   <path class="fil0" d="M546.85 2748.57c0,64.74 50.34,113.94 137.06,113.48l1754.09 -0.33c9.01,-38.71 33.42,-83.07 51.18,-118.53 16.3,-32.55 46.36,-83.53 53.88,-115.84 -528.01,0 -1056.03,0 -1584.03,0 -149.66,0 -412.18,-44.83 -412.18,121.22z"/>
   <path class="fil0" d="M546.85 3201.15c0,55.68 51.06,113.15 105.07,113.15l1584.03 0c30.54,0 32.51,-48.3 53.45,-108.18 13.48,-38.59 35.14,-82.09 43.53,-118.11l-1657.2 -0.44c-75.55,0.26 -128.88,41.21 -128.88,113.58z"/>
   <path class="fil0" d="M910.54 922.09c-34.85,23.34 -63.33,28.78 -100.38,53.18 -115.47,76 -142.24,211.89 -87,312 36.3,65.81 103.18,100.29 173.81,133.29 89.74,41.94 183.29,46.5 183.29,148.07 0,47.69 -71.73,72.74 -129.32,72.74 -118.21,0 -152.24,-48.49 -218.21,-48.49 -24.23,104.05 -115.43,193.81 177.81,218.21 0,148.4 12.59,129.31 121.22,129.31 57.32,0 16.4,-80.4 40.41,-129.31 18.74,-38.17 8.71,-9.87 76.94,-44.3 17.64,-8.9 58.32,-38.88 69.76,-51.45 133.52,-146.64 61.97,-340.62 -79.74,-407.63 -47.7,-22.56 -86.23,-36.93 -136.36,-57.6 -180.32,-74.38 -100.91,-200.63 98.25,-154.82 23.11,5.31 74.16,28.85 84.3,28.85 32.75,0 56.57,-99.68 56.57,-137.4 0,-39.57 -99.33,-51.65 -141.21,-60.83 -97.35,-21.36 -1.83,-125.05 -77,-125.05 -130.57,0 -113.14,-12.17 -113.14,121.23z"/>
   <path class="fil0" d="M1403.53 1835.33c0,76.74 65.72,121.23 145.47,121.23l1010.23 0c213.35,0 162.08,-234.37 40.4,-234.37l-1091.04 0c-54.01,0 -105.06,57.47 -105.06,113.14z"/>
  </g>
 </g>
</svg>
