<?xml version="1.0" encoding="UTF-8"?>
<!DOCTYPE svg PUBLIC "-//W3C//DTD SVG 1.1//EN" "http://www.w3.org/Graphics/SVG/1.1/DTD/svg11.dtd">
<!-- Creator: CorelDRAW 2020 (64 Bit) -->
<svg xmlns="http://www.w3.org/2000/svg" xml:space="preserve" width="42.3332mm" height="40.6398mm" version="1.1" style="shape-rendering:geometricPrecision; text-rendering:geometricPrecision; image-rendering:optimizeQuality; fill-rule:evenodd; clip-rule:evenodd"
viewBox="0 0 4233.32 4063.98"
 xmlns:xlink="http://www.w3.org/1999/xlink"
 xmlns:xodm="http://www.corel.com/coreldraw/odm/2003">
 <defs>
  <style type="text/css">
   <![CDATA[
    .fil0 {fill:#000000}
   ]]>
  </style>
 </defs>
 <g id="Camada_x0020_1">
  <metadata id="CorelCorpID_0Corel-Layer"/>
  <g id="_2661830062976">
   <path class="fil0" d="M1103.1 2679.65c0,-246.28 41.34,-459.08 184.4,-648.09 94.33,-124.63 111.82,-146.72 245.12,-247.57 280.26,-212.03 718.39,-255.77 1037.36,-95.51 56.19,28.22 107.47,56.44 154.53,91.82l135.05 111.31c168.61,168.61 299.29,435.98 299.29,686.12 0,188.74 -14.9,319.71 -99.04,487.1 -83.59,166.3 -182.27,286.73 -329.26,392.79 -352.95,254.67 -829.9,255.21 -1189.2,7.05 -242.2,-167.31 -438.25,-492.17 -438.25,-785.02zm-484.21 -569.15l0 1741.45c0,68.88 41.55,110.44 110.42,110.44l2803.32 0c68.87,0 110.43,-41.56 110.43,-110.44l0 -1741.45c0,-79.76 -62.09,-103.15 -108.38,-146.46l-191.06 -165.72c-145.22,-138.3 -419.4,-349.89 -564.9,-488.47l-191.08 -165.71c-20.31,-19 -30.02,-22.39 -51.04,-42.4l-237.72 -204.02c-65.62,-58.45 -109,-112.42 -176.4,-112.42 -39.77,0 -118.82,73.63 -150.78,104.06 -21.03,20.03 -30.74,23.4 -51.05,42.41l-661.06 570.68c-20.71,16.04 -25.93,24.85 -44.02,40.94l-288.73 246.45c-21.19,19.7 -29.11,24.72 -50.57,42.88l-191.48 165.29c-33.51,29.43 -65.9,52.17 -65.9,112.49z"/>
   <path class="fil0" d="M66.72 1881.14l0 50.97c0,163.54 210.18,222.75 333.45,104.09 22.25,-21.43 33.73,-26.84 55.17,-46.77l406.3 -349.74c109.2,-84.96 209.65,-181.35 315.36,-270.78l607.67 -522.16c62.59,-55.76 284.98,-258.24 346.3,-299.3 35.17,23.54 76.55,69.18 114.03,98.34l283.1 243.57c22.65,21.57 36.19,28.81 59.47,50.97 36.67,34.94 78.01,62.76 114.69,97.69 22.24,21.18 34.28,27 55.28,46.66 24.18,22.63 33.67,30.04 58.97,51.45l633.71 547.08c127.15,107.57 282.57,232.05 403.07,344.49 172.22,160.68 341.94,27.64 341.94,-95.59 0,-100.97 -28.2,-129.66 -95.45,-193.37l-127.55 -110.3c-16.12,-14.98 -18.05,-14.27 -33.09,-26.39 -13.59,-10.94 -17.73,-17.12 -30.75,-28.71 -15.94,-14.2 -17.71,-12.75 -33.42,-26.04l-1126.41 -971.83c-15.72,-13.3 -17.49,-11.84 -33.42,-26.04l-420.22 -361.32c-156.42,-132.44 -216.91,-96.25 -356.79,22.08 -140.99,119.28 -275.46,245.02 -420.03,361.5l-191.6 165.18c-13.13,11.12 -17.43,17.78 -30.57,28.9l-389.47 332.6c-13.58,10.94 -17.73,17.11 -30.74,28.71 -15.94,14.2 -17.71,12.74 -33.42,26.04 -119.45,101.05 -231.91,210.66 -355.74,306.87l-355.38 307.23c-1.24,1.22 -3.01,3.01 -4.22,4.27 -1.22,1.25 -2.93,3.1 -4.12,4.37 -24.71,26.29 -56.12,63.51 -56.12,105.28z"/>
   <path class="fil0" d="M2173.45 3095.91l0 -365.29c70.16,18.75 118.93,103.6 118.93,195.39 0,77.93 -48.46,164.03 -118.93,169.9zm-203.88 -874.97c0,-83.78 14.04,-161.88 110.43,-169.91l0 322.82c-36.91,-24.72 -110.43,-95.4 -110.43,-152.91zm110.43 -416.25l0 50.96c-292.32,0 -402,315.49 -308.54,537.91 49.55,117.92 245.05,260.65 308.54,277.61l0 424.74c-193.52,-4.32 -45.22,-288.83 -254.84,-288.83 -183.62,0 -119.27,484.21 254.84,484.21 0,76.92 -6.51,122.49 8.5,186.89 35.04,16.82 41.41,16.82 76.46,0 15,-64.4 8.49,-109.97 8.49,-186.89 115.32,-2.57 219.73,-58.49 273.27,-125.98 121.82,-153.55 128.57,-433.06 -37.35,-585.66 -85.39,-78.53 -235.92,-133.64 -235.92,-171.83l0 -356.79c140.22,3.14 61.98,212.38 195.38,212.38 118.99,0 127.43,-51.77 127.43,-144.41 0,-137.16 -145.07,-263.35 -322.81,-263.35 0,-90.71 4.62,-101.93 -59.46,-101.93 -26.12,0 -33.99,24.88 -33.99,50.97z"/>
  </g>
 </g>
</svg>
