<?xml version="1.0" encoding="UTF-8"?>
<!DOCTYPE svg PUBLIC "-//W3C//DTD SVG 1.1//EN" "http://www.w3.org/Graphics/SVG/1.1/DTD/svg11.dtd">
<!-- Creator: CorelDRAW 2020 (64 Bit) -->
<svg xmlns="http://www.w3.org/2000/svg" xml:space="preserve" width="38.0998mm" height="42.3332mm" version="1.1" style="shape-rendering:geometricPrecision; text-rendering:geometricPrecision; image-rendering:optimizeQuality; fill-rule:evenodd; clip-rule:evenodd"
viewBox="0 0 3809.98 4233.32"
 xmlns:xlink="http://www.w3.org/1999/xlink"
 xmlns:xodm="http://www.corel.com/coreldraw/odm/2003">
 <defs>
  <style type="text/css">
   <![CDATA[
    .fil0 {fill:#000000}
   ]]>
  </style>
 </defs>
 <g id="Camada_x0020_1">
  <metadata id="CorelCorpID_0Corel-Layer"/>
  <g id="_2626417134720">
   <path class="fil0" d="M779.8 3587.48l0 -1594.35c48.24,0 92.58,12.37 135.52,15.95 0,54.61 7.19,1607.81 -3.02,1647.12 -15.84,61.03 -132.5,101.64 -132.5,-68.72zm138.96 -3483.65l109.31 0c141.48,8.42 283.86,49.18 421.22,120.11 97.35,50.26 257.27,-157.43 734.56,14.39 324.96,116.97 572.94,479.24 572.94,861.97 0,124.67 -45.54,313.92 -103.96,414.21 -10.36,17.79 -17.83,23.43 -23.59,48.16 25.99,38.8 833.16,837.13 906.78,910.76 156.93,156.92 379.65,320.12 135.55,562.02l-757.33 757.3c-92.79,92.79 -225.84,257.09 -340.8,257.09 -61.45,0 -104.24,-3.51 -156.37,-34.96 -93.25,-56.26 -749.59,-731.49 -862.02,-843.92 -32.22,-32.23 -272.62,-290.34 -311.3,-299.34l-17.53 14.35c8.12,30.4 79.94,91.9 105.63,117.58 139.27,139.27 124.8,126.31 3.98,247.13 -32.72,32.72 -86.35,78.85 -109.61,113.6 8.64,32.33 100.79,112.74 129.54,141.49 62.81,62.81 109.61,90.1 109.61,153.45 0,174.05 6.93,138.42 -97.43,229.41l-186.15 156.64c-80.21,62.77 -140.01,140.09 -210.67,140.09 -20.58,0 -348.78,-276.87 -384.7,-308.85 -100.7,-89.64 -77.65,-45.04 -77.65,-273.08l0 -1721.9c-67.9,-45.46 -127.33,-82.74 -185.39,-141.46 -179.76,-181.82 -292.92,-396.73 -292.92,-687.6 0,-334.43 167.51,-598.48 391.82,-764.08 154.5,-114.05 323.66,-174.17 496.48,-184.56zm1622.79 3507.56c-43.51,0 -76.88,-33.22 -68.46,-76.56 8.51,-43.78 336.86,-355.24 389.32,-407.72 26.34,-26.34 50.88,-60.94 86.5,-73.72 39.71,-14.26 86.89,14.8 86.89,55.78 0,48.19 -190.98,218.89 -233.18,261.08 -43.13,43.14 -80.42,80.43 -123.55,123.56 -24.94,24.94 -103.73,117.58 -137.52,117.58zm-191.32 -191.32c-38.65,0 -71.74,-26.39 -71.74,-63.77 0,-47.17 139.81,-167.71 177.36,-205.27 82.73,-82.73 155.95,-188.48 219.53,-135.99 75.24,62.14 -45.15,144.97 -119.87,219.69 -31.84,31.83 -170.98,185.34 -205.28,185.34zm-263.07 -255.09c0,-48.19 191,-218.89 233.18,-261.07 36.5,-36.51 225.97,-241.15 261.07,-241.15 42.69,0 74.85,36.42 67.28,75.27 -7.8,40.03 -44.55,65.44 -69.27,90.14 -50.95,50.92 -368.09,379.23 -404.34,393.59 -37.48,14.86 -87.92,-11.5 -87.92,-56.78zm-1028.34 -1634.2c0,-45.99 25.89,-123.28 71.74,-135.52 20.39,87.52 152.95,242.8 227.65,298.48 28.73,21.41 73.56,59.24 107.16,68.21 80.49,-53.89 64.08,-87.68 231.18,-87.68 159.68,0 342.24,241.73 168.83,447.84 -126.89,150.83 -441.07,110.03 -467.48,-165.22 -6.62,-68.91 33.64,-54.77 -40.86,-102.54 -119.9,-76.9 -185.56,-148.71 -266.43,-259.72 -15.04,-20.66 -31.79,-29.82 -31.79,-63.85zm717.44 -271.05l-277.62 -41.24c-157.91,-22.05 -363.19,-70.83 -496.93,95.75 -109.65,136.57 -91.55,243.82 -66.95,396.39 7.25,44.92 20.42,113.31 20.42,154.96 -264.46,0 -482.07,-142.37 -632.1,-340.45 -204.21,-269.63 -198.27,-675.61 9.15,-952.13 119.56,-159.43 287.11,-270.58 484.19,-312.98 36.2,-7.79 149.67,-21.58 182.97,-17.57 118.85,14.3 207.01,16.66 325.28,73.82 191.46,92.52 305.03,213.75 398.52,398.66 75.3,148.96 81,278.76 68.43,440.57 -2.96,38.08 -15.36,61.84 -15.36,104.22zm-151.45 -916.74c49.19,-23.61 163.05,-31.89 231.18,-31.89 202.56,0 398.27,96.84 529.37,227.95 199.38,199.38 284.31,514.57 197.17,769.63 -9.36,27.38 -15.89,50.82 -26.05,77.59 -9.85,25.94 -24.06,43.52 -30.87,72.76 -19.28,-5.15 -61.26,-42.57 -119.54,-71.78 -109.29,-54.8 -193.97,-63.13 -318.45,-80.14 -53.09,-7.26 -121.02,-23.46 -175.83,-23.46 33.46,-143.66 17.38,-107.57 26.13,-213.09 15.22,-183.61 -62.15,-394.69 -164.79,-549.06 -49.4,-74.29 -128.3,-148.6 -148.32,-178.51z"/>
   <path class="fil0" d="M987.07 916.95c-182.97,0 -163.88,-263.06 -23.91,-263.06 91.08,0 157.05,34.03 154.62,134.46 -1.72,71.14 -58.76,128.6 -130.71,128.6zm271.03 -119.57c0,-323.91 -409.62,-384.35 -523,-124.42 -55.41,127.03 -8.38,248.27 78.14,322.16 176.93,151.11 444.86,9.83 444.86,-197.74z"/>
  </g>
 </g>
</svg>
